SplineFontDB: 3.2
FontName: Nathan-ExpandedRegular
FullName: Nathan Expanded Regular
FamilyName: Nathan  Expandet
Weight: Book
Copyright: Copyright (c) 2009 by Peter Wiegel. All rights reserved.
Version: 0.001 2009
ItalicAngle: 0
UnderlinePosition: 0
UnderlineWidth: 0
Ascent: 1638
Descent: 410
InvalidEm: 0
sfntRevision: 0x00000042
LayerCount: 2
Layer: 0 1 "Back" 1
Layer: 1 1 "Fore" 0
XUID: [1021 578 1802256418 2381]
StyleMap: 0x0040
FSType: 0
OS2Version: 3
OS2_WeightWidthSlopeOnly: 0
OS2_UseTypoMetrics: 0
CreationTime: 1253031403
ModificationTime: 1698236081
PfmFamily: 17
TTFWeight: 400
TTFWidth: 7
LineGap: 54
VLineGap: 0
Panose: 2 11 6 3 5 3 2 2 2 4
OS2TypoAscent: 1362
OS2TypoAOffset: 0
OS2TypoDescent: -262
OS2TypoDOffset: 0
OS2TypoLinegap: 106
OS2WinAscent: 1783
OS2WinAOffset: 0
OS2WinDescent: 371
OS2WinDOffset: 0
HheadAscent: 1783
HheadAOffset: 0
HheadDescent: -371
HheadDOffset: 0
OS2SubXSize: 0
OS2SubYSize: 0
OS2SubXOff: 0
OS2SubYOff: 0
OS2SupXSize: 0
OS2SupYSize: 0
OS2SupXOff: 0
OS2SupYOff: 0
OS2StrikeYSize: 102
OS2StrikeYPos: 512
OS2CapHeight: 1415
OS2XHeight: 882
OS2Vendor: 'WGL '
OS2CodePages: 20000115.42000000
OS2UnicodeRanges: 00000003.00000000.00000000.00000000
Lookup: 258 0 0 "'kern' Horizontal Kerning in Latin lookup 0" { "'kern' Horizontal Kerning in Latin lookup 0 subtable"  } ['kern' ('latn' <'dflt' > ) ]
DEI: 91125
TtTable: prep
PUSHW_1
 0
CALL
EndTTInstrs
TtTable: fpgm
PUSHW_1
 0
FDEF
MPPEM
PUSHW_1
 8
LT
IF
PUSHB_2
 1
 1
INSTCTRL
EIF
PUSHW_1
 511
SCANCTRL
PUSHW_1
 68
SCVTCI
PUSHW_2
 8
 3
SDS
SDB
ENDF
PUSHW_1
 1
FDEF
DUP
DUP
RCVT
ROUND[Black]
WCVTP
PUSHB_1
 1
ADD
ENDF
PUSHW_1
 2
FDEF
PUSHW_1
 1
LOOPCALL
POP
ENDF
PUSHW_1
 3
FDEF
DUP
GC[cur]
PUSHB_1
 3
CINDEX
GC[cur]
GT
IF
SWAP
EIF
DUP
ROLL
DUP
ROLL
MD[grid]
ABS
ROLL
DUP
GC[cur]
DUP
ROUND[Grey]
SUB
ABS
PUSHB_1
 4
CINDEX
GC[cur]
DUP
ROUND[Grey]
SUB
ABS
GT
IF
SWAP
NEG
ROLL
EIF
MDAP[rnd]
DUP
PUSHB_1
 0
GTEQ
IF
ROUND[Black]
DUP
PUSHB_1
 0
EQ
IF
POP
PUSHB_1
 64
EIF
ELSE
ROUND[Black]
DUP
PUSHB_1
 0
EQ
IF

StartChar: .notdef
Encoding: 65536 -1 0
Width: 736
GlyphClass: 1
Flags: W
LayerCount: 2
Fore
SplineSet
104 1130 m 1,0,-1
 639 1130 l 1,1,-1
 639 630 l 1,2,-1
 104 630 l 1,3,-1
 104 1130 l 1,0,-1
126 673 m 1,4,-1
 610 673 l 1,5,-1
 610 1082 l 1,6,-1
 126 1082 l 1,7,-1
 126 673 l 1,4,-1
EndSplineSet
EndChar

StartChar: question
Encoding: 63 63 4
Width: 1320
GlyphClass: 1
Flags: W
LayerCount: 2
Fore
SplineSet
182 1097 m 0,0,1
 158 1069 158 1069 142 1069 c 0,2,3
 119 1069 119 1069 101 1085.5 c 128,-1,4
 83 1102 83 1102 83 1120 c 0,5,6
 83 1136 83 1136 97 1158 c 1,7,8
 189 1262 189 1262 326.5 1312 c 128,-1,9
 464 1362 464 1362 633 1362 c 0,10,11
 771 1362 771 1362 885 1331.5 c 128,-1,12
 999 1301 999 1301 1080.5 1245.5 c 128,-1,13
 1162 1190 1162 1190 1207.5 1113 c 128,-1,14
 1253 1036 1253 1036 1253 942 c 0,15,16
 1253 803 1253 803 1159 707.5 c 128,-1,17
 1065 612 1065 612 888 558 c 0,18,19
 731 510 731 510 655 444.5 c 128,-1,20
 579 379 579 379 579 288 c 0,21,22
 579 283 579 283 579 277.5 c 128,-1,23
 579 272 579 272 580 267 c 0,24,25
 580 262 580 262 580.5 257 c 128,-1,26
 581 252 581 252 581 247 c 0,27,28
 581 201 581 201 525 201 c 0,29,30
 508 201 508 201 498 207 c 128,-1,31
 488 213 488 213 483 224.5 c 128,-1,32
 478 236 478 236 477 252.5 c 128,-1,33
 476 269 476 269 476 289 c 0,34,35
 476 416 476 416 564 506.5 c 128,-1,36
 652 597 652 597 841 651 c 0,37,38
 1002 695 1002 695 1075.5 770 c 128,-1,39
 1149 845 1149 845 1151 956 c 1,40,41
 1146 1025 1146 1025 1106 1081.5 c 128,-1,42
 1066 1138 1066 1138 997.5 1177.5 c 128,-1,43
 929 1217 929 1217 836.5 1239 c 128,-1,44
 744 1261 744 1261 633 1261 c 0,45,46
 481 1261 481 1261 369.5 1221.5 c 128,-1,47
 258 1182 258 1182 182 1097 c 0,0,1
537 151 m 0,48,49
 648 151 648 151 648 67 c 0,50,51
 648 -16 648 -16 537 -16 c 0,52,53
 425 -16 425 -16 425 67 c 0,54,55
 425 151 425 151 537 151 c 0,48,49
EndSplineSet
EndChar

StartChar: zero
Encoding: 48 48 5
Width: 1291
GlyphClass: 1
Flags: W
LayerCount: 2
Fore
SplineSet
645 1391 m 0,0,1
 719 1391 719 1391 789.5 1358 c 128,-1,2
 860 1325 860 1325 923.5 1267 c 128,-1,3
 987 1209 987 1209 1040 1131.5 c 128,-1,4
 1093 1054 1093 1054 1132 965.5 c 128,-1,5
 1171 877 1171 877 1192.5 781 c 128,-1,6
 1214 685 1214 685 1214 592 c 0,7,8
 1214 451 1214 451 1171.5 335.5 c 128,-1,9
 1129 220 1129 220 1053 138 c 128,-1,10
 977 56 977 56 873 11 c 128,-1,11
 769 -34 769 -34 645 -34 c 0,12,13
 519 -34 519 -34 414.5 11 c 128,-1,14
 310 56 310 56 235 138.5 c 128,-1,15
 160 221 160 221 118.5 336.5 c 128,-1,16
 77 452 77 452 77 592 c 0,17,18
 77 690 77 690 99 787.5 c 128,-1,19
 121 885 121 885 160.5 974 c 128,-1,20
 200 1063 200 1063 253.5 1139 c 128,-1,21
 307 1215 307 1215 370 1271 c 128,-1,22
 433 1327 433 1327 503 1359 c 128,-1,23
 573 1391 573 1391 645 1391 c 0,0,1
949 1079 m 1,24,25
 918 1124 918 1124 880.5 1163 c 128,-1,26
 843 1202 843 1202 803.5 1230 c 128,-1,27
 764 1258 764 1258 723.5 1274 c 128,-1,28
 683 1290 683 1290 645 1290 c 0,29,30
 594 1290 594 1290 540 1261.5 c 128,-1,31
 486 1233 486 1233 434.5 1183 c 128,-1,32
 383 1133 383 1133 336.5 1065.5 c 128,-1,33
 290 998 290 998 255 920.5 c 128,-1,34
 220 843 220 843 199.5 759 c 128,-1,35
 179 675 179 675 179 592 c 0,36,37
 179 477 179 477 213 380.5 c 128,-1,38
 247 284 247 284 308.5 214.5 c 128,-1,39
 370 145 370 145 455.5 106 c 128,-1,40
 541 67 541 67 645 67 c 0,41,42
 747 67 747 67 832.5 105.5 c 128,-1,43
 918 144 918 144 980 213.5 c 128,-1,44
 1042 283 1042 283 1076.5 379.5 c 128,-1,45
 1111 476 1111 476 1111 592 c 0,46,47
 1111 722 1111 722 1067 847 c 128,-1,48
 1023 972 1023 972 948 1079 c 1,49,-1
 949 1079 l 1,24,25
EndSplineSet
EndChar

StartChar: nine
Encoding: 57 57 6
Width: 1108
GlyphClass: 1
Flags: W
LayerCount: 2
Fore
SplineSet
557 11 m 1,0,1
 526 0 526 0 517 0 c 256,2,3
 508 0 508 0 499.5 5.5 c 128,-1,4
 491 11 491 11 483.5 19 c 128,-1,5
 476 27 476 27 471.5 37 c 128,-1,6
 467 47 467 47 467 56 c 0,7,8
 467 84 467 84 490 95 c 0,9,10
 550 121 550 121 606 171 c 128,-1,11
 662 221 662 221 710 284.5 c 128,-1,12
 758 348 758 348 797 420.5 c 128,-1,13
 836 493 836 493 863 564 c 1,14,-1
 821 538 l 1,15,16
 749 506 749 506 668 488.5 c 128,-1,17
 587 471 587 471 513 471 c 0,18,19
 421 471 421 471 339.5 494.5 c 128,-1,20
 258 518 258 518 197 569 c 128,-1,21
 136 620 136 620 100.5 700 c 128,-1,22
 65 780 65 780 65 893 c 0,23,24
 67 1001 67 1001 102.5 1088 c 128,-1,25
 138 1175 138 1175 201 1236 c 128,-1,26
 264 1297 264 1297 350 1329.5 c 128,-1,27
 436 1362 436 1362 538 1362 c 0,28,29
 649 1362 649 1362 737 1327 c 128,-1,30
 825 1292 825 1292 886.5 1225.5 c 128,-1,31
 948 1159 948 1159 981 1063 c 128,-1,32
 1014 967 1014 967 1014 846 c 0,33,34
 1014 771 1014 771 999.5 689 c 128,-1,35
 985 607 985 607 957 524.5 c 128,-1,36
 929 442 929 442 889 363 c 128,-1,37
 849 284 849 284 798 216 c 128,-1,38
 747 148 747 148 686 95 c 128,-1,39
 625 42 625 42 555 11 c 1,40,-1
 557 11 l 1,0,1
902 731 m 1,41,42
 911 792 911 792 911 849 c 0,43,44
 911 948 911 948 886 1024.5 c 128,-1,45
 861 1101 861 1101 813 1153.5 c 128,-1,46
 765 1206 765 1206 695.5 1233.5 c 128,-1,47
 626 1261 626 1261 538 1261 c 0,48,49
 456 1261 456 1261 387.5 1234 c 128,-1,50
 319 1207 319 1207 270 1158 c 128,-1,51
 221 1109 221 1109 194 1039.5 c 128,-1,52
 167 970 167 970 167 886 c 0,53,54
 167 738 167 738 254.5 655.5 c 128,-1,55
 342 573 342 573 516 573 c 0,56,57
 591 573 591 573 655.5 587 c 128,-1,58
 720 601 720 601 770 623.5 c 128,-1,59
 820 646 820 646 853.5 674 c 128,-1,60
 887 702 887 702 900 731 c 1,61,-1
 902 731 l 1,41,42
EndSplineSet
EndChar

StartChar: eight
Encoding: 56 56 7
Width: 1201
GlyphClass: 1
Flags: W
LayerCount: 2
Fore
SplineSet
601 1362 m 0,0,1
 672 1362 672 1362 734.5 1337.5 c 128,-1,2
 797 1313 797 1313 843.5 1271 c 128,-1,3
 890 1229 890 1229 917 1174 c 128,-1,4
 944 1119 944 1119 944 1058 c 0,5,6
 944 904 944 904 812 816 c 1,7,-1
 817 816 l 1,8,9
 893 789 893 789 951 746.5 c 128,-1,10
 1009 704 1009 704 1048.5 651 c 128,-1,11
 1088 598 1088 598 1108 537 c 128,-1,12
 1128 476 1128 476 1128 412 c 0,13,14
 1128 322 1128 322 1087.5 242 c 128,-1,15
 1047 162 1047 162 975.5 102 c 128,-1,16
 904 42 904 42 808 6.5 c 128,-1,17
 712 -29 712 -29 601 -29 c 0,18,19
 489 -29 489 -29 392.5 6.5 c 128,-1,20
 296 42 296 42 225.5 102.5 c 128,-1,21
 155 163 155 163 114.5 243 c 128,-1,22
 74 323 74 323 74 412 c 0,23,24
 74 476 74 476 94 537 c 128,-1,25
 114 598 114 598 153.5 650.5 c 128,-1,26
 193 703 193 703 251 745.5 c 128,-1,27
 309 788 309 788 385 816 c 1,28,-1
 390 816 l 1,29,30
 259 904 259 904 259 1058 c 0,31,32
 259 1118 259 1118 285 1173 c 128,-1,33
 311 1228 311 1228 356.5 1270 c 128,-1,34
 402 1312 402 1312 464.5 1337 c 128,-1,35
 527 1362 527 1362 601 1362 c 0,0,1
895 657 m 0,36,37
 775 753 775 753 601 753 c 0,38,39
 512 753 512 753 435 725 c 128,-1,40
 358 697 358 697 300 650 c 128,-1,41
 242 603 242 603 209 541 c 128,-1,42
 176 479 176 479 176 412 c 0,43,44
 176 343 176 343 209.5 281 c 128,-1,45
 243 219 243 219 300.5 172.5 c 128,-1,46
 358 126 358 126 435.5 98.5 c 128,-1,47
 513 71 513 71 601 71 c 0,48,49
 688 71 688 71 765 98 c 128,-1,50
 842 125 842 125 900 171.5 c 128,-1,51
 958 218 958 218 991.5 280 c 128,-1,52
 1025 342 1025 342 1025 412 c 0,53,54
 1025 549 1025 549 895 657 c 0,36,37
763 1206 m 1,55,56
 699 1261 699 1261 601 1261 c 0,57,58
 552 1261 552 1261 508.5 1245 c 128,-1,59
 465 1229 465 1229 432.5 1201 c 128,-1,60
 400 1173 400 1173 381 1136.5 c 128,-1,61
 362 1100 362 1100 362 1058 c 0,62,63
 362 1014 362 1014 381.5 977 c 128,-1,64
 401 940 401 940 434 912.5 c 128,-1,65
 467 885 467 885 510 869.5 c 128,-1,66
 553 854 553 854 601 854 c 0,67,68
 648 854 648 854 691.5 870 c 128,-1,69
 735 886 735 886 768 914 c 128,-1,70
 801 942 801 942 821 979 c 128,-1,71
 841 1016 841 1016 841 1058 c 0,72,73
 841 1137 841 1137 764 1206 c 1,74,-1
 763 1206 l 1,55,56
EndSplineSet
EndChar

StartChar: seven
Encoding: 55 55 8
Width: 1263
GlyphClass: 1
Flags: W
LayerCount: 2
Fore
SplineSet
342 1327 m 1,0,-1
 1147 1327 l 2,1,2
 1199 1327 1199 1327 1199 1273 c 0,3,4
 1199 1200 1199 1200 1184.5 1148.5 c 128,-1,5
 1170 1097 1170 1097 1138 1065 c 0,6,7
 1100 1029 1100 1029 1062 999.5 c 128,-1,8
 1024 970 1024 970 989 947 c 1,9,-1
 988 947 l 1,10,11
 973 936 973 936 958 925 c 128,-1,12
 943 914 943 914 930 904.5 c 128,-1,13
 917 895 917 895 907.5 888.5 c 128,-1,14
 898 882 898 882 895 879 c 0,15,16
 833 827 833 827 797 789 c 128,-1,17
 761 751 761 751 742.5 712.5 c 128,-1,18
 724 674 724 674 718.5 628.5 c 128,-1,19
 713 583 713 583 713 515 c 2,20,-1
 711 53 l 2,21,22
 711 2 711 2 660 2 c 0,23,24
 610 2 610 2 610 53 c 2,25,-1
 610 515 l 2,26,27
 610 593 610 593 618.5 655 c 128,-1,28
 627 717 627 717 657 773.5 c 128,-1,29
 687 830 687 830 745 886.5 c 128,-1,30
 803 943 803 943 903 1010 c 0,31,32
 937 1032 937 1032 968.5 1054.5 c 128,-1,33
 1000 1077 1000 1077 1025.5 1102.5 c 128,-1,34
 1051 1128 1051 1128 1069 1158 c 128,-1,35
 1087 1188 1087 1188 1094 1226 c 1,36,-1
 340 1226 l 1,37,38
 299 1188 299 1188 259 1148.5 c 128,-1,39
 219 1109 219 1109 178 1071 c 0,40,41
 150 1045 150 1045 136 1045 c 0,42,43
 110 1045 110 1045 94.5 1061 c 128,-1,44
 79 1077 79 1077 79 1093 c 0,45,46
 79 1112 79 1112 89 1128 c 2,47,-1
 237 1333 l 2,48,49
 249 1349 249 1349 265 1356.5 c 128,-1,50
 281 1364 281 1364 292 1364 c 0,51,52
 306 1364 306 1364 332 1337 c 2,53,-1
 342 1327 l 1,0,-1
EndSplineSet
EndChar

StartChar: six
Encoding: 54 54 9
Width: 1107
GlyphClass: 1
Flags: W
LayerCount: 2
Fore
SplineSet
553 1353 m 0,0,1
 578 1364 578 1364 589 1364 c 256,2,3
 600 1364 600 1364 625 1347 c 0,4,5
 638 1338 638 1338 638 1308 c 0,6,7
 638 1279 638 1279 617 1269 c 0,8,9
 555 1242 555 1242 498 1192 c 128,-1,10
 441 1142 441 1142 392.5 1079 c 128,-1,11
 344 1016 344 1016 305.5 944 c 128,-1,12
 267 872 267 872 241 800 c 1,13,-1
 287 826 l 1,14,15
 356 856 356 856 435.5 874 c 128,-1,16
 515 892 515 892 592 892 c 0,17,18
 683 892 683 892 764.5 868 c 128,-1,19
 846 844 846 844 907.5 793 c 128,-1,20
 969 742 969 742 1005 662.5 c 128,-1,21
 1041 583 1041 583 1041 472 c 0,22,23
 1041 365 1041 365 1005.5 278.5 c 128,-1,24
 970 192 970 192 907 130.5 c 128,-1,25
 844 69 844 69 757.5 35.5 c 128,-1,26
 671 2 671 2 568 2 c 0,27,28
 456 2 456 2 368 37 c 128,-1,29
 280 72 280 72 219 138 c 128,-1,30
 158 204 158 204 126 299.5 c 128,-1,31
 94 395 94 395 94 517 c 0,32,33
 94 593 94 593 108.5 676 c 128,-1,34
 123 759 123 759 150.5 841.5 c 128,-1,35
 178 924 178 924 218 1002.5 c 128,-1,36
 258 1081 258 1081 309 1148.5 c 128,-1,37
 360 1216 360 1216 421 1269 c 128,-1,38
 482 1322 482 1322 553 1353 c 0,0,1
204 633 m 1,39,40
 195 573 195 573 195 518 c 0,41,42
 195 316 195 316 291 209.5 c 128,-1,43
 387 103 387 103 568 103 c 0,44,45
 650 103 650 103 718.5 130 c 128,-1,46
 787 157 787 157 836 206 c 128,-1,47
 885 255 885 255 912.5 324.5 c 128,-1,48
 940 394 940 394 940 478 c 0,49,50
 940 630 940 630 852 710.5 c 128,-1,51
 764 791 764 791 597 791 c 0,52,53
 517 791 517 791 451.5 777.5 c 128,-1,54
 386 764 386 764 336.5 741.5 c 128,-1,55
 287 719 287 719 254 690.5 c 128,-1,56
 221 662 221 662 207 633 c 1,57,-1
 204 633 l 1,39,40
EndSplineSet
EndChar

StartChar: four
Encoding: 52 52 10
Width: 1104
GlyphClass: 1
Flags: W
LayerCount: 2
Fore
SplineSet
417 1281 m 0,0,1
 401 1294 401 1294 401 1316 c 0,2,3
 401 1324 401 1324 406 1333.5 c 128,-1,4
 411 1343 411 1343 419.5 1351 c 128,-1,5
 428 1359 428 1359 437.5 1364 c 128,-1,6
 447 1369 447 1369 456 1369 c 0,7,8
 481 1369 481 1369 509.5 1347.5 c 128,-1,9
 538 1326 538 1326 563.5 1296.5 c 128,-1,10
 589 1267 589 1267 609 1236.5 c 128,-1,11
 629 1206 629 1206 637 1188 c 0,12,13
 650 1159 650 1159 650 1113 c 0,14,15
 650 1069 650 1069 633.5 1030.5 c 128,-1,16
 617 992 617 992 589.5 956 c 128,-1,17
 562 920 562 920 526 885.5 c 128,-1,18
 490 851 490 851 451 816 c 0,19,20
 402 772 402 772 353.5 725.5 c 128,-1,21
 305 679 305 679 265.5 627.5 c 128,-1,22
 226 576 226 576 200.5 519 c 128,-1,23
 175 462 175 462 173 398 c 1,24,-1
 632 398 l 1,25,-1
 632 838 l 2,26,27
 632 889 632 889 682 889 c 0,28,29
 734 889 734 889 734 838 c 2,30,-1
 734 398 l 1,31,-1
 997 398 l 2,32,33
 1049 398 1049 398 1049 347 c 0,34,35
 1049 297 1049 297 997 297 c 2,36,-1
 734 297 l 1,37,-1
 734 103 l 1,38,-1
 825 103 l 2,39,40
 876 103 876 103 876 53 c 0,41,42
 876 2 876 2 825 2 c 2,43,-1
 543 2 l 2,44,45
 491 2 491 2 491 53 c 0,46,47
 491 103 491 103 543 103 c 2,48,-1
 632 103 l 1,49,-1
 632 297 l 1,50,-1
 121 297 l 2,51,52
 102 297 102 297 92 303 c 128,-1,53
 82 309 82 309 77 320.5 c 128,-1,54
 72 332 72 332 71 348.5 c 128,-1,55
 70 365 70 365 70 387 c 0,56,57
 70 469 70 469 96.5 537 c 128,-1,58
 123 605 123 605 164 663 c 128,-1,59
 205 721 205 721 256 771 c 128,-1,60
 307 821 307 821 356 866 c 0,61,62
 394 901 394 901 428.5 933.5 c 128,-1,63
 463 966 463 966 489.5 997 c 128,-1,64
 516 1028 516 1028 531.5 1057 c 128,-1,65
 547 1086 547 1086 547 1114 c 0,66,67
 547 1152 547 1152 513.5 1193 c 128,-1,68
 480 1234 480 1234 417 1281 c 0,0,1
EndSplineSet
EndChar

StartChar: five
Encoding: 53 53 11
Width: 1192
GlyphClass: 1
Flags: W
LayerCount: 2
Fore
SplineSet
846 1226 m 1,0,-1
 224 1226 l 1,1,-1
 200 896 l 1,2,-1
 229 896 l 1,3,4
 307 907 307 907 377.5 912.5 c 128,-1,5
 448 918 448 918 511 918 c 0,6,7
 685 918 685 918 796 879 c 128,-1,8
 907 840 907 840 970.5 775 c 128,-1,9
 1034 710 1034 710 1058 626.5 c 128,-1,10
 1082 543 1082 543 1082 453 c 0,11,12
 1082 337 1082 337 1050.5 248 c 128,-1,13
 1019 159 1019 159 959 98 c 128,-1,14
 899 37 899 37 811.5 4.5 c 128,-1,15
 724 -28 724 -28 612 -32 c 1,16,-1
 592 -32 l 2,17,18
 478 -32 478 -32 384.5 0.5 c 128,-1,19
 291 33 291 33 223.5 91 c 128,-1,20
 156 149 156 149 119 229.5 c 128,-1,21
 82 310 82 310 82 406 c 0,22,23
 82 443 82 443 86.5 486.5 c 128,-1,24
 91 530 91 530 104.5 567 c 128,-1,25
 118 604 118 604 141.5 628.5 c 128,-1,26
 165 653 165 653 204 653 c 0,27,28
 224 653 224 653 243.5 645 c 128,-1,29
 263 637 263 637 278 623.5 c 128,-1,30
 293 610 293 610 302 591.5 c 128,-1,31
 311 573 311 573 311 552 c 0,32,33
 311 464 311 464 208 450 c 1,34,-1
 186 450 l 1,35,36
 186 443 186 443 185.5 436 c 128,-1,37
 185 429 185 429 184 424 c 256,38,39
 183 419 183 419 183 414 c 128,-1,40
 183 409 183 409 183 406 c 0,41,42
 183 331 183 331 213 268.5 c 128,-1,43
 243 206 243 206 297 161.5 c 128,-1,44
 351 117 351 117 426 92.5 c 128,-1,45
 501 68 501 68 592 68 c 2,46,-1
 608 68 l 1,47,48
 794 73 794 73 887 170 c 128,-1,49
 980 267 980 267 980 453 c 0,50,51
 980 526 980 526 963 592 c 128,-1,52
 946 658 946 658 896 708 c 128,-1,53
 846 758 846 758 754 787.5 c 128,-1,54
 662 817 662 817 511 817 c 0,55,56
 361 817 361 817 161 783 c 1,57,-1
 157 783 l 1,58,-1
 148 780 l 1,59,60
 92 780 92 780 92 834 c 1,61,-1
 127 1276 l 2,62,63
 128 1299 128 1299 140.5 1313 c 128,-1,64
 153 1327 153 1327 177 1327 c 2,65,-1
 843 1327 l 2,66,67
 845 1329 845 1329 846.5 1331 c 128,-1,68
 848 1333 848 1333 850 1335 c 2,69,-1
 852 1335 l 1,70,71
 875 1364 875 1364 892 1364 c 0,72,73
 905 1364 905 1364 921 1354.5 c 128,-1,74
 937 1345 937 1345 946 1332 c 2,75,-1
 1087 1118 l 2,76,77
 1092 1110 1092 1110 1092 1092 c 0,78,79
 1092 1076 1092 1076 1075 1061 c 128,-1,80
 1058 1046 1058 1046 1030 1046 c 0,81,82
 1013 1046 1013 1046 994 1074 c 1,83,-1
 991 1074 l 1,84,-1
 846 1226 l 1,0,-1
EndSplineSet
EndChar

StartChar: three
Encoding: 51 51 12
Width: 1203
GlyphClass: 1
Flags: W
LayerCount: 2
Fore
SplineSet
345 552 m 0,0,1
 345 463 345 463 243 450 c 1,2,-1
 222 450 l 1,3,4
 220 439 220 439 219.5 432 c 128,-1,5
 219 425 219 425 219 417 c 2,6,-1
 219 406 l 2,7,8
 219 329 219 329 248.5 267 c 128,-1,9
 278 205 278 205 332 160.5 c 128,-1,10
 386 116 386 116 461 92 c 128,-1,11
 536 68 536 68 627 68 c 2,12,-1
 636 68 l 1,13,14
 820 76 820 76 917.5 179 c 128,-1,15
 1015 282 1015 282 1015 471 c 2,16,-1
 1015 497 l 2,17,18
 1013 522 1013 522 1011 548.5 c 128,-1,19
 1009 575 1009 575 1003 601 c 128,-1,20
 997 627 997 627 985 653 c 128,-1,21
 973 679 973 679 951 704 c 0,22,23
 918 743 918 743 824 777 c 0,24,25
 747 805 747 805 595 805 c 2,26,-1
 569 805 l 2,27,28
 562 805 562 805 555.5 804.5 c 128,-1,29
 549 804 549 804 541 804 c 0,30,31
 518 804 518 804 504.5 816 c 128,-1,32
 491 828 491 828 491 852 c 0,33,34
 491 881 491 881 502 890 c 1,35,-1
 503 890 l 1,36,37
 609 975 609 975 715.5 1058 c 128,-1,38
 822 1141 822 1141 928 1226 c 1,39,-1
 340 1226 l 1,40,41
 304 1188 304 1188 268 1150 c 128,-1,42
 232 1112 232 1112 196 1074 c 0,43,44
 169 1046 169 1046 153 1046 c 0,45,46
 127 1046 127 1046 111 1061 c 128,-1,47
 95 1076 95 1076 95 1093 c 0,48,49
 95 1104 95 1104 96 1109.5 c 128,-1,50
 97 1115 97 1115 99 1118 c 2,51,-1
 240 1332 l 2,52,53
 249 1346 249 1346 265 1355 c 128,-1,54
 281 1364 281 1364 295 1364 c 0,55,56
 310 1364 310 1364 336 1335 c 1,57,-1
 337 1335 l 1,58,-1
 345 1327 l 1,59,-1
 1074 1327 l 2,60,61
 1125 1327 1125 1327 1125 1276 c 0,62,63
 1125 1248 1125 1248 1114 1240 c 1,64,-1
 1113 1240 l 1,65,66
 1006 1155 1006 1155 900 1071 c 128,-1,67
 794 987 794 987 687 902 c 1,68,-1
 700 902 l 1,69,70
 807 893 807 893 889.5 860.5 c 128,-1,71
 972 828 972 828 1027 774 c 0,72,73
 1052 747 1052 747 1068 713.5 c 128,-1,74
 1084 680 1084 680 1094 644 c 128,-1,75
 1104 608 1104 608 1108.5 571 c 128,-1,76
 1113 534 1113 534 1116 499 c 2,77,-1
 1116 471 l 2,78,79
 1116 225 1116 225 993 98.5 c 128,-1,80
 870 -28 870 -28 638 -32 c 1,81,-1
 627 -32 l 2,82,83
 513 -32 513 -32 419 0.5 c 128,-1,84
 325 33 325 33 257.5 91 c 128,-1,85
 190 149 190 149 153 229.5 c 128,-1,86
 116 310 116 310 116 406 c 0,87,88
 116 443 116 443 120.5 486.5 c 128,-1,89
 125 530 125 530 138 567 c 128,-1,90
 151 604 151 604 174 629 c 128,-1,91
 197 654 197 654 235 654 c 0,92,93
 258 654 258 654 278 646 c 128,-1,94
 298 638 298 638 313 624 c 128,-1,95
 328 610 328 610 336.5 591.5 c 128,-1,96
 345 573 345 573 345 552 c 0,0,1
EndSplineSet
EndChar

StartChar: two
Encoding: 50 50 13
Width: 1207
GlyphClass: 1
Flags: W
LayerCount: 2
Fore
SplineSet
859 2 m 1,0,-1
 130 2 l 2,1,2
 79 2 79 2 79 53 c 2,3,-1
 79 59 l 1,4,5
 89 188 89 188 131 286.5 c 128,-1,6
 173 385 173 385 240.5 459 c 128,-1,7
 308 533 308 533 400 587 c 128,-1,8
 492 641 492 641 603 680 c 0,9,10
 720 720 720 720 799.5 757 c 128,-1,11
 879 794 879 794 927.5 834.5 c 128,-1,12
 976 875 976 875 997 922 c 128,-1,13
 1018 969 1018 969 1018 1030 c 0,14,15
 1018 1142 1018 1142 916.5 1201.5 c 128,-1,16
 815 1261 815 1261 609 1261 c 0,17,18
 526 1261 526 1261 451 1238.5 c 128,-1,19
 376 1216 376 1216 319 1178.5 c 128,-1,20
 262 1141 262 1141 228.5 1092 c 128,-1,21
 195 1043 195 1043 195 989 c 0,22,23
 195 973 195 973 200 965 c 1,24,-1
 219 965 l 1,25,26
 274 957 274 957 310.5 929 c 128,-1,27
 347 901 347 901 347 858 c 0,28,29
 347 838 347 838 339.5 820.5 c 128,-1,30
 332 803 332 803 319.5 790.5 c 128,-1,31
 307 778 307 778 291 770.5 c 128,-1,32
 275 763 275 763 259 763 c 0,33,34
 220 763 220 763 189.5 782.5 c 128,-1,35
 159 802 159 802 137 833.5 c 128,-1,36
 115 865 115 865 103.5 906 c 128,-1,37
 92 947 92 947 92 989 c 0,38,39
 92 1062 92 1062 133 1129.5 c 128,-1,40
 174 1197 174 1197 244.5 1248.5 c 128,-1,41
 315 1300 315 1300 409 1331 c 128,-1,42
 503 1362 503 1362 609 1362 c 0,43,44
 729 1362 729 1362 824 1339 c 128,-1,45
 919 1316 919 1316 984 1273 c 128,-1,46
 1049 1230 1049 1230 1083.5 1169.5 c 128,-1,47
 1118 1109 1118 1109 1118 1034 c 0,48,49
 1118 956 1118 956 1093.5 894 c 128,-1,50
 1069 832 1069 832 1014.5 779 c 128,-1,51
 960 726 960 726 872 680.5 c 128,-1,52
 784 635 784 635 658 590 c 0,53,54
 544 549 544 549 461.5 501 c 128,-1,55
 379 453 379 453 322.5 394 c 128,-1,56
 266 335 266 335 233 263 c 128,-1,57
 200 191 200 191 186 103 c 1,58,-1
 864 103 l 1,59,-1
 1008 256 l 1,60,-1
 1009 256 l 1,61,62
 1033 283 1033 283 1051 283 c 0,63,64
 1079 283 1079 283 1094.5 267 c 128,-1,65
 1110 251 1110 251 1110 236 c 0,66,67
 1110 219 1110 219 1105 211 c 0,68,69
 1070 158 1070 158 1030.5 98 c 128,-1,70
 991 38 991 38 956 -14 c 0,71,72
 946 -25 946 -25 932 -29.5 c 128,-1,73
 918 -34 918 -34 907 -34 c 0,74,75
 890 -34 890 -34 869 -5 c 1,76,-1
 865 -5 l 1,77,-1
 859 2 l 1,0,-1
EndSplineSet
EndChar

StartChar: one
Encoding: 49 49 14
Width: 841
GlyphClass: 1
Flags: W
LayerCount: 2
Fore
SplineSet
75 908 m 0,0,1
 71 913 71 913 69 920 c 128,-1,2
 67 927 67 927 67 939 c 0,3,4
 67 948 67 948 72 956.5 c 128,-1,5
 77 965 77 965 85 972 c 128,-1,6
 93 979 93 979 104 983.5 c 128,-1,7
 115 988 115 988 126 988 c 0,8,9
 132 988 132 988 144.5 979.5 c 128,-1,10
 157 971 157 971 171 961 c 0,11,12
 182 953 182 953 194.5 946.5 c 128,-1,13
 207 940 207 940 228 940 c 0,14,15
 254 940 254 940 283 956 c 128,-1,16
 312 972 312 972 341 998.5 c 128,-1,17
 370 1025 370 1025 398 1058.5 c 128,-1,18
 426 1092 426 1092 452 1127.5 c 128,-1,19
 478 1163 478 1163 501 1197 c 128,-1,20
 524 1231 524 1231 541 1258 c 0,21,22
 546 1266 546 1266 552.5 1276 c 128,-1,23
 559 1286 559 1286 563 1292 c 2,24,-1
 565 1294 l 2,25,26
 570 1303 570 1303 577 1315 c 128,-1,27
 584 1327 584 1327 592.5 1338 c 128,-1,28
 601 1349 601 1349 610 1356.5 c 128,-1,29
 619 1364 619 1364 628 1364 c 0,30,31
 656 1364 656 1364 671.5 1347.5 c 128,-1,32
 687 1331 687 1331 687 1311 c 2,33,-1
 689 103 l 1,34,-1
 826 103 l 2,35,36
 878 103 878 103 878 53 c 0,37,38
 878 2 878 2 826 2 c 2,39,-1
 448 2 l 2,40,41
 398 2 398 2 398 53 c 0,42,43
 398 103 398 103 448 103 c 2,44,-1
 586 103 l 1,45,-1
 586 1154 l 1,46,-1
 541 1073 l 1,47,48
 503 1023 503 1023 463.5 979.5 c 128,-1,49
 424 936 424 936 383.5 903.5 c 128,-1,50
 343 871 343 871 301 852.5 c 128,-1,51
 259 834 259 834 217 834 c 0,52,53
 146 834 146 834 75 908 c 0,0,1
EndSplineSet
EndChar

StartChar: X
Encoding: 88 88 15
Width: 1890
GlyphClass: 1
Flags: W
LayerCount: 2
Fore
SplineSet
1414 2 m 2,0,1
 1363 2 1363 2 1363 53 c 0,2,3
 1363 103 1363 103 1414 103 c 2,4,-1
 1482 103 l 1,5,6
 1421 179 1421 179 1357.5 258.5 c 128,-1,7
 1294 338 1294 338 1230.5 418 c 128,-1,8
 1167 498 1167 498 1103.5 577.5 c 128,-1,9
 1040 657 1040 657 979 733 c 1,10,11
 827 565 827 565 688 409.5 c 128,-1,12
 549 254 549 254 413 103 c 1,13,-1
 474 103 l 2,14,15
 525 103 525 103 525 53 c 0,16,17
 525 2 525 2 474 2 c 2,18,-1
 123 2 l 2,19,20
 71 2 71 2 71 53 c 0,21,22
 71 103 71 103 123 103 c 2,23,-1
 274 103 l 1,24,25
 435 282 435 282 593.5 459 c 128,-1,26
 752 636 752 636 913 815 c 1,27,28
 871 868 871 868 825.5 924.5 c 128,-1,29
 780 981 780 981 734.5 1038 c 128,-1,30
 689 1095 689 1095 643.5 1151.5 c 128,-1,31
 598 1208 598 1208 556 1261 c 1,32,-1
 435 1261 l 2,33,34
 383 1261 383 1261 383 1311 c 0,35,36
 383 1362 383 1362 435 1362 c 2,37,-1
 730 1362 l 2,38,39
 782 1362 782 1362 782 1311 c 0,40,41
 782 1261 782 1261 730 1261 c 2,42,-1
 689 1261 l 1,43,44
 758 1175 758 1175 834.5 1078.5 c 128,-1,45
 911 982 911 982 980 896 c 1,46,47
 1075 998 1075 998 1154.5 1086.5 c 128,-1,48
 1234 1175 1234 1175 1312 1261 c 1,49,-1
 1279 1261 l 2,50,51
 1228 1261 1228 1261 1228 1311 c 0,52,53
 1228 1362 1228 1362 1279 1362 c 2,54,-1
 1575 1362 l 2,55,56
 1626 1362 1626 1362 1626 1311 c 0,57,58
 1626 1261 1626 1261 1575 1261 c 2,59,-1
 1451 1261 l 1,60,61
 1350 1149 1350 1149 1250 1036.5 c 128,-1,62
 1150 924 1150 924 1049 812 c 1,63,-1
 1048 812 l 1,64,65
 1191 634 1191 634 1331.5 457.5 c 128,-1,66
 1472 281 1472 281 1615 103 c 1,67,-1
 1765 103 l 2,68,69
 1815 103 1815 103 1815 53 c 0,70,71
 1815 2 1815 2 1765 2 c 2,72,-1
 1414 2 l 2,0,1
EndSplineSet
EndChar

StartChar: x
Encoding: 120 120 16
Width: 1213
GlyphClass: 1
Flags: W
LayerCount: 2
Fore
SplineSet
606 590 m 1,0,1
 655 649 655 649 691.5 694 c 128,-1,2
 728 739 728 739 763 781 c 1,3,-1
 746 781 l 2,4,5
 703 784 703 784 703 831 c 0,6,7
 703 882 703 882 754 882 c 2,8,-1
 990 882 l 2,9,10
 1041 882 1041 882 1041 831 c 0,11,12
 1041 781 1041 781 990 781 c 2,13,-1
 897 781 l 1,14,15
 841 712 841 712 785.5 643.5 c 128,-1,16
 730 575 730 575 674 506 c 1,17,18
 755 407 755 407 839 304.5 c 128,-1,19
 923 202 923 202 1004 103 c 1,20,-1
 1083 103 l 2,21,22
 1134 103 1134 103 1134 53 c 0,23,24
 1134 2 1134 2 1083 2 c 2,25,-1
 834 2 l 2,26,27
 782 2 782 2 782 53 c 0,28,29
 782 103 782 103 834 103 c 2,30,-1
 868 103 l 1,31,-1
 603 421 l 1,32,33
 573 384 573 384 540 343.5 c 128,-1,34
 507 303 507 303 474 262 c 128,-1,35
 441 221 441 221 408 180.5 c 128,-1,36
 375 140 375 140 345 103 c 1,37,-1
 379 103 l 2,38,39
 431 103 431 103 431 53 c 0,40,41
 431 2 431 2 379 2 c 2,42,-1
 130 2 l 2,43,44
 79 2 79 2 79 53 c 0,45,46
 79 103 79 103 130 103 c 2,47,-1
 211 103 l 1,48,49
 293 204 293 204 375 304.5 c 128,-1,50
 457 405 457 405 539 506 c 1,51,52
 484 574 484 574 427.5 643.5 c 128,-1,53
 371 713 371 713 316 781 c 1,54,-1
 223 781 l 2,55,56
 172 781 172 781 172 831 c 0,57,58
 172 882 172 882 223 882 c 2,59,-1
 459 882 l 2,60,61
 510 882 510 882 510 831 c 0,62,63
 510 784 510 784 467 781 c 2,64,-1
 450 781 l 1,65,-1
 606 590 l 1,0,1
EndSplineSet
EndChar

StartChar: q
Encoding: 113 113 17
Width: 1189
GlyphClass: 1
Flags: W
LayerCount: 2
Fore
SplineSet
1029 -160 m 2,0,1
 1080 -160 1080 -160 1080 -211 c 256,2,3
 1080 -262 1080 -262 1029 -262 c 2,4,-1
 700 -262 l 2,5,6
 650 -262 650 -262 650 -211 c 256,7,8
 650 -160 650 -160 700 -160 c 2,9,-1
 818 -160 l 1,10,-1
 819 127 l 1,11,-1
 777 86 l 1,12,13
 655 -13 655 -13 504 -13 c 0,14,15
 411 -13 411 -13 331 23.5 c 128,-1,16
 251 60 251 60 192.5 123 c 128,-1,17
 134 186 134 186 101 269.5 c 128,-1,18
 68 353 68 353 68 448 c 0,19,20
 68 507 68 507 85.5 564.5 c 128,-1,21
 103 622 103 622 134 673.5 c 128,-1,22
 165 725 165 725 206.5 768.5 c 128,-1,23
 248 812 248 812 296.5 843.5 c 128,-1,24
 345 875 345 875 398 892.5 c 128,-1,25
 451 910 451 910 504 910 c 0,26,27
 645 910 645 910 776 785 c 1,28,-1
 819 737 l 1,29,-1
 818 831 l 2,30,31
 818 882 818 882 870 882 c 2,32,-1
 1062 882 l 2,33,34
 1112 882 1112 882 1112 831 c 0,35,36
 1112 781 1112 781 1062 781 c 2,37,-1
 920 781 l 1,38,-1
 920 -160 l 1,39,-1
 1029 -160 l 2,0,1
504 808 m 0,40,41
 468 808 468 808 429 793.5 c 128,-1,42
 390 779 390 779 353 753.5 c 128,-1,43
 316 728 316 728 282.5 694 c 128,-1,44
 249 660 249 660 224 620 c 128,-1,45
 199 580 199 580 184.5 536 c 128,-1,46
 170 492 170 492 170 448 c 0,47,48
 170 376 170 376 196.5 310.5 c 128,-1,49
 223 245 223 245 268.5 195.5 c 128,-1,50
 314 146 314 146 374.5 116.5 c 128,-1,51
 435 87 435 87 504 87 c 0,52,53
 572 87 572 87 629.5 113.5 c 128,-1,54
 687 140 687 140 729 186.5 c 128,-1,55
 771 233 771 233 794.5 296 c 128,-1,56
 818 359 818 359 818 431 c 0,57,58
 818 500 818 500 790.5 567.5 c 128,-1,59
 763 635 763 635 718.5 688.5 c 128,-1,60
 674 742 674 742 618 775 c 128,-1,61
 562 808 562 808 504 808 c 0,40,41
EndSplineSet
EndChar

StartChar: p
Encoding: 112 112 18
Width: 1189
GlyphClass: 1
Flags: W
LayerCount: 2
Fore
SplineSet
160 -262 m 2,0,1
 110 -262 110 -262 110 -211 c 256,2,3
 110 -160 110 -160 160 -160 c 2,4,-1
 269 -160 l 1,5,-1
 269 781 l 1,6,-1
 129 781 l 2,7,8
 77 781 77 781 77 831 c 0,9,10
 77 882 77 882 129 882 c 2,11,-1
 321 882 l 2,12,13
 372 882 372 882 372 831 c 2,14,-1
 372 747 l 1,15,-1
 415 785 l 1,16,17
 542 910 542 910 687 910 c 0,18,19
 765 910 765 910 842 871.5 c 128,-1,20
 919 833 919 833 981 768.5 c 128,-1,21
 1043 704 1043 704 1081.5 621 c 128,-1,22
 1120 538 1120 538 1121 448 c 0,23,24
 1121 350 1121 350 1087 266 c 128,-1,25
 1053 182 1053 182 994 120 c 128,-1,26
 935 58 935 58 856 22.5 c 128,-1,27
 777 -13 777 -13 687 -13 c 0,28,29
 530 -13 530 -13 413 86 c 1,30,-1
 373 123 l 1,31,-1
 372 -160 l 1,32,-1
 489 -160 l 2,33,34
 540 -160 540 -160 540 -211 c 256,35,36
 540 -262 540 -262 489 -262 c 2,37,-1
 160 -262 l 2,0,1
907 697 m 0,38,39
 803 808 803 808 687 808 c 0,40,41
 628 808 628 808 571 775 c 128,-1,42
 514 742 514 742 470 688.5 c 128,-1,43
 426 635 426 635 399 567.5 c 128,-1,44
 372 500 372 500 372 431 c 0,45,46
 372 359 372 359 395.5 296 c 128,-1,47
 419 233 419 233 461 186.5 c 128,-1,48
 503 140 503 140 561 113.5 c 128,-1,49
 619 87 619 87 687 87 c 256,50,51
 755 87 755 87 815.5 116 c 128,-1,52
 876 145 876 145 921 194.5 c 128,-1,53
 966 244 966 244 992.5 309.5 c 128,-1,54
 1019 375 1019 375 1019 448 c 0,55,56
 1019 578 1019 578 907 697 c 0,38,39
EndSplineSet
EndChar

StartChar: U
Encoding: 85 85 19
Width: 1680
GlyphClass: 1
Flags: W
LayerCount: 2
Fore
SplineSet
1174 1260 m 2,0,1
 1123 1260 1123 1260 1123 1311 c 256,2,3
 1123 1362 1123 1362 1174 1362 c 2,4,-1
 1375 1362 l 2,5,6
 1427 1362 1427 1362 1427 1311 c 2,7,-1
 1427 103 l 1,8,-1
 1549 103 l 2,9,10
 1601 103 1601 103 1601 53 c 0,11,12
 1601 2 1601 2 1549 2 c 2,13,-1
 1375 2 l 2,14,15
 1325 2 1325 2 1325 53 c 2,16,-1
 1325 232 l 1,17,-1
 1283 182 l 1,18,19
 1231 135 1231 135 1177.5 102.5 c 128,-1,20
 1124 70 1124 70 1064.5 50 c 128,-1,21
 1005 30 1005 30 939 21 c 128,-1,22
 873 12 873 12 796 12 c 0,23,24
 638 12 638 12 507 49.5 c 128,-1,25
 376 87 376 87 282.5 165.5 c 128,-1,26
 189 244 189 244 137 364.5 c 128,-1,27
 85 485 85 485 85 650 c 0,28,29
 85 754 85 754 101 840.5 c 128,-1,30
 117 927 117 927 150.5 1001 c 128,-1,31
 184 1075 184 1075 236 1139 c 128,-1,32
 288 1203 288 1203 361 1261 c 1,33,-1
 270 1261 l 2,34,35
 218 1261 218 1261 218 1311 c 0,36,37
 218 1362 218 1362 270 1362 c 2,38,-1
 532 1362 l 2,39,40
 584 1362 584 1362 584 1311 c 0,41,42
 584 1292 584 1292 580 1284.5 c 128,-1,43
 576 1277 576 1277 568 1272 c 0,44,45
 371 1164 371 1164 278.5 1017 c 128,-1,46
 186 870 186 870 186 676 c 0,47,48
 186 391 186 391 333 252 c 128,-1,49
 480 113 480 113 793 113 c 0,50,51
 888 113 888 113 967 128.5 c 128,-1,52
 1046 144 1046 144 1111 179.5 c 128,-1,53
 1176 215 1176 215 1228 273.5 c 128,-1,54
 1280 332 1280 332 1322 418 c 1,55,-1
 1325 1260 l 1,56,-1
 1174 1260 l 2,0,1
EndSplineSet
EndChar

StartChar: J
Encoding: 74 74 20
Width: 1141
GlyphClass: 1
Flags: W
LayerCount: 2
Fore
SplineSet
715 1261 m 2,0,1
 664 1261 664 1261 664 1311 c 0,2,3
 664 1362 664 1362 715 1362 c 2,4,-1
 1018 1362 l 2,5,6
 1070 1362 1070 1362 1070 1311 c 0,7,8
 1070 1261 1070 1261 1018 1261 c 2,9,-1
 918 1261 l 1,10,-1
 918 348 l 2,11,12
 918 173 918 173 801 82 c 128,-1,13
 684 -9 684 -9 468 -9 c 0,14,15
 385 -9 385 -9 311 8 c 128,-1,16
 237 25 237 25 181.5 57 c 128,-1,17
 126 89 126 89 93.5 136 c 128,-1,18
 61 183 61 183 61 242 c 0,19,20
 61 291 61 291 76 329.5 c 128,-1,21
 91 368 91 368 115 394 c 128,-1,22
 139 420 139 420 167.5 433.5 c 128,-1,23
 196 447 196 447 223 447 c 0,24,25
 254 447 254 447 292 417 c 0,26,27
 321 394 321 394 321 330 c 0,28,29
 321 272 321 272 291 248 c 1,30,-1
 290 248 l 1,31,32
 252 217 252 217 211 217 c 0,33,34
 209 217 209 217 206.5 217.5 c 128,-1,35
 204 218 204 218 201 218 c 2,36,-1
 166 218 l 1,37,38
 187 157 187 157 265 124 c 128,-1,39
 343 91 343 91 463 91 c 0,40,41
 633 91 633 91 724 151.5 c 128,-1,42
 815 212 815 212 815 348 c 2,43,-1
 815 1261 l 1,44,-1
 715 1261 l 2,0,1
EndSplineSet
EndChar

StartChar: i
Encoding: 105 105 21
Width: 541
GlyphClass: 1
Flags: W
LayerCount: 2
Fore
SplineSet
378 1314 m 2,0,1
 397 1339 397 1339 408 1339 c 0,2,3
 428 1339 428 1339 441.5 1326 c 128,-1,4
 455 1313 455 1313 455 1300 c 0,5,6
 455 1281 455 1281 451 1277 c 2,7,-1
 304 1080 l 2,8,9
 285 1055 285 1055 273 1055 c 0,10,11
 252 1055 252 1055 239 1068.5 c 128,-1,12
 226 1082 226 1082 226 1095 c 0,13,14
 226 1114 226 1114 230 1118 c 2,15,-1
 378 1314 l 2,0,1
103 781 m 2,16,17
 52 781 52 781 52 831 c 0,18,19
 52 882 52 882 103 882 c 2,20,-1
 261 882 l 2,21,22
 312 882 312 882 312 831 c 2,23,-1
 312 103 l 1,24,-1
 397 103 l 2,25,26
 449 103 449 103 449 53 c 0,27,28
 449 2 449 2 397 2 c 2,29,-1
 147 2 l 2,30,31
 97 2 97 2 97 53 c 0,32,33
 97 103 97 103 147 103 c 2,34,-1
 209 103 l 1,35,-1
 209 781 l 1,36,-1
 103 781 l 2,16,17
EndSplineSet
EndChar

StartChar: R
Encoding: 82 82 22
Width: 1638
GlyphClass: 1
Flags: W
LayerCount: 2
Fore
SplineSet
133 2 m 2,0,1
 82 2 82 2 82 53 c 0,2,3
 82 103 82 103 133 103 c 2,4,-1
 263 103 l 1,5,-1
 263 1261 l 1,6,-1
 138 1261 l 2,7,8
 88 1261 88 1261 88 1311 c 0,9,10
 88 1362 88 1362 138 1362 c 2,11,-1
 854 1362 l 2,12,13
 976 1359 976 1359 1076 1338 c 128,-1,14
 1176 1317 1176 1317 1254 1282.5 c 128,-1,15
 1332 1248 1332 1248 1389.5 1202 c 128,-1,16
 1447 1156 1447 1156 1484.5 1104 c 128,-1,17
 1522 1052 1522 1052 1540.5 996 c 128,-1,18
 1559 940 1559 940 1559 885 c 2,19,-1
 1559 872 l 1,20,21
 1542 451 1542 451 1123 358 c 1,22,-1
 1108 358 l 1,23,-1
 1291 103 l 1,24,-1
 1423 103 l 2,25,26
 1475 103 1475 103 1475 53 c 0,27,28
 1475 2 1475 2 1423 2 c 2,29,-1
 1263 2 l 2,30,31
 1231 2 1231 2 1213 35 c 1,32,-1
 1211 35 l 1,33,34
 1157 110 1157 110 1103.5 184.5 c 128,-1,35
 1050 259 1050 259 996 334 c 1,36,-1
 973 334 l 1,37,38
 931 329 931 329 891 327.5 c 128,-1,39
 851 326 851 326 813 326 c 0,40,41
 686 326 686 326 580.5 348.5 c 128,-1,42
 475 371 475 371 403 411 c 1,43,-1
 366 428 l 1,44,-1
 366 103 l 1,45,-1
 481 103 l 2,46,47
 531 103 531 103 531 53 c 0,48,49
 531 2 531 2 481 2 c 2,50,-1
 133 2 l 2,0,1
366 1261 m 1,51,-1
 366 563 l 1,52,-1
 372 563 l 1,53,54
 429 497 429 497 539 462.5 c 128,-1,55
 649 428 649 428 814 428 c 0,56,57
 1134 428 1134 428 1289.5 539 c 128,-1,58
 1445 650 1445 650 1457 874 c 1,59,-1
 1457 885 l 2,60,61
 1457 964 1457 964 1415 1031 c 128,-1,62
 1373 1098 1373 1098 1294.5 1148 c 128,-1,63
 1216 1198 1216 1198 1104 1228 c 128,-1,64
 992 1258 992 1258 853 1261 c 2,65,-1
 366 1261 l 1,51,-1
EndSplineSet
EndChar

StartChar: M
Encoding: 77 77 23
Width: 2128
GlyphClass: 1
Flags: W
LayerCount: 2
Fore
SplineSet
574 1261 m 2,0,1
 524 1261 524 1261 524 1311 c 0,2,3
 524 1362 524 1362 574 1362 c 2,4,-1
 732 1362 l 2,5,6
 771 1362 771 1362 783 1321 c 1,7,-1
 784 1321 l 1,8,9
 858 1150 858 1150 931.5 980.5 c 128,-1,10
 1005 811 1005 811 1079 640 c 1,11,-1
 1125 640 l 1,12,13
 1198 811 1198 811 1270.5 981.5 c 128,-1,14
 1343 1152 1343 1152 1416 1323 c 1,15,-1
 1417 1323 l 1,16,17
 1423 1340 1423 1340 1436.5 1351 c 128,-1,18
 1450 1362 1450 1362 1468 1362 c 2,19,-1
 1624 1362 l 2,20,21
 1674 1362 1674 1362 1674 1311 c 0,22,23
 1674 1261 1674 1261 1624 1261 c 2,24,-1
 1539 1261 l 1,25,-1
 1920 103 l 1,26,-1
 2002 103 l 2,27,28
 2054 103 2054 103 2054 53 c 0,29,30
 2054 2 2054 2 2002 2 c 2,31,-1
 1669 2 l 2,32,33
 1618 2 1618 2 1618 53 c 0,34,35
 1618 103 1618 103 1669 103 c 2,36,-1
 1812 103 l 1,37,38
 1729 354 1729 354 1647 603.5 c 128,-1,39
 1565 853 1565 853 1482 1104 c 1,40,-1
 1435 1104 l 1,41,42
 1364 938 1364 938 1294 773 c 128,-1,43
 1224 608 1224 608 1153 442 c 0,44,45
 1136 404 1136 404 1092 404 c 0,46,47
 1070 404 1070 404 1053 442 c 2,48,-1
 762 1112 l 1,49,-1
 715 1112 l 1,50,51
 625 858 625 858 536.5 607.5 c 128,-1,52
 448 357 448 357 358 103 c 1,53,-1
 430 103 l 2,54,55
 482 103 482 103 482 53 c 0,56,57
 482 2 482 2 430 2 c 2,58,-1
 123 2 l 2,59,60
 71 2 71 2 71 53 c 0,61,62
 71 103 71 103 123 103 c 2,63,-1
 250 103 l 1,64,65
 353 394 353 394 455 682 c 128,-1,66
 557 970 557 970 660 1261 c 1,67,-1
 574 1261 l 2,0,1
EndSplineSet
EndChar

StartChar: B
Encoding: 66 66 24
Width: 1542
GlyphClass: 1
Flags: W
LayerCount: 2
Fore
SplineSet
360 1261 m 1,0,-1
 360 841 l 1,1,-1
 682 841 l 1,2,3
 911 854 911 854 1020.5 900.5 c 128,-1,4
 1130 947 1130 947 1130 1037 c 0,5,6
 1130 1156 1130 1156 1035 1208.5 c 128,-1,7
 940 1261 940 1261 736 1261 c 2,8,-1
 360 1261 l 1,0,-1
667 740 m 2,9,10
 666 739 666 739 668 739 c 1,11,-1
 360 739 l 1,12,-1
 360 103 l 1,13,-1
 949 103 l 2,14,15
 1162 103 1162 103 1262.5 158.5 c 128,-1,16
 1363 214 1363 214 1363 329 c 0,17,18
 1363 432 1363 432 1318.5 507.5 c 128,-1,19
 1274 583 1274 583 1187.5 633 c 128,-1,20
 1101 683 1101 683 975 709 c 128,-1,21
 849 735 849 735 686 740 c 1,22,-1
 667 740 l 2,9,10
259 103 m 1,23,-1
 259 1261 l 1,24,-1
 145 1261 l 2,25,26
 94 1261 94 1261 94 1311 c 0,27,28
 94 1362 94 1362 145 1362 c 2,29,-1
 736 1362 l 2,30,31
 980 1362 980 1362 1106 1280.5 c 128,-1,32
 1232 1199 1232 1199 1232 1034 c 0,33,34
 1232 953 1232 953 1183 891.5 c 128,-1,35
 1134 830 1134 830 1034 800 c 1,36,-1
 1035 800 l 1,37,38
 1231 750 1231 750 1353 629 c 0,39,40
 1466 516 1466 516 1466 329 c 0,41,42
 1466 169 1466 169 1334 85.5 c 128,-1,43
 1202 2 1202 2 949 2 c 2,44,-1
 133 2 l 2,45,46
 82 2 82 2 82 53 c 0,47,48
 82 103 82 103 133 103 c 2,49,-1
 259 103 l 1,23,-1
EndSplineSet
EndChar

StartChar: D
Encoding: 68 68 25
Width: 1533
GlyphClass: 1
Flags: W
LayerCount: 2
Fore
SplineSet
139 1261 m 2,0,1
 136 1260 136 1260 130 1260 c 0,2,3
 88 1260 88 1260 88 1315 c 0,4,5
 88 1334 88 1334 103.5 1344.5 c 128,-1,6
 119 1355 119 1355 143 1360.5 c 128,-1,7
 167 1366 167 1366 196 1367.5 c 128,-1,8
 225 1369 225 1369 252 1369 c 2,9,-1
 357 1369 l 2,10,11
 625 1369 625 1369 830.5 1320 c 128,-1,12
 1036 1271 1036 1271 1174.5 1175 c 128,-1,13
 1313 1079 1313 1079 1384 937.5 c 128,-1,14
 1455 796 1455 796 1455 612 c 0,15,16
 1455 452 1455 452 1395 336.5 c 128,-1,17
 1335 221 1335 221 1226 147 c 128,-1,18
 1117 73 1117 73 966 37.5 c 128,-1,19
 815 2 815 2 633 2 c 2,20,-1
 136 2 l 2,21,22
 85 2 85 2 85 53 c 0,23,24
 85 103 85 103 136 103 c 2,25,-1
 245 103 l 1,26,-1
 245 1265 l 1,27,-1
 219 1265 l 2,28,29
 180 1263 180 1263 157 1262 c 0,30,31
 154 1262 154 1262 151.5 1261.5 c 128,-1,32
 149 1261 149 1261 147 1261 c 2,33,-1
 139 1261 l 2,0,1
1048 1134 m 0,34,35
 814 1263 814 1263 373 1268 c 1,36,-1
 348 1268 l 1,37,-1
 348 103 l 1,38,-1
 633 103 l 2,39,40
 994 103 994 103 1174 228 c 128,-1,41
 1354 353 1354 353 1354 612 c 0,42,43
 1354 963 1354 963 1048 1134 c 0,34,35
EndSplineSet
EndChar

StartChar: C
Encoding: 67 67 26
Width: 1476
GlyphClass: 1
Flags: W
LayerCount: 2
Fore
SplineSet
1090 1339 m 1,0,1
 1093 1359 1093 1359 1107 1372.5 c 128,-1,2
 1121 1386 1121 1386 1147 1386 c 0,3,4
 1174 1386 1174 1386 1192 1347 c 2,5,-1
 1283 1100 l 2,6,7
 1282 1098 1282 1098 1282 1098 c 1,8,9
 1285 1090 1285 1090 1285.5 1086.5 c 128,-1,10
 1286 1083 1286 1083 1286 1079 c 0,11,12
 1286 1059 1286 1059 1270 1045 c 128,-1,13
 1254 1031 1254 1031 1222 1031 c 0,14,15
 1199 1031 1199 1031 1185 1069 c 1,16,-1
 1184 1069 l 1,17,18
 1133 1181 1133 1181 1036 1235.5 c 128,-1,19
 939 1290 939 1290 796 1296 c 1,20,-1
 764 1296 l 1,21,22
 646 1291 646 1291 540 1241.5 c 128,-1,23
 434 1192 434 1192 353.5 1111.5 c 128,-1,24
 273 1031 273 1031 226 926.5 c 128,-1,25
 179 822 179 822 179 708 c 0,26,27
 179 558 179 558 225 439.5 c 128,-1,28
 271 321 271 321 353.5 239 c 128,-1,29
 436 157 436 157 549 113.5 c 128,-1,30
 662 70 662 70 796 70 c 0,31,32
 912 70 912 70 1003.5 94.5 c 128,-1,33
 1095 119 1095 119 1159.5 166.5 c 128,-1,34
 1224 214 1224 214 1259.5 282.5 c 128,-1,35
 1295 351 1295 351 1298 439 c 0,36,37
 1301 489 1301 489 1350 489 c 0,38,39
 1376 489 1376 489 1388 475 c 128,-1,40
 1400 461 1400 461 1400 437 c 0,41,42
 1397 331 1397 331 1354 245 c 128,-1,43
 1311 159 1311 159 1233 98 c 128,-1,44
 1155 37 1155 37 1043.5 3.5 c 128,-1,45
 932 -30 932 -30 793 -30 c 0,46,47
 637 -30 637 -30 505.5 22 c 128,-1,48
 374 74 374 74 279 170 c 128,-1,49
 184 266 184 266 130.5 402.5 c 128,-1,50
 77 539 77 539 77 709 c 0,51,52
 77 807 77 807 104 895.5 c 128,-1,53
 131 984 131 984 178 1059.5 c 128,-1,54
 225 1135 225 1135 289.5 1196 c 128,-1,55
 354 1257 354 1257 429.5 1300.5 c 128,-1,56
 505 1344 505 1344 588.5 1369 c 128,-1,57
 672 1394 672 1394 757 1397 c 2,58,-1
 800 1397 l 1,59,60
 942 1389 942 1389 1055 1339 c 1,61,-1
 1090 1339 l 1,0,1
EndSplineSet
EndChar

StartChar: T
Encoding: 84 84 27
Width: 1318
GlyphClass: 1
Flags: W
LayerCount: 2
Fore
SplineSet
947 103 m 1,0,-1
 1086 103 l 2,1,2
 1137 103 1137 103 1137 53 c 0,3,4
 1137 2 1137 2 1086 2 c 2,5,-1
 705 2 l 2,6,7
 655 2 655 2 655 53 c 0,8,9
 655 103 655 103 705 103 c 2,10,-1
 845 103 l 1,11,-1
 845 1261 l 1,12,-1
 340 1261 l 1,13,14
 300 1226 300 1226 260.5 1189.5 c 128,-1,15
 221 1153 221 1153 181 1118 c 0,16,17
 154 1094 154 1094 141 1094 c 0,18,19
 124 1094 124 1094 98 1110 c 0,20,21
 83 1119 83 1119 83 1150 c 0,22,23
 85 1160 85 1160 88 1168.5 c 128,-1,24
 91 1177 91 1177 93 1179 c 2,25,-1
 272 1338 l 1,26,-1
 277 1338 l 1,27,28
 280 1344 280 1344 280 1345 c 0,29,30
 284 1349 284 1349 289.5 1354 c 128,-1,31
 295 1359 295 1359 299 1363 c 0,32,33
 325 1386 325 1386 339 1386 c 0,34,35
 348 1386 348 1386 362.5 1379.5 c 128,-1,36
 377 1373 377 1373 387 1362 c 1,37,-1
 1404 1362 l 1,38,39
 1417 1375 1417 1375 1429.5 1380.5 c 128,-1,40
 1442 1386 1442 1386 1450 1386 c 0,41,42
 1465 1386 1465 1386 1493 1363 c 2,43,-1
 1513 1345 l 1,44,-1
 1519 1338 l 1,45,-1
 1520 1338 l 1,46,47
 1565 1298 1565 1298 1609.5 1258.5 c 128,-1,48
 1654 1219 1654 1219 1699 1179 c 0,49,50
 1701 1177 1701 1177 1703.5 1168.5 c 128,-1,51
 1706 1160 1706 1160 1709 1150 c 0,52,53
 1709 1141 1709 1141 1703.5 1131 c 128,-1,54
 1698 1121 1698 1121 1689 1112.5 c 128,-1,55
 1680 1104 1680 1104 1669.5 1099 c 128,-1,56
 1659 1094 1659 1094 1650 1094 c 0,57,58
 1637 1094 1637 1094 1610 1118 c 0,59,60
 1571 1153 1571 1153 1530.5 1189.5 c 128,-1,61
 1490 1226 1490 1226 1451 1261 c 1,62,-1
 947 1261 l 1,63,-1
 947 103 l 1,0,-1
EndSplineSet
EndChar

StartChar: S
Encoding: 83 83 28
Width: 1582
GlyphClass: 1
Flags: W
LayerCount: 2
Fore
SplineSet
1116 1298 m 2,0,1
 1114 1302 1114 1302 1114 1318 c 0,2,3
 1114 1335 1114 1335 1130 1349 c 128,-1,4
 1146 1363 1146 1363 1177 1363 c 0,5,6
 1200 1363 1200 1363 1217 1325 c 2,7,-1
 1322 1081 l 2,8,9
 1325 1073 1325 1073 1325 1061 c 0,10,11
 1325 1042 1325 1042 1309 1028 c 128,-1,12
 1293 1014 1293 1014 1263 1014 c 0,13,14
 1249 1014 1249 1014 1240.5 1023.5 c 128,-1,15
 1232 1033 1232 1033 1223 1053 c 0,16,17
 1200 1100 1200 1100 1153.5 1138.5 c 128,-1,18
 1107 1177 1107 1177 1037.5 1205 c 128,-1,19
 968 1233 968 1233 875 1248 c 128,-1,20
 782 1263 782 1263 666 1263 c 0,21,22
 581 1263 581 1263 508.5 1247.5 c 128,-1,23
 436 1232 436 1232 383.5 1203.5 c 128,-1,24
 331 1175 331 1175 301.5 1134 c 128,-1,25
 272 1093 272 1093 272 1042 c 0,26,27
 272 1001 272 1001 318 964 c 128,-1,28
 364 927 364 927 446.5 893 c 128,-1,29
 529 859 529 859 643 828.5 c 128,-1,30
 757 798 757 798 892 770 c 0,31,32
 1187 705 1187 705 1337.5 597 c 128,-1,33
 1488 489 1488 489 1488 342 c 0,34,35
 1488 256 1488 256 1445.5 189 c 128,-1,36
 1403 122 1403 122 1328 76.5 c 128,-1,37
 1253 31 1253 31 1149 7 c 128,-1,38
 1045 -17 1045 -17 922 -17 c 0,39,40
 753 -15 753 -15 615.5 19.5 c 128,-1,41
 478 54 478 54 351 122 c 1,42,-1
 310 141 l 1,43,44
 312 139 312 139 314.5 129.5 c 128,-1,45
 317 120 317 120 319 118 c 0,46,47
 322 111 322 111 323 104 c 128,-1,48
 324 97 324 97 324 90 c 0,49,50
 324 72 324 72 308 57.5 c 128,-1,51
 292 43 292 43 262 43 c 0,52,53
 240 43 240 43 222 80 c 0,54,55
 190 148 190 148 156 216.5 c 128,-1,56
 122 285 122 285 90 353 c 0,57,58
 88 356 88 356 88 361 c 128,-1,59
 88 366 88 366 88 372 c 0,60,61
 88 392 88 392 105.5 407 c 128,-1,62
 123 422 123 422 145 422 c 0,63,64
 153 422 153 422 164 414.5 c 128,-1,65
 175 407 175 407 186 394 c 0,66,67
 245 326 245 326 320 269 c 128,-1,68
 395 212 395 212 488.5 170.5 c 128,-1,69
 582 129 582 129 696 106 c 128,-1,70
 810 83 810 83 948 83 c 0,71,72
 1043 83 1043 83 1123.5 100 c 128,-1,73
 1204 117 1204 117 1262 150 c 128,-1,74
 1320 183 1320 183 1352.5 230.5 c 128,-1,75
 1385 278 1385 278 1385 340 c 0,76,77
 1385 392 1385 392 1349.5 439.5 c 128,-1,78
 1314 487 1314 487 1245.5 529 c 128,-1,79
 1177 571 1177 571 1078.5 607.5 c 128,-1,80
 980 644 980 644 854 674 c 0,81,82
 706 707 706 707 580.5 744.5 c 128,-1,83
 455 782 455 782 364 827 c 128,-1,84
 273 872 273 872 221.5 925 c 128,-1,85
 170 978 170 978 170 1041 c 0,86,87
 170 1113 170 1113 208 1172.5 c 128,-1,88
 246 1232 246 1232 312.5 1274.5 c 128,-1,89
 379 1317 379 1317 469 1340.5 c 128,-1,90
 559 1364 559 1364 663 1364 c 0,91,92
 789 1364 789 1364 897 1345 c 128,-1,93
 1005 1326 1005 1326 1087 1294 c 2,94,-1
 1125 1278 l 1,95,-1
 1116 1298 l 2,0,1
EndSplineSet
EndChar

StartChar: d
Encoding: 100 100 29
Width: 1068
GlyphClass: 1
Flags: W
LayerCount: 2
Fore
SplineSet
633 1261 m 2,0,1
 581 1261 581 1261 581 1311 c 0,2,3
 581 1362 581 1362 633 1362 c 2,4,-1
 804 1362 l 2,5,6
 855 1362 855 1362 855 1311 c 2,7,-1
 855 103 l 1,8,-1
 943 103 l 2,9,10
 993 103 993 103 993 53 c 0,11,12
 993 2 993 2 943 2 c 2,13,-1
 804 2 l 2,14,15
 783 2 783 2 760 22 c 1,16,-1
 746 30 l 1,17,18
 730 19 730 19 702.5 8.5 c 128,-1,19
 675 -2 675 -2 651 -6 c 0,20,21
 620 -11 620 -11 589.5 -13 c 128,-1,22
 559 -15 559 -15 527 -16 c 2,23,-1
 523 -16 l 2,24,25
 314 -16 314 -16 185 95 c 0,26,27
 66 200 66 200 61 422 c 1,28,-1
 61 437 l 2,29,30
 61 482 61 482 69.5 532.5 c 128,-1,31
 78 583 78 583 98.5 632 c 128,-1,32
 119 681 119 681 153.5 726 c 128,-1,33
 188 771 188 771 239.5 805 c 128,-1,34
 291 839 291 839 362 860 c 128,-1,35
 433 881 433 881 526 882 c 2,36,-1
 532 882 l 2,37,38
 622 882 622 882 721 848 c 2,39,-1
 754 837 l 1,40,-1
 754 1261 l 1,41,-1
 633 1261 l 2,0,1
754 715 m 2,42,43
 754 724 754 724 731 735.5 c 128,-1,44
 708 747 708 747 674 757 c 128,-1,45
 640 767 640 767 601.5 774 c 128,-1,46
 563 781 563 781 532 781 c 2,47,-1
 528 781 l 2,48,49
 426 778 426 778 356 745 c 128,-1,50
 286 712 286 712 243 662.5 c 128,-1,51
 200 613 200 613 181 553 c 128,-1,52
 162 493 162 493 162 437 c 2,53,-1
 162 424 l 1,54,55
 168 347 168 347 193 284.5 c 128,-1,56
 218 222 218 222 262.5 177.5 c 128,-1,57
 307 133 307 133 372 108.5 c 128,-1,58
 437 84 437 84 522 84 c 2,59,-1
 527 84 l 2,60,61
 579 85 579 85 613.5 89.5 c 128,-1,62
 648 94 648 94 672.5 104 c 128,-1,63
 697 114 697 114 714.5 131 c 128,-1,64
 732 148 732 148 750 174 c 1,65,-1
 754 188 l 1,66,-1
 754 715 l 2,42,43
EndSplineSet
EndChar

StartChar: k
Encoding: 107 107 30
Width: 1215
GlyphClass: 1
Flags: W
LayerCount: 2
Fore
SplineSet
153 1261 m 2,0,1
 101 1261 101 1261 101 1311 c 0,2,3
 101 1362 101 1362 153 1362 c 2,4,-1
 318 1362 l 2,5,6
 369 1362 369 1362 369 1311 c 2,7,-1
 369 618 l 1,8,9
 408 645 408 645 440 667.5 c 128,-1,10
 472 690 472 690 500 709.5 c 128,-1,11
 528 729 528 729 552.5 747 c 128,-1,12
 577 765 577 765 601 782 c 1,13,-1
 589 782 l 1,14,15
 551 787 551 787 551 831 c 0,16,17
 551 882 551 882 603 882 c 2,18,-1
 1006 882 l 2,19,20
 1058 882 1058 882 1058 831 c 0,21,22
 1058 781 1058 781 1006 781 c 2,23,-1
 775 781 l 1,24,-1
 607 656 l 1,25,26
 690 516 690 516 771.5 379.5 c 128,-1,27
 853 243 853 243 936 103 c 1,28,-1
 1114 103 l 2,29,30
 1164 103 1164 103 1164 53 c 0,31,32
 1164 2 1164 2 1114 2 c 2,33,-1
 697 2 l 2,34,35
 647 2 647 2 647 53 c 0,36,37
 647 103 647 103 697 103 c 2,38,-1
 814 103 l 1,39,40
 743 222 743 222 668.5 348 c 128,-1,41
 594 474 594 474 523 593 c 1,42,-1
 368 486 l 1,43,-1
 369 103 l 1,44,-1
 448 103 l 2,45,46
 500 103 500 103 500 53 c 0,47,48
 500 2 500 2 448 2 c 2,49,-1
 129 2 l 2,50,51
 77 2 77 2 77 53 c 0,52,53
 77 103 77 103 129 103 c 2,54,-1
 268 103 l 1,55,-1
 268 1261 l 1,56,-1
 153 1261 l 2,0,1
EndSplineSet
EndChar

StartChar: O
Encoding: 79 79 31
Width: 1648
GlyphClass: 1
Flags: W
LayerCount: 2
Fore
SplineSet
862 1396 m 0,0,1
 961 1396 961 1396 1052.5 1372 c 128,-1,2
 1144 1348 1144 1348 1223 1303.5 c 128,-1,3
 1302 1259 1302 1259 1366.5 1197.5 c 128,-1,4
 1431 1136 1431 1136 1476.5 1061 c 128,-1,5
 1522 986 1522 986 1547 900 c 128,-1,6
 1572 814 1572 814 1572 722 c 0,7,8
 1572 620 1572 620 1543.5 525.5 c 128,-1,9
 1515 431 1515 431 1463 348 c 128,-1,10
 1411 265 1411 265 1339 196.5 c 128,-1,11
 1267 128 1267 128 1179.5 79 c 128,-1,12
 1092 30 1092 30 992.5 3 c 128,-1,13
 893 -24 893 -24 787 -24 c 2,14,-1
 765 -24 l 1,15,16
 616 -19 616 -19 489.5 36 c 128,-1,17
 363 91 363 91 271.5 182 c 128,-1,18
 180 273 180 273 128.5 393.5 c 128,-1,19
 77 514 77 514 77 649 c 0,20,21
 77 813 77 813 137 943 c 128,-1,22
 197 1073 197 1073 315 1182 c 0,23,24
 550 1396 550 1396 862 1396 c 0,0,1
862 1294 m 2,25,26
 767 1294 767 1294 679.5 1269.5 c 128,-1,27
 592 1245 592 1245 516.5 1201 c 128,-1,28
 441 1157 441 1157 378.5 1096 c 128,-1,29
 316 1035 316 1035 272 963.5 c 128,-1,30
 228 892 228 892 203.5 812 c 128,-1,31
 179 732 179 732 179 649 c 0,32,33
 179 535 179 535 225.5 432.5 c 128,-1,34
 272 330 272 330 352 252.5 c 128,-1,35
 432 175 432 175 540 128 c 128,-1,36
 648 81 648 81 771 77 c 1,37,-1
 787 77 l 2,38,39
 874 77 874 77 957 99.5 c 128,-1,40
 1040 122 1040 122 1113.5 163 c 128,-1,41
 1187 204 1187 204 1249.5 260.5 c 128,-1,42
 1312 317 1312 317 1358.5 384.5 c 128,-1,43
 1405 452 1405 452 1434 529 c 128,-1,44
 1463 606 1463 606 1469 687 c 1,45,-1
 1469 722 l 2,46,47
 1469 836 1469 836 1424 938 c 128,-1,48
 1379 1040 1379 1040 1300 1118 c 128,-1,49
 1221 1196 1221 1196 1113 1243 c 128,-1,50
 1005 1290 1005 1290 880 1294 c 1,51,-1
 862 1294 l 2,25,26
EndSplineSet
EndChar

StartChar: y
Encoding: 121 121 32
Width: 1330
GlyphClass: 1
Flags: W
LayerCount: 2
Fore
SplineSet
955 781 m 2,0,1
 904 781 904 781 904 831 c 0,2,3
 904 882 904 882 955 882 c 2,4,-1
 1224 882 l 2,5,6
 1275 882 1275 882 1275 831 c 0,7,8
 1275 781 1275 781 1224 781 c 2,9,-1
 1093 781 l 1,10,11
 1015 600 1015 600 938.5 420.5 c 128,-1,12
 862 241 862 241 784 60 c 1,13,-1
 782 60 l 1,14,-1
 782 53 l 2,15,16
 782 24 782 24 775 20 c 1,17,-1
 766 20 l 1,18,19
 755 -4 755 -4 745 -28.5 c 128,-1,20
 735 -53 735 -53 724 -77 c 0,21,22
 661 -219 661 -219 562.5 -295 c 128,-1,23
 464 -371 464 -371 330 -371 c 0,24,25
 279 -371 279 -371 235.5 -356.5 c 128,-1,26
 192 -342 192 -342 159 -317 c 128,-1,27
 126 -292 126 -292 106 -260 c 128,-1,28
 86 -228 86 -228 83 -192 c 0,29,30
 83 -141 83 -141 92 -119.5 c 128,-1,31
 101 -98 101 -98 127 -98 c 0,32,33
 159 -98 159 -98 174 -111 c 128,-1,34
 189 -124 189 -124 189 -144 c 0,35,36
 189 -150 189 -150 187 -158 c 0,37,38
 186 -163 186 -163 185.5 -170.5 c 128,-1,39
 185 -178 185 -178 185 -186 c 0,40,41
 188 -217 188 -217 220.5 -238 c 128,-1,42
 253 -259 253 -259 307 -269 c 1,43,-1
 340 -269 l 1,44,45
 435 -264 435 -264 506.5 -206.5 c 128,-1,46
 578 -149 578 -149 624 -49 c 0,47,48
 629 -37 629 -37 635.5 -23.5 c 128,-1,49
 642 -10 642 -10 647 2 c 1,50,-1
 626 2 l 2,51,52
 610 3 610 3 600 11.5 c 128,-1,53
 590 20 590 20 581 37 c 2,54,-1
 214 781 l 1,55,-1
 135 781 l 2,56,57
 83 781 83 781 83 831 c 0,58,59
 83 882 83 882 135 882 c 2,60,-1
 403 882 l 2,61,62
 453 882 453 882 453 831 c 0,63,64
 453 781 453 781 403 781 c 2,65,-1
 330 781 l 1,66,-1
 654 124 l 1,67,-1
 699 124 l 1,68,69
 769 289 769 289 839.5 452.5 c 128,-1,70
 910 616 910 616 980 781 c 1,71,-1
 955 781 l 2,0,1
EndSplineSet
EndChar

StartChar: colon
Encoding: 58 58 33
Width: 451
GlyphClass: 1
Flags: W
LayerCount: 2
Fore
SplineSet
153 29 m 2,0,1
 131 9 131 9 123 9 c 0,2,3
 106 9 106 9 92.5 22.5 c 128,-1,4
 79 36 79 36 79 51 c 0,5,6
 79 62 79 62 80.5 67.5 c 128,-1,7
 82 73 82 73 84 76 c 2,8,-1
 297 287 l 2,9,10
 319 308 319 308 327 308 c 256,11,12
 335 308 335 308 343 304 c 128,-1,13
 351 300 351 300 357.5 293.5 c 128,-1,14
 364 287 364 287 368 279.5 c 128,-1,15
 372 272 372 272 372 265 c 0,16,17
 372 245 372 245 366 239 c 2,18,-1
 153 29 l 2,0,1
144 259 m 2,19,20
 136 253 136 253 130 249 c 128,-1,21
 124 245 124 245 121 245 c 0,22,23
 115 245 115 245 107 249 c 128,-1,24
 99 253 99 253 92.5 259 c 128,-1,25
 86 265 86 265 81.5 272.5 c 128,-1,26
 77 280 77 280 77 287 c 0,27,28
 77 298 77 298 79 304 c 128,-1,29
 81 310 81 310 84 314 c 2,30,-1
 298 524 l 1,31,-1
 299 524 l 1,32,33
 317 545 317 545 327 545 c 0,34,35
 343 545 343 545 357.5 531.5 c 128,-1,36
 372 518 372 518 372 503 c 0,37,38
 372 483 372 483 366 477 c 2,39,-1
 144 259 l 2,19,20
EndSplineSet
EndChar

StartChar: comma
Encoding: 44 44 34
Width: 387
GlyphClass: 1
Flags: W
LayerCount: 2
Fore
SplineSet
157 -101 m 1,0,1
 134 -113 134 -113 126 -113 c 0,2,3
 112 -113 112 -113 99 -99 c 128,-1,4
 86 -85 86 -85 86 -68 c 256,5,6
 86 -51 86 -51 103 -36 c 128,-1,7
 120 -21 120 -21 140 -7 c 1,8,-1
 141 -7 l 1,9,10
 152 1 152 1 164 10 c 128,-1,11
 176 19 176 19 182 24 c 1,12,-1
 172 24 l 1,13,14
 138 33 138 33 120.5 59 c 128,-1,15
 103 85 103 85 103 117 c 0,16,17
 103 136 103 136 111.5 154 c 128,-1,18
 120 172 120 172 135 185.5 c 128,-1,19
 150 199 150 199 170 207 c 128,-1,20
 190 215 190 215 213 215 c 0,21,22
 235 215 235 215 254.5 207.5 c 128,-1,23
 274 200 274 200 289 186.5 c 128,-1,24
 304 173 304 173 312.5 155.5 c 128,-1,25
 321 138 321 138 321 117 c 0,26,27
 321 84 321 84 307 53.5 c 128,-1,28
 293 23 293 23 270 -5 c 128,-1,29
 247 -33 247 -33 217 -57 c 128,-1,30
 187 -81 187 -81 156 -101 c 1,31,-1
 157 -101 l 1,0,1
EndSplineSet
EndChar

StartChar: Thorn
Encoding: 222 222 35
Width: 1828
GlyphClass: 1
Flags: W
LayerCount: 2
Fore
SplineSet
329 628 m 1,0,-1
 328 628 l 1,1,2
 328 627 328 627 327.5 626.5 c 128,-1,3
 327 626 327 626 327 625 c 2,4,-1
 327 523 l 1,5,-1
 362 523 l 1,6,7
 433 555 433 555 541 559 c 1,8,-1
 552 559 l 2,9,10
 604 557 604 557 649 548 c 128,-1,11
 694 539 694 539 736 522.5 c 128,-1,12
 778 506 778 506 819 482.5 c 128,-1,13
 860 459 860 459 905 429 c 1,14,-1
 935 429 l 1,15,16
 1039 512 1039 512 1039 611 c 0,17,18
 1039 663 1039 663 1011.5 710 c 128,-1,19
 984 757 984 757 936 793 c 128,-1,20
 888 829 888 829 823 850 c 128,-1,21
 758 871 758 871 682 871 c 0,22,23
 607 871 607 871 542 853.5 c 128,-1,24
 477 836 477 836 430 804.5 c 128,-1,25
 383 773 383 773 356 729 c 128,-1,26
 329 685 329 685 329 633 c 2,27,-1
 329 628 l 1,0,-1
327 884 m 1,28,-1
 366 884 l 1,29,30
 502 972 502 972 682 972 c 0,31,32
 776 972 776 972 859.5 943.5 c 128,-1,33
 943 915 943 915 1005.5 866 c 128,-1,34
 1068 817 1068 817 1104 751 c 128,-1,35
 1140 685 1140 685 1140 611 c 0,36,37
 1140 530 1140 530 1105 462.5 c 128,-1,38
 1070 395 1070 395 995 344 c 1,39,-1
 990 344 l 1,40,41
 1004 329 1004 329 1019.5 308.5 c 128,-1,42
 1035 288 1035 288 1054 264 c 0,43,44
 1076 235 1076 235 1101.5 203.5 c 128,-1,45
 1127 172 1127 172 1155 140.5 c 128,-1,46
 1183 109 1183 109 1213.5 80.5 c 128,-1,47
 1244 52 1244 52 1277 30 c 0,48,49
 1337 -12 1337 -12 1392.5 -30.5 c 128,-1,50
 1448 -49 1448 -49 1506 -49 c 0,51,52
 1589 -49 1589 -49 1663 -6 c 0,53,54
 1674 1 1674 1 1684 5 c 128,-1,55
 1694 9 1694 9 1701 9 c 0,56,57
 1710 9 1710 9 1720 4 c 128,-1,58
 1730 -1 1730 -1 1737.5 -8.5 c 128,-1,59
 1745 -16 1745 -16 1750 -25.5 c 128,-1,60
 1755 -35 1755 -35 1755 -44 c 0,61,62
 1755 -57 1755 -57 1743 -69.5 c 128,-1,63
 1731 -82 1731 -82 1714 -93 c 128,-1,64
 1697 -104 1697 -104 1678 -113 c 128,-1,65
 1659 -122 1659 -122 1645 -127 c 0,66,67
 1611 -138 1611 -138 1574.5 -144 c 128,-1,68
 1538 -150 1538 -150 1507 -150 c 0,69,70
 1440 -150 1440 -150 1374 -130 c 128,-1,71
 1308 -110 1308 -110 1245.5 -72 c 128,-1,72
 1183 -34 1183 -34 1125.5 21 c 128,-1,73
 1068 76 1068 76 1019 145 c 1,74,-1
 1018 145 l 1,75,76
 1006 159 1006 159 995.5 173.5 c 128,-1,77
 985 188 985 188 974 202 c 0,78,79
 957 224 957 224 940.5 244 c 128,-1,80
 924 264 924 264 907 283 c 1,81,-1
 880 283 l 1,82,83
 785 249 785 249 682 249 c 0,84,85
 591 249 591 249 510 264.5 c 128,-1,86
 429 280 429 280 363 312 c 1,87,-1
 327 312 l 1,88,-1
 327 103 l 1,89,-1
 424 103 l 2,90,91
 476 103 476 103 476 53 c 0,92,93
 476 2 476 2 424 2 c 2,94,-1
 127 2 l 2,95,96
 76 2 76 2 76 53 c 0,97,98
 76 103 76 103 127 103 c 2,99,-1
 224 103 l 1,100,-1
 224 1261 l 1,101,-1
 127 1261 l 2,102,103
 76 1261 76 1261 76 1311 c 0,104,105
 76 1362 76 1362 127 1362 c 2,106,-1
 276 1362 l 2,107,108
 327 1362 327 1362 327 1311 c 2,109,-1
 327 884 l 1,28,-1
682 350 m 0,110,111
 744 350 744 350 806 367 c 1,112,-1
 812 367 l 2,113,114
 815 365 815 365 814 366.5 c 128,-1,115
 813 368 813 368 805 376 c 1,116,-1
 802 376 l 1,117,118
 701 450 701 450 548 458 c 1,119,-1
 546 458 l 1,120,121
 466 453 466 453 429.5 443 c 128,-1,122
 393 433 393 433 393 419 c 0,123,124
 393 406 393 406 408.5 396 c 128,-1,125
 424 386 424 386 448.5 378.5 c 128,-1,126
 473 371 473 371 504.5 365.5 c 128,-1,127
 536 360 536 360 568 356.5 c 128,-1,128
 600 353 600 353 630 351.5 c 128,-1,129
 660 350 660 350 682 350 c 0,110,111
EndSplineSet
EndChar

StartChar: I
Encoding: 73 73 36
Width: 540
GlyphClass: 1
Flags: W
LayerCount: 2
Fore
SplineSet
121 1261 m 2,0,1
 70 1261 70 1261 70 1311 c 0,2,3
 70 1362 70 1362 121 1362 c 2,4,-1
 418 1362 l 2,5,6
 470 1362 470 1362 470 1311 c 0,7,8
 470 1261 470 1261 418 1261 c 2,9,-1
 321 1261 l 1,10,-1
 321 103 l 1,11,-1
 418 103 l 2,12,13
 470 103 470 103 470 53 c 0,14,15
 470 2 470 2 418 2 c 2,16,-1
 121 2 l 2,17,18
 70 2 70 2 70 53 c 0,19,20
 70 103 70 103 121 103 c 2,21,-1
 218 103 l 1,22,-1
 218 1261 l 1,23,-1
 121 1261 l 2,0,1
EndSplineSet
EndChar

StartChar: K
Encoding: 75 75 37
Width: 1648
GlyphClass: 1
Flags: W
LayerCount: 2
Fore
SplineSet
133 1261 m 2,0,1
 82 1261 82 1261 82 1311 c 0,2,3
 82 1362 82 1362 133 1362 c 2,4,-1
 430 1362 l 2,5,6
 482 1362 482 1362 482 1311 c 0,7,8
 482 1261 482 1261 430 1261 c 2,9,-1
 333 1261 l 1,10,-1
 333 719 l 1,11,-1
 374 719 l 1,12,13
 430 767 430 767 486 815.5 c 128,-1,14
 542 864 542 864 598 912 c 1,15,-1
 607 912 l 1,16,17
 607 918 607 918 605 918 c 1,18,-1
 1003 1261 l 1,19,-1
 942 1261 l 2,20,21
 890 1261 890 1261 890 1311 c 0,22,23
 890 1362 890 1362 942 1362 c 2,24,-1
 1341 1362 l 2,25,26
 1392 1362 1392 1362 1392 1311 c 0,27,28
 1392 1261 1392 1261 1341 1261 c 2,29,-1
 1163 1261 l 1,30,31
 1051 1165 1051 1165 941 1070 c 128,-1,32
 831 975 831 975 719 879 c 1,33,-1
 715 879 l 1,34,35
 870 684 870 684 1024 491 c 128,-1,36
 1178 298 1178 298 1333 103 c 1,37,-1
 1527 103 l 2,38,39
 1578 103 1578 103 1578 53 c 0,40,41
 1578 2 1578 2 1527 2 c 2,42,-1
 1087 2 l 2,43,44
 1036 2 1036 2 1036 53 c 0,45,46
 1036 103 1036 103 1087 103 c 2,47,-1
 1200 103 l 1,48,49
 1063 276 1063 276 926.5 447 c 128,-1,50
 790 618 790 618 653 791 c 1,51,-1
 617 791 l 1,52,53
 548 731 548 731 479.5 672.5 c 128,-1,54
 411 614 411 614 342 554 c 1,55,-1
 333 554 l 1,56,-1
 333 103 l 1,57,-1
 430 103 l 2,58,59
 482 103 482 103 482 53 c 0,60,61
 482 2 482 2 430 2 c 2,62,-1
 133 2 l 2,63,64
 82 2 82 2 82 53 c 0,65,66
 82 103 82 103 133 103 c 2,67,-1
 230 103 l 1,68,-1
 230 1261 l 1,69,-1
 133 1261 l 2,0,1
EndSplineSet
EndChar

StartChar: H
Encoding: 72 72 38
Width: 1389
GlyphClass: 1
Flags: W
LayerCount: 2
Fore
SplineSet
371 103 m 1,0,-1
 468 103 l 2,1,2
 519 103 519 103 519 53 c 0,3,4
 519 2 519 2 468 2 c 2,5,-1
 169 2 l 2,6,7
 119 2 119 2 119 53 c 0,8,9
 119 103 119 103 169 103 c 2,10,-1
 268 103 l 1,11,-1
 268 1261 l 1,12,-1
 169 1261 l 2,13,14
 119 1261 119 1261 119 1311 c 0,15,16
 119 1362 119 1362 169 1362 c 2,17,-1
 468 1362 l 2,18,19
 519 1362 519 1362 519 1311 c 0,20,21
 519 1261 519 1261 468 1261 c 2,22,-1
 371 1261 l 1,23,-1
 371 880 l 1,24,-1
 1055 880 l 1,25,-1
 1055 1261 l 1,26,-1
 958 1261 l 2,27,28
 907 1261 907 1261 907 1311 c 0,29,30
 907 1362 907 1362 958 1362 c 2,31,-1
 1255 1362 l 2,32,33
 1307 1362 1307 1362 1307 1311 c 0,34,35
 1307 1261 1307 1261 1255 1261 c 2,36,-1
 1158 1261 l 1,37,-1
 1158 103 l 1,38,-1
 1255 103 l 2,39,40
 1307 103 1307 103 1307 53 c 0,41,42
 1307 2 1307 2 1255 2 c 2,43,-1
 958 2 l 2,44,45
 907 2 907 2 907 53 c 0,46,47
 907 103 907 103 958 103 c 2,48,-1
 1055 103 l 1,49,-1
 1055 770 l 1,50,-1
 371 770 l 1,51,-1
 371 103 l 1,0,-1
EndSplineSet
EndChar

StartChar: yen
Encoding: 165 165 39
Width: 1612
GlyphClass: 1
Flags: W
LayerCount: 2
Fore
SplineSet
105 781 m 2,0,1
 53 781 53 781 53 831 c 0,2,3
 53 882 53 882 105 882 c 2,4,-1
 612 882 l 2,5,6
 662 882 662 882 662 831 c 0,7,8
 662 781 662 781 612 781 c 2,9,-1
 441 781 l 1,10,11
 521 625 521 625 601 469.5 c 128,-1,12
 681 314 681 314 761 158 c 1,13,-1
 799 158 l 1,14,15
 938 277 938 277 1075 395.5 c 128,-1,16
 1212 514 1212 514 1351 633 c 0,17,18
 1396 668 1396 668 1415.5 705 c 128,-1,19
 1435 742 1435 742 1435 790 c 0,20,21
 1435 837 1435 837 1416 877 c 128,-1,22
 1397 917 1397 917 1362 946 c 128,-1,23
 1327 975 1327 975 1278 992.5 c 128,-1,24
 1229 1010 1229 1010 1169 1012 c 2,25,-1
 1157 1012 l 2,26,27
 1109 1011 1109 1011 1064 994 c 128,-1,28
 1019 977 1019 977 984.5 951 c 128,-1,29
 950 925 950 925 929 893.5 c 128,-1,30
 908 862 908 862 908 833 c 0,31,32
 908 788 908 788 932 762 c 128,-1,33
 956 736 956 736 990 736 c 2,34,-1
 998 736 l 2,35,36
 1001 737 1001 737 1008 737 c 0,37,38
 1027 737 1027 737 1038 723.5 c 128,-1,39
 1049 710 1049 710 1049 684 c 0,40,41
 1049 635 1049 635 993 635 c 0,42,43
 990 635 990 635 987.5 634.5 c 128,-1,44
 985 634 985 634 983 634 c 2,45,-1
 978 634 l 2,46,47
 900 634 900 634 859 683 c 128,-1,48
 818 732 818 732 806 829 c 1,49,-1
 806 852 l 2,50,51
 809 899 809 899 840 945 c 128,-1,52
 871 991 871 991 919.5 1028 c 128,-1,53
 968 1065 968 1065 1028.5 1088 c 128,-1,54
 1089 1111 1089 1111 1152 1113 c 2,55,-1
 1176 1113 l 2,56,57
 1263 1110 1263 1110 1330 1082.5 c 128,-1,58
 1397 1055 1397 1055 1443.5 1010.5 c 128,-1,59
 1490 966 1490 966 1514 908 c 128,-1,60
 1538 850 1538 850 1538 787 c 0,61,62
 1536 713 1536 713 1511.5 662.5 c 128,-1,63
 1487 612 1487 612 1440 571 c 2,64,-1
 800 22 l 2,65,66
 785 10 785 10 772 6 c 128,-1,67
 759 2 759 2 748 2 c 0,68,69
 724 2 724 2 706 36 c 2,70,-1
 326 781 l 1,71,-1
 105 781 l 2,0,1
EndSplineSet
EndChar

StartChar: P
Encoding: 80 80 40
Width: 1624
GlyphClass: 1
Flags: W
LayerCount: 2
Fore
SplineSet
132 2 m 2,0,1
 80 2 80 2 80 53 c 0,2,3
 80 103 80 103 132 103 c 2,4,-1
 262 103 l 1,5,-1
 262 1261 l 1,6,-1
 136 1261 l 2,7,8
 86 1261 86 1261 86 1311 c 0,9,10
 86 1362 86 1362 136 1362 c 2,11,-1
 849 1362 l 2,12,13
 1035 1359 1035 1359 1168.5 1311.5 c 128,-1,14
 1302 1264 1302 1264 1388.5 1190 c 128,-1,15
 1475 1116 1475 1116 1516 1025 c 128,-1,16
 1557 934 1557 934 1557 844 c 2,17,-1
 1557 830 l 1,18,19
 1548 538 1548 538 1362 387.5 c 128,-1,20
 1176 237 1176 237 810 237 c 0,21,22
 569 237 569 237 402 328 c 1,23,-1
 365 361 l 1,24,-1
 365 103 l 1,25,-1
 480 103 l 2,26,27
 530 103 530 103 530 53 c 0,28,29
 530 2 530 2 480 2 c 2,30,-1
 132 2 l 2,0,1
363 1262 m 1,31,-1
 364 501 l 1,32,33
 421 426 421 426 534.5 382.5 c 128,-1,34
 648 339 648 339 816 339 c 0,35,36
 976 339 976 339 1095.5 370.5 c 128,-1,37
 1215 402 1215 402 1290 459 c 1,38,39
 1365 522 1365 522 1407.5 618.5 c 128,-1,40
 1450 715 1450 715 1456 833 c 1,41,-1
 1456 844 l 2,42,43
 1456 929 1456 929 1412.5 1004 c 128,-1,44
 1369 1079 1369 1079 1289 1135 c 128,-1,45
 1209 1191 1209 1191 1097 1224.5 c 128,-1,46
 985 1258 985 1258 847 1261 c 2,47,-1
 363 1262 l 1,31,-1
EndSplineSet
EndChar

StartChar: dieresis
Encoding: 168 168 41
Width: 610
GlyphClass: 1
Flags: W
LayerCount: 2
Fore
SplineSet
210 1299 m 0,0,1
 216 1310 216 1310 221.5 1319.5 c 128,-1,2
 227 1329 227 1329 229 1332 c 1,3,-1
 228 1332 l 1,4,5
 249 1364 249 1364 267 1364 c 0,6,7
 293 1364 293 1364 311 1349 c 128,-1,8
 329 1334 329 1334 329 1316 c 0,9,10
 329 1296 329 1296 297.5 1253.5 c 128,-1,11
 266 1211 266 1211 194 1129 c 0,12,13
 97 1022 97 1022 82 1019 c 1,14,15
 89 1021 89 1021 89 1040 c 0,16,17
 89 1058 89 1058 102.5 1091.5 c 128,-1,18
 116 1125 116 1125 135 1162.5 c 128,-1,19
 154 1200 154 1200 175 1237 c 128,-1,20
 196 1274 196 1274 210 1299 c 0,0,1
427 1332 m 0,21,22
 448 1364 448 1364 465 1364 c 0,23,24
 491 1364 491 1364 509.5 1348.5 c 128,-1,25
 528 1333 528 1333 528 1317 c 0,26,27
 528 1298 528 1298 509 1272 c 128,-1,28
 490 1246 490 1246 449 1197 c 0,29,30
 437 1183 437 1183 422.5 1166 c 128,-1,31
 408 1149 408 1149 392 1129 c 0,32,33
 300 1022 300 1022 281 1019 c 1,34,35
 287 1020 287 1020 287 1042 c 0,36,37
 287 1057 287 1057 296.5 1083 c 128,-1,38
 306 1109 306 1109 320 1139.5 c 128,-1,39
 334 1170 334 1170 351 1202 c 128,-1,40
 368 1234 368 1234 384 1261 c 128,-1,41
 400 1288 400 1288 411.5 1307.5 c 128,-1,42
 423 1327 423 1327 427 1332 c 0,21,22
EndSplineSet
EndChar

StartChar: f
Encoding: 102 102 42
Width: 697
GlyphClass: 1
Flags: W
LayerCount: 2
Fore
SplineSet
1016 1317 m 1,0,1
 1019 1337 1019 1337 1034 1350 c 128,-1,2
 1049 1363 1049 1363 1075 1363 c 0,3,4
 1102 1363 1102 1363 1116 1322 c 2,5,-1
 1177 1123 l 1,6,-1
 1178 1123 l 2,7,8
 1179 1121 1179 1121 1179 1107 c 0,9,10
 1179 1088 1179 1088 1165.5 1075 c 128,-1,11
 1152 1062 1152 1062 1123 1062 c 0,12,13
 1100 1062 1100 1062 1079 1091 c 0,14,15
 1012 1176 1012 1176 938 1219 c 128,-1,16
 864 1262 864 1262 771 1262 c 0,17,18
 671 1262 671 1262 593 1241.5 c 128,-1,19
 515 1221 515 1221 462 1185.5 c 128,-1,20
 409 1150 409 1150 381 1102.5 c 128,-1,21
 353 1055 353 1055 353 1000 c 2,22,-1
 353 898 l 1,23,-1
 378 898 l 2,24,25
 410 898 410 898 441.5 897.5 c 128,-1,26
 473 897 473 897 505 897 c 0,27,28
 555 895 555 895 555 846 c 0,29,30
 555 794 555 794 504 796 c 0,31,32
 472 796 472 796 441 796.5 c 128,-1,33
 410 797 410 797 378 797 c 2,34,-1
 353 797 l 1,35,-1
 353 103 l 1,36,-1
 463 103 l 2,37,38
 513 103 513 103 513 53 c 0,39,40
 513 2 513 2 463 2 c 2,41,-1
 151 2 l 2,42,43
 100 2 100 2 100 53 c 0,44,45
 100 103 100 103 151 103 c 2,46,-1
 250 103 l 1,47,-1
 250 798 l 1,48,-1
 225 798 l 2,49,50
 199 798 199 798 172.5 798.5 c 128,-1,51
 146 799 146 799 120 799 c 0,52,53
 70 799 70 799 70 849 c 256,54,55
 70 899 70 899 121 899 c 2,56,-1
 250 899 l 1,57,-1
 250 1000 l 2,58,59
 250 1072 250 1072 281.5 1134 c 128,-1,60
 313 1196 313 1196 373.5 1243.5 c 128,-1,61
 434 1291 434 1291 522.5 1321.5 c 128,-1,62
 611 1352 611 1352 725 1362 c 1,63,-1
 730 1362 l 2,64,65
 741 1363 741 1363 749.5 1363.5 c 128,-1,66
 758 1364 758 1364 769 1364 c 0,67,68
 878 1364 878 1364 981 1317 c 1,69,-1
 1016 1317 l 1,0,1
EndSplineSet
EndChar

StartChar: V
Encoding: 86 86 43
Width: 1498
GlyphClass: 1
Flags: W
LayerCount: 2
Fore
SplineSet
376 1261 m 1,0,-1
 881 169 l 1,1,2
 1050 461 1050 461 1203 729.5 c 128,-1,3
 1356 998 1356 998 1505 1261 c 1,4,-1
 1366 1261 l 2,5,6
 1316 1261 1316 1261 1316 1311 c 0,7,8
 1316 1362 1316 1362 1366 1362 c 2,9,-1
 1749 1362 l 2,10,11
 1800 1362 1800 1362 1800 1311 c 0,12,13
 1800 1261 1800 1261 1749 1261 c 2,14,-1
 1623 1261 l 1,15,16
 1448 953 1448 953 1274.5 648 c 128,-1,17
 1101 343 1101 343 926 35 c 0,18,19
 904 1 904 1 871 1 c 0,20,21
 846 1 846 1 828 38 c 2,22,-1
 263 1261 l 1,23,-1
 112 1261 l 2,24,25
 61 1261 61 1261 61 1311 c 0,26,27
 61 1362 61 1362 112 1362 c 2,28,-1
 477 1362 l 2,29,30
 528 1362 528 1362 528 1311 c 0,31,32
 528 1261 528 1261 477 1261 c 2,33,-1
 376 1261 l 1,0,-1
EndSplineSet
EndChar

StartChar: G
Encoding: 71 71 44
Width: 1549
GlyphClass: 1
Flags: W
LayerCount: 2
Fore
SplineSet
1226 1366 m 1,0,1
 1231 1360 1231 1360 1232 1366 c 1,2,-1
 1226 1366 l 1,0,1
1234 1362 m 1,3,4
 1234 1363 1234 1363 1233.5 1364 c 128,-1,5
 1233 1365 1233 1365 1233 1366 c 1,6,-1
 1232 1366 l 1,7,-1
 1232 1370 l 2,8,9
 1232 1390 1232 1390 1248.5 1404 c 128,-1,10
 1265 1418 1265 1418 1293 1418 c 0,11,12
 1315 1418 1315 1418 1333 1381 c 1,13,-1
 1334 1381 l 1,14,15
 1361 1325 1361 1325 1388.5 1269.5 c 128,-1,16
 1416 1214 1416 1214 1443 1158 c 1,17,-1
 1444 1158 l 1,18,19
 1446 1154 1446 1154 1446 1135 c 0,20,21
 1446 1118 1446 1118 1429.5 1104.5 c 128,-1,22
 1413 1091 1413 1091 1384 1091 c 0,23,24
 1374 1091 1374 1091 1365 1099.5 c 128,-1,25
 1356 1108 1356 1108 1344 1125 c 0,26,27
 1282 1218 1282 1218 1179.5 1261.5 c 128,-1,28
 1077 1305 1077 1305 918 1305 c 0,29,30
 756 1305 756 1305 620 1258 c 128,-1,31
 484 1211 484 1211 386.5 1127.5 c 128,-1,32
 289 1044 289 1044 234.5 929 c 128,-1,33
 180 814 180 814 180 678 c 0,34,35
 180 607 180 607 196.5 543.5 c 128,-1,36
 213 480 213 480 242 423.5 c 128,-1,37
 271 367 271 367 312 318 c 128,-1,38
 353 269 353 269 401 229 c 0,39,40
 447 190 447 190 501 160.5 c 128,-1,41
 555 131 555 131 612.5 110.5 c 128,-1,42
 670 90 670 90 730 80 c 128,-1,43
 790 70 790 70 849 70 c 2,44,-1
 862 70 l 1,45,46
 1063 79 1063 79 1184 134 c 128,-1,47
 1305 189 1305 189 1344 289 c 0,48,49
 1361 331 1361 331 1363.5 381.5 c 128,-1,50
 1366 432 1366 432 1366 494 c 2,51,-1
 1366 542 l 2,52,53
 1366 562 1366 562 1365.5 578 c 128,-1,54
 1365 594 1365 594 1362 606 c 1,55,-1
 1084 606 l 2,56,57
 1033 606 1033 606 1033 656 c 0,58,59
 1033 707 1033 707 1084 707 c 2,60,-1
 1414 707 l 2,61,62
 1464 707 1464 707 1464 656 c 0,63,64
 1464 618 1464 618 1465 589.5 c 128,-1,65
 1466 561 1466 561 1467 537 c 0,66,67
 1468 520 1468 520 1468.5 499.5 c 128,-1,68
 1469 479 1469 479 1469 459 c 0,69,70
 1469 380 1469 380 1457 318 c 128,-1,71
 1445 256 1445 256 1418 207 c 128,-1,72
 1391 158 1391 158 1348 120 c 128,-1,73
 1305 82 1305 82 1243 52 c 0,74,75
 1093 -21 1093 -21 867 -30 c 1,76,-1
 850 -30 l 2,77,78
 718 -30 718 -30 579 16 c 0,79,80
 449 58 449 58 329 150 c 0,81,82
 277 189 277 189 232 244 c 128,-1,83
 187 299 187 299 148 368 c 0,84,85
 79 494 79 494 79 665 c 0,86,87
 79 828 79 828 141.5 964.5 c 128,-1,88
 204 1101 204 1101 315.5 1199 c 128,-1,89
 427 1297 427 1297 581 1351.5 c 128,-1,90
 735 1406 735 1406 918 1406 c 0,91,92
 1072 1406 1072 1406 1201 1362 c 1,93,-1
 1234 1362 l 1,3,4
EndSplineSet
EndChar

StartChar: o
Encoding: 111 111 45
Width: 1119
GlyphClass: 1
Flags: W
LayerCount: 2
Fore
SplineSet
589 916 m 2,0,1
 685 914 685 914 767.5 877.5 c 128,-1,2
 850 841 850 841 910.5 779.5 c 128,-1,3
 971 718 971 718 1006 635 c 128,-1,4
 1041 552 1041 552 1041 457 c 2,5,-1
 1041 436 l 1,6,7
 1037 337 1037 337 995 250 c 128,-1,8
 953 163 953 163 885 98.5 c 128,-1,9
 817 34 817 34 728 -3.5 c 128,-1,10
 639 -41 639 -41 540 -41 c 0,11,12
 442 -41 442 -41 357 -5 c 128,-1,13
 272 31 272 31 210 93.5 c 128,-1,14
 148 156 148 156 112.5 239.5 c 128,-1,15
 77 323 77 323 77 418 c 2,16,-1
 77 439 l 1,17,18
 82 537 82 537 123.5 624 c 128,-1,19
 165 711 165 711 233 776 c 128,-1,20
 301 841 301 841 390 878.5 c 128,-1,21
 479 916 479 916 579 916 c 2,22,-1
 589 916 l 2,0,1
579 815 m 2,23,24
 495 815 495 815 422 781.5 c 128,-1,25
 349 748 349 748 295 692.5 c 128,-1,26
 241 637 241 637 210 565.5 c 128,-1,27
 179 494 179 494 179 418 c 0,28,29
 179 347 179 347 207.5 283 c 128,-1,30
 236 219 236 219 284.5 170.5 c 128,-1,31
 333 122 333 122 397.5 92.5 c 128,-1,32
 462 63 462 63 534 60 c 2,33,-1
 540 60 l 2,34,35
 617 60 617 60 687 91.5 c 128,-1,36
 757 123 757 123 811 175.5 c 128,-1,37
 865 228 865 228 899.5 296.5 c 128,-1,38
 934 365 934 365 940 439 c 1,39,-1
 940 457 l 2,40,41
 940 527 940 527 913 591 c 128,-1,42
 886 655 886 655 838.5 703.5 c 128,-1,43
 791 752 791 752 726.5 782 c 128,-1,44
 662 812 662 812 587 815 c 2,45,-1
 579 815 l 2,23,24
EndSplineSet
EndChar

StartChar: v
Encoding: 118 118 46
Width: 1468
GlyphClass: 1
Flags: W
LayerCount: 2
Fore
SplineSet
112 781 m 2,0,1
 61 781 61 781 61 831 c 0,2,3
 61 882 61 882 112 882 c 2,4,-1
 463 882 l 2,5,6
 513 882 513 882 513 831 c 0,7,8
 513 781 513 781 463 781 c 2,9,-1
 374 781 l 1,10,11
 414 707 414 707 458 628 c 128,-1,12
 502 549 502 549 546.5 468.5 c 128,-1,13
 591 388 591 388 634.5 308.5 c 128,-1,14
 678 229 678 229 719 156 c 1,15,-1
 742 192 l 2,16,17
 834 340 834 340 925 486.5 c 128,-1,18
 1016 633 1016 633 1108 781 c 1,19,-1
 1042 781 l 2,20,21
 991 781 991 781 991 831 c 0,22,23
 991 882 991 882 1042 882 c 2,24,-1
 1359 882 l 2,25,26
 1409 882 1409 882 1409 831 c 0,27,28
 1409 781 1409 781 1359 781 c 2,29,-1
 1230 781 l 1,30,31
 1114 594 1114 594 999 408.5 c 128,-1,32
 884 223 884 223 768 36 c 1,33,-1
 767 36 l 1,34,35
 755 16 755 16 740 8.5 c 128,-1,36
 725 1 725 1 708 1 c 0,37,38
 686 1 686 1 667 35 c 0,39,40
 566 218 566 218 461.5 408 c 128,-1,41
 357 598 357 598 256 781 c 1,42,-1
 112 781 l 2,0,1
EndSplineSet
EndChar

StartChar: L
Encoding: 76 76 47
Width: 1354
GlyphClass: 1
Flags: W
LayerCount: 2
Fore
SplineSet
460 1362 m 2,0,1
 512 1362 512 1362 512 1311 c 0,2,3
 512 1261 512 1261 460 1261 c 2,4,-1
 326 1261 l 1,5,-1
 326 103 l 1,6,-1
 997 103 l 1,7,8
 1043 142 1043 142 1089 181 c 128,-1,9
 1135 220 1135 220 1181 259 c 1,10,-1
 1183 259 l 1,11,12
 1207 283 1207 283 1224 283 c 0,13,14
 1248 283 1248 283 1265.5 267 c 128,-1,15
 1283 251 1283 251 1283 235 c 0,16,17
 1283 218 1283 218 1267 195 c 2,18,-1
 1094 -14 l 2,19,20
 1081 -25 1081 -25 1068.5 -30 c 128,-1,21
 1056 -35 1056 -35 1045 -35 c 256,22,23
 1034 -35 1034 -35 1007 -10 c 2,24,-1
 994 2 l 1,25,-1
 129 2 l 2,26,27
 77 2 77 2 77 53 c 0,28,29
 77 103 77 103 129 103 c 2,30,-1
 223 103 l 1,31,-1
 223 1261 l 1,32,-1
 130 1261 l 2,33,34
 80 1261 80 1261 80 1311 c 0,35,36
 80 1362 80 1362 130 1362 c 2,37,-1
 460 1362 l 2,0,1
EndSplineSet
EndChar

StartChar: F
Encoding: 70 70 48
Width: 1056
GlyphClass: 1
Flags: W
LayerCount: 2
Fore
SplineSet
1037 1261 m 1,0,-1
 351 1261 l 1,1,-1
 351 882 l 1,2,-1
 478 882 l 1,3,4
 476 887 476 887 474.5 891.5 c 128,-1,5
 473 896 473 896 473 904 c 0,6,7
 473 914 473 914 478.5 923.5 c 128,-1,8
 484 933 484 933 492 940 c 128,-1,9
 500 947 500 947 509 951 c 128,-1,10
 518 955 518 955 526 955 c 0,11,12
 533 955 533 955 543 950 c 128,-1,13
 553 945 553 945 566 937 c 0,14,15
 590 921 590 921 609 908 c 128,-1,16
 628 895 628 895 652 879 c 1,17,18
 655 870 655 870 670 867 c 1,19,-1
 817 768 l 2,20,21
 829 760 829 760 831 732 c 0,22,23
 831 723 831 723 826 714 c 128,-1,24
 821 705 821 705 812.5 697 c 128,-1,25
 804 689 804 689 794 684 c 128,-1,26
 784 679 784 679 775 679 c 0,27,28
 762 679 762 679 735 697 c 2,29,-1
 612 781 l 1,30,-1
 351 781 l 1,31,-1
 351 103 l 1,32,-1
 502 103 l 2,33,34
 554 103 554 103 554 53 c 0,35,36
 554 2 554 2 502 2 c 2,37,-1
 127 2 l 2,38,39
 76 2 76 2 76 53 c 0,40,41
 76 103 76 103 127 103 c 2,42,-1
 248 103 l 1,43,-1
 248 1261 l 1,44,-1
 130 1261 l 2,45,46
 79 1261 79 1261 79 1311 c 0,47,48
 79 1362 79 1362 130 1362 c 2,49,-1
 1022 1362 l 1,50,51
 1024 1367 1024 1367 1027.5 1371 c 128,-1,52
 1031 1375 1031 1375 1033 1380 c 0,53,54
 1053 1415 1053 1415 1072 1415 c 0,55,56
 1083 1415 1083 1415 1098 1408.5 c 128,-1,57
 1113 1402 1113 1402 1125 1393 c 2,58,-1
 1365 1184 l 2,59,60
 1370 1179 1370 1179 1373 1171 c 128,-1,61
 1376 1163 1376 1163 1376 1150 c 0,62,63
 1376 1142 1376 1142 1371 1133.5 c 128,-1,64
 1366 1125 1366 1125 1358.5 1117.5 c 128,-1,65
 1351 1110 1351 1110 1341 1105.5 c 128,-1,66
 1331 1101 1331 1101 1321 1101 c 0,67,68
 1308 1101 1308 1101 1282 1115 c 2,69,-1
 1037 1261 l 1,0,-1
EndSplineSet
EndChar

StartChar: E
Encoding: 69 69 49
Width: 1575
GlyphClass: 1
Flags: W
LayerCount: 2
Fore
SplineSet
1037 1261 m 1,0,-1
 351 1261 l 1,1,-1
 351 882 l 1,2,-1
 478 882 l 1,3,4
 476 887 476 887 474.5 891.5 c 128,-1,5
 473 896 473 896 473 904 c 0,6,7
 473 914 473 914 478.5 923.5 c 128,-1,8
 484 933 484 933 492 940 c 128,-1,9
 500 947 500 947 509 951 c 128,-1,10
 518 955 518 955 526 955 c 0,11,12
 533 955 533 955 543 950 c 128,-1,13
 553 945 553 945 566 937 c 0,14,15
 590 921 590 921 609 908 c 128,-1,16
 628 895 628 895 652 879 c 1,17,18
 655 870 655 870 670 867 c 1,19,-1
 817 768 l 2,20,21
 829 760 829 760 831 732 c 0,22,23
 831 723 831 723 826 714 c 128,-1,24
 821 705 821 705 812.5 697 c 128,-1,25
 804 689 804 689 794 684 c 128,-1,26
 784 679 784 679 775 679 c 0,27,28
 762 679 762 679 735 697 c 2,29,-1
 612 781 l 1,30,-1
 351 781 l 1,31,-1
 351 103 l 1,32,-1
 1159 103 l 1,33,34
 1216 144 1216 144 1272.5 184.5 c 128,-1,35
 1329 225 1329 225 1386 266 c 0,36,37
 1397 274 1397 274 1407 278.5 c 128,-1,38
 1417 283 1417 283 1425 283 c 0,39,40
 1437 283 1437 283 1447 278 c 128,-1,41
 1457 273 1457 273 1464.5 265.5 c 128,-1,42
 1472 258 1472 258 1476.5 249 c 128,-1,43
 1481 240 1481 240 1481 233 c 0,44,45
 1481 222 1481 222 1479 215.5 c 128,-1,46
 1477 209 1477 209 1473 204 c 2,47,-1
 1256 -17 l 2,48,49
 1241 -27 1241 -27 1232.5 -31 c 128,-1,50
 1224 -35 1224 -35 1215 -35 c 2,51,-1
 1214 -35 l 2,52,53
 1203 -36 1203 -36 1176 -13 c 1,54,-1
 1175 -13 l 1,55,-1
 1157 2 l 1,56,-1
 127 2 l 2,57,58
 76 2 76 2 76 53 c 0,59,60
 76 103 76 103 127 103 c 2,61,-1
 248 103 l 1,62,-1
 248 1261 l 1,63,-1
 130 1261 l 2,64,65
 79 1261 79 1261 79 1311 c 0,66,67
 79 1362 79 1362 130 1362 c 2,68,-1
 1022 1362 l 1,69,70
 1024 1367 1024 1367 1027.5 1371 c 128,-1,71
 1031 1375 1031 1375 1033 1380 c 0,72,73
 1053 1415 1053 1415 1072 1415 c 0,74,75
 1083 1415 1083 1415 1098 1408.5 c 128,-1,76
 1113 1402 1113 1402 1125 1393 c 2,77,-1
 1365 1184 l 2,78,79
 1370 1179 1370 1179 1373 1171 c 128,-1,80
 1376 1163 1376 1163 1376 1150 c 0,81,82
 1376 1142 1376 1142 1371 1133.5 c 128,-1,83
 1366 1125 1366 1125 1358.5 1117.5 c 128,-1,84
 1351 1110 1351 1110 1341 1105.5 c 128,-1,85
 1331 1101 1331 1101 1321 1101 c 0,86,87
 1308 1101 1308 1101 1282 1115 c 2,88,-1
 1037 1261 l 1,0,-1
EndSplineSet
EndChar

StartChar: b
Encoding: 98 98 50
Width: 1003
GlyphClass: 1
Flags: W
LayerCount: 2
Fore
SplineSet
130 1261 m 2,0,1
 79 1261 79 1261 79 1311 c 0,2,3
 79 1362 79 1362 130 1362 c 2,4,-1
 268 1362 l 2,5,6
 318 1362 318 1362 318 1311 c 2,7,-1
 318 848 l 1,8,-1
 355 878 l 1,9,10
 443 928 443 928 537 928 c 256,11,12
 631 928 631 928 703 899 c 128,-1,13
 775 870 775 870 824 820 c 128,-1,14
 873 770 873 770 898 702 c 128,-1,15
 923 634 923 634 923 555 c 0,16,17
 923 422 923 422 890 318.5 c 128,-1,18
 857 215 857 215 797.5 144 c 128,-1,19
 738 73 738 73 655 36 c 128,-1,20
 572 -1 572 -1 472 -1 c 0,21,22
 435 -1 435 -1 403 6.5 c 128,-1,23
 371 14 371 14 343 26 c 1,24,-1
 315 26 l 1,25,26
 292 2 292 2 268 2 c 2,27,-1
 151 2 l 2,28,29
 100 2 100 2 100 53 c 0,30,31
 100 103 100 103 151 103 c 2,32,-1
 217 103 l 1,33,-1
 217 1261 l 1,34,-1
 130 1261 l 2,0,1
318 238 m 2,35,36
 321 209 321 209 331 184.5 c 128,-1,37
 341 160 341 160 359 141.5 c 128,-1,38
 377 123 377 123 405 111.5 c 128,-1,39
 433 100 433 100 474 99 c 2,40,-1
 475 99 l 2,41,42
 545 99 545 99 608 128 c 128,-1,43
 671 157 671 157 718 213.5 c 128,-1,44
 765 270 765 270 792.5 353.5 c 128,-1,45
 820 437 820 437 820 547 c 0,46,47
 820 675 820 675 757 743.5 c 128,-1,48
 694 812 694 812 556 826 c 1,49,-1
 538 826 l 2,50,51
 473 826 473 826 420.5 797 c 128,-1,52
 368 768 368 768 323 711 c 1,53,-1
 318 697 l 1,54,-1
 318 238 l 2,35,36
EndSplineSet
EndChar

StartChar: s
Encoding: 115 115 51
Width: 907
GlyphClass: 1
Flags: W
LayerCount: 2
Fore
SplineSet
626 884 m 1,0,1
 642 920 642 920 682 920 c 0,2,3
 707 920 707 920 724 881 c 2,4,-1
 800 690 l 2,5,6
 800 683 800 683 803 677 c 2,7,-1
 803 667 l 2,8,9
 803 648 803 648 787.5 634.5 c 128,-1,10
 772 621 772 621 742 621 c 0,11,12
 718 621 718 621 701 659 c 0,13,14
 671 728 671 728 615 764 c 128,-1,15
 559 800 559 800 471 800 c 0,16,17
 426 800 426 800 389.5 792.5 c 128,-1,18
 353 785 353 785 326.5 772.5 c 128,-1,19
 300 760 300 760 286 744 c 128,-1,20
 272 728 272 728 272 711 c 0,21,22
 272 685 272 685 284.5 665 c 128,-1,23
 297 645 297 645 324 627.5 c 128,-1,24
 351 610 351 610 394 595 c 128,-1,25
 437 580 437 580 499 565 c 0,26,27
 571 545 571 545 631.5 513 c 128,-1,28
 692 481 692 481 735.5 438 c 128,-1,29
 779 395 779 395 803.5 342 c 128,-1,30
 828 289 828 289 828 229 c 0,31,32
 828 179 828 179 806 137.5 c 128,-1,33
 784 96 784 96 746 65.5 c 128,-1,34
 708 35 708 35 656 18 c 128,-1,35
 604 1 604 1 543 1 c 0,36,37
 488 1 488 1 431 15 c 128,-1,38
 374 29 374 29 320 52 c 1,39,-1
 285 52 l 1,40,41
 285 2 285 2 223 2 c 0,42,43
 204 2 204 2 185 36 c 0,44,45
 159 82 159 82 134 129.5 c 128,-1,46
 109 177 109 177 83 223 c 1,47,-1
 82 223 l 1,48,49
 80 227 80 227 80 243 c 0,50,51
 80 263 80 263 98 279 c 128,-1,52
 116 295 116 295 135 295 c 0,53,54
 150 295 150 295 176 272 c 0,55,56
 266 191 266 191 351.5 149.5 c 128,-1,57
 437 108 437 108 534 103 c 1,58,-1
 559 103 l 2,59,60
 604 104 604 104 635 117 c 128,-1,61
 666 130 666 130 686 150 c 128,-1,62
 706 170 706 170 715 195 c 128,-1,63
 724 220 724 220 725 247 c 1,64,65
 715 328 715 328 644.5 386 c 128,-1,66
 574 444 574 444 459 470 c 0,67,68
 313 504 313 504 241.5 560 c 128,-1,69
 170 616 170 616 170 709 c 0,70,71
 170 746 170 746 192 781 c 128,-1,72
 214 816 214 816 253.5 842.5 c 128,-1,73
 293 869 293 869 349.5 885 c 128,-1,74
 406 901 406 901 475 901 c 0,75,76
 505 901 505 901 535.5 897 c 128,-1,77
 566 893 566 893 596 884 c 1,78,-1
 626 884 l 1,0,1
EndSplineSet
EndChar

StartChar: n
Encoding: 110 110 52
Width: 1177
GlyphClass: 1
Flags: W
LayerCount: 2
Fore
SplineSet
130 768 m 2,0,1
 79 768 79 768 79 818 c 0,2,3
 79 869 79 869 130 869 c 2,4,-1
 292 869 l 2,5,6
 342 869 342 869 342 818 c 2,7,-1
 342 799 l 1,8,-1
 377 812 l 1,9,10
 530 882 530 882 675 882 c 0,11,12
 765 882 765 882 837 861 c 128,-1,13
 909 840 909 840 959.5 799.5 c 128,-1,14
 1010 759 1010 759 1037.5 699.5 c 128,-1,15
 1065 640 1065 640 1065 563 c 0,16,17
 1065 456 1065 456 1020 337.5 c 128,-1,18
 975 219 975 219 881 90 c 1,19,-1
 972 90 l 2,20,21
 1023 90 1023 90 1023 40 c 256,22,23
 1023 -10 1023 -10 972 -10 c 2,24,-1
 777 -10 l 2,25,26
 751 -10 751 -10 736 5.5 c 128,-1,27
 721 21 721 21 721 35 c 0,28,29
 721 55 721 55 728 63 c 1,30,-1
 729 63 l 1,31,32
 850 214 850 214 907 338.5 c 128,-1,33
 964 463 964 463 964 563 c 0,34,35
 964 605 964 605 951.5 644.5 c 128,-1,36
 939 684 939 684 907.5 714.5 c 128,-1,37
 876 745 876 745 821.5 763 c 128,-1,38
 767 781 767 781 684 781 c 0,39,40
 589 781 589 781 503 753.5 c 128,-1,41
 417 726 417 726 351 674 c 1,42,-1
 341 663 l 1,43,-1
 342 90 l 1,44,-1
 442 90 l 2,45,46
 494 90 494 90 494 40 c 256,47,48
 494 -10 494 -10 442 -10 c 2,49,-1
 178 -10 l 2,50,51
 127 -10 127 -10 127 40 c 256,52,53
 127 90 127 90 178 90 c 2,54,-1
 241 90 l 1,55,-1
 241 768 l 1,56,-1
 130 768 l 2,0,1
EndSplineSet
EndChar

StartChar: exclam
Encoding: 33 33 53
Width: 271
GlyphClass: 1
Flags: W
LayerCount: 2
Fore
SplineSet
74 68 m 2,0,1
 74 118 74 118 126 118 c 0,2,3
 176 118 176 118 176 68 c 2,4,-1
 176 53 l 2,5,6
 176 2 176 2 126 2 c 0,7,8
 74 2 74 2 74 53 c 2,9,-1
 74 68 l 2,0,1
145 1350 m 1,10,11
 156 1354 156 1354 161 1354 c 0,12,13
 198 1353 198 1353 198 1311 c 2,14,-1
 177 358 l 2,15,16
 174 316 174 316 139 316 c 0,17,18
 121 316 121 316 111.5 327.5 c 128,-1,19
 102 339 102 339 101 357 c 0,20,21
 94 594 94 594 87.5 834 c 128,-1,22
 81 1074 81 1074 74 1311 c 0,23,24
 75 1329 75 1329 84 1341 c 128,-1,25
 93 1353 93 1353 111 1354 c 0,26,27
 116 1354 116 1354 127 1350 c 1,28,-1
 145 1350 l 1,10,11
EndSplineSet
EndChar

StartChar: r
Encoding: 114 114 54
Width: 850
GlyphClass: 1
Flags: W
LayerCount: 2
Fore
SplineSet
129 781 m 2,0,1
 77 781 77 781 77 831 c 0,2,3
 77 882 77 882 129 882 c 2,4,-1
 286 882 l 2,5,6
 338 882 338 882 338 831 c 2,7,-1
 338 103 l 1,8,-1
 423 103 l 2,9,10
 474 103 474 103 474 53 c 0,11,12
 474 2 474 2 423 2 c 2,13,-1
 172 2 l 2,14,15
 122 2 122 2 122 53 c 0,16,17
 122 103 122 103 172 103 c 2,18,-1
 235 103 l 1,19,-1
 235 781 l 1,20,-1
 129 781 l 2,0,1
440 683 m 0,21,22
 440 671 440 671 449.5 658 c 128,-1,23
 459 645 459 645 472.5 634 c 128,-1,24
 486 623 486 623 501 616 c 128,-1,25
 516 609 516 609 528 608 c 1,26,-1
 521 608 l 1,27,28
 540 601 540 601 540 573 c 0,29,30
 540 553 540 553 527.5 540 c 128,-1,31
 515 527 515 527 504 527 c 0,32,33
 478 527 478 527 451 539.5 c 128,-1,34
 424 552 424 552 402 573 c 128,-1,35
 380 594 380 594 366 622.5 c 128,-1,36
 352 651 352 651 352 683 c 0,37,38
 352 720 352 720 373 757.5 c 128,-1,39
 394 795 394 795 429 825 c 128,-1,40
 464 855 464 855 510 874 c 128,-1,41
 556 893 556 893 606 893 c 0,42,43
 649 893 649 893 682 881.5 c 128,-1,44
 715 870 715 870 737.5 851.5 c 128,-1,45
 760 833 760 833 771 809.5 c 128,-1,46
 782 786 782 786 782 763 c 0,47,48
 782 720 782 720 756.5 692.5 c 128,-1,49
 731 665 731 665 690 665 c 0,50,51
 667 665 667 665 647.5 674 c 128,-1,52
 628 683 628 683 614 697 c 128,-1,53
 600 711 600 711 592 729.5 c 128,-1,54
 584 748 584 748 584 768 c 2,55,-1
 584 772 l 2,56,57
 584 777 584 777 584 781.5 c 128,-1,58
 584 786 584 786 585 788 c 1,59,-1
 554 788 l 1,60,61
 529 780 529 780 508 768 c 128,-1,62
 487 756 487 756 472 741.5 c 128,-1,63
 457 727 457 727 448.5 712 c 128,-1,64
 440 697 440 697 440 683 c 0,21,22
EndSplineSet
EndChar

StartChar: e
Encoding: 101 101 55
Width: 1042
GlyphClass: 1
Flags: W
LayerCount: 2
Fore
SplineSet
721 739 m 1,0,-1
 741 739 l 1,1,2
 714 773 714 773 672 789.5 c 128,-1,3
 630 806 630 806 562 806 c 0,4,5
 421 806 421 806 330 733 c 1,6,-1
 346 733 l 1,7,-1
 721 739 l 1,0,-1
261 631 m 1,8,-1
 241 631 l 1,9,10
 225 608 225 608 214.5 582 c 128,-1,11
 204 556 204 556 198 530.5 c 128,-1,12
 192 505 192 505 190 480.5 c 128,-1,13
 188 456 188 456 188 436 c 0,14,15
 188 375 188 375 209 325 c 128,-1,16
 230 275 230 275 264.5 236 c 128,-1,17
 299 197 299 197 342 168.5 c 128,-1,18
 385 140 385 140 428.5 121 c 128,-1,19
 472 102 472 102 513 93 c 128,-1,20
 554 84 554 84 583 84 c 0,21,22
 651 84 651 84 716.5 112 c 128,-1,23
 782 140 782 140 845 200 c 1,24,-1
 846 200 l 1,25,26
 870 224 870 224 885 224 c 0,27,28
 895 224 895 224 906 219 c 128,-1,29
 917 214 917 214 925 206.5 c 128,-1,30
 933 199 933 199 938.5 190 c 128,-1,31
 944 181 944 181 944 173 c 0,32,33
 944 155 944 155 926 134 c 128,-1,34
 908 113 908 113 882.5 93.5 c 128,-1,35
 857 74 857 74 830.5 57.5 c 128,-1,36
 804 41 804 41 786 33 c 1,37,-1
 785 33 l 1,38,39
 684 -16 684 -16 583 -16 c 0,40,41
 480 -16 480 -16 385.5 29 c 128,-1,42
 291 74 291 74 194 162 c 0,43,44
 140 212 140 212 114 277.5 c 128,-1,45
 88 343 88 343 88 435 c 0,46,47
 88 514 88 514 115.5 597.5 c 128,-1,48
 143 681 143 681 200.5 750 c 128,-1,49
 258 819 258 819 346 863 c 128,-1,50
 434 907 434 907 555 907 c 0,51,52
 670 907 670 907 751 860.5 c 128,-1,53
 832 814 832 814 883 706 c 1,54,-1
 884 706 l 2,55,56
 885 704 885 704 885 688 c 0,57,58
 885 641 885 641 835 639 c 2,59,-1
 261 631 l 1,8,-1
EndSplineSet
EndChar

StartChar: g
Encoding: 103 103 56
Width: 990
GlyphClass: 1
Flags: W
LayerCount: 2
Fore
SplineSet
738 852 m 1,0,-1
 741 852 l 1,1,2
 762 884 762 884 781 884 c 0,3,4
 809 884 809 884 825.5 869 c 128,-1,5
 842 854 842 854 842 837 c 0,6,7
 842 821 842 821 834.5 806 c 128,-1,8
 827 791 827 791 818 777 c 1,9,-1
 817 777 l 1,10,11
 811 766 811 766 805.5 756 c 128,-1,12
 800 746 800 746 795 737 c 1,13,-1
 794 737 l 1,14,15
 774 695 774 695 765 653.5 c 128,-1,16
 756 612 756 612 756 572 c 0,17,18
 756 503 756 503 780.5 428.5 c 128,-1,19
 805 354 805 354 852 263 c 0,20,21
 877 217 877 217 891 162.5 c 128,-1,22
 905 108 905 108 905 50 c 0,23,24
 905 -9 905 -9 882.5 -64 c 128,-1,25
 860 -119 860 -119 820 -162.5 c 128,-1,26
 780 -206 780 -206 726.5 -232 c 128,-1,27
 673 -258 673 -258 610 -258 c 0,28,29
 565 -258 565 -258 531.5 -244.5 c 128,-1,30
 498 -231 498 -231 475.5 -208.5 c 128,-1,31
 453 -186 453 -186 441.5 -158.5 c 128,-1,32
 430 -131 430 -131 430 -102 c 0,33,34
 430 -48 430 -48 462 -1 c 1,35,-1
 441 -1 l 2,36,37
 440 -1 440 -1 440 -0.5 c 128,-1,38
 440 0 440 0 439 0 c 0,39,40
 361 9 361 9 293.5 43.5 c 128,-1,41
 226 78 226 78 176.5 133.5 c 128,-1,42
 127 189 127 189 98.5 262.5 c 128,-1,43
 70 336 70 336 70 424 c 0,44,45
 70 473 70 473 79.5 527 c 128,-1,46
 89 581 89 581 109 633.5 c 128,-1,47
 129 686 129 686 161 733.5 c 128,-1,48
 193 781 193 781 238 817.5 c 128,-1,49
 283 854 283 854 341.5 875.5 c 128,-1,50
 400 897 400 897 474 897 c 0,51,52
 598 897 598 897 704 847 c 1,53,-1
 733 847 l 1,54,-1
 738 852 l 1,0,-1
656 539 m 0,55,56
 655 547 655 547 655 554.5 c 128,-1,57
 655 562 655 562 655 570 c 0,58,59
 655 667 655 667 686 745 c 1,60,-1
 679 745 l 1,61,62
 667 755 667 755 644.5 764 c 128,-1,63
 622 773 622 773 593.5 780 c 128,-1,64
 565 787 565 787 535 791 c 128,-1,65
 505 795 505 795 478 795 c 0,66,67
 422 795 422 795 377.5 778 c 128,-1,68
 333 761 333 761 299 732 c 128,-1,69
 265 703 265 703 241 665.5 c 128,-1,70
 217 628 217 628 201.5 587 c 128,-1,71
 186 546 186 546 178.5 504 c 128,-1,72
 171 462 171 462 171 425 c 0,73,74
 171 351 171 351 198 290 c 128,-1,75
 225 229 225 229 270.5 186 c 128,-1,76
 316 143 316 143 376 119.5 c 128,-1,77
 436 96 436 96 502 96 c 0,78,79
 553 96 553 96 595 110 c 128,-1,80
 637 124 637 124 667 149 c 128,-1,81
 697 174 697 174 713.5 208 c 128,-1,82
 730 242 730 242 730 281 c 1,83,-1
 727 281 l 1,84,85
 695 344 695 344 677 408.5 c 128,-1,86
 659 473 659 473 656 539 c 0,55,56
799 1 m 1,87,88
 803 24 803 24 803 57 c 0,89,90
 803 66 803 66 803 74.5 c 128,-1,91
 803 83 803 83 802 93 c 1,92,-1
 760 93 l 1,93,94
 745 79 745 79 727 65.5 c 128,-1,95
 709 52 709 52 691 41 c 128,-1,96
 673 30 673 30 655.5 22 c 128,-1,97
 638 14 638 14 623 11 c 2,98,-1
 611 11 l 1,99,100
 531 -58 531 -58 531 -102 c 0,101,102
 531 -120 531 -120 548.5 -138 c 128,-1,103
 566 -156 566 -156 607 -156 c 0,104,105
 641 -156 641 -156 673 -141.5 c 128,-1,106
 705 -127 705 -127 730.5 -104 c 128,-1,107
 756 -81 756 -81 774 -53.5 c 128,-1,108
 792 -26 792 -26 798 1 c 1,109,-1
 799 1 l 1,87,88
EndSplineSet
EndChar

StartChar: j
Encoding: 106 106 57
Width: 600
GlyphClass: 1
Flags: W
LayerCount: 2
Fore
SplineSet
435 1314 m 2,0,1
 454 1339 454 1339 465 1339 c 0,2,3
 485 1339 485 1339 498.5 1326 c 128,-1,4
 512 1313 512 1313 512 1300 c 0,5,6
 512 1281 512 1281 508 1277 c 2,7,-1
 361 1080 l 2,8,9
 342 1055 342 1055 330 1055 c 0,10,11
 309 1055 309 1055 296 1068.5 c 128,-1,12
 283 1082 283 1082 283 1095 c 0,13,14
 283 1114 283 1114 287 1118 c 2,15,-1
 435 1314 l 2,0,1
174 781 m 2,16,17
 124 781 124 781 124 831 c 0,18,19
 124 882 124 882 174 882 c 2,20,-1
 339 882 l 2,21,22
 390 882 390 882 390 831 c 2,23,-1
 390 22 l 2,24,25
 390 -173 390 -173 304.5 -260.5 c 128,-1,26
 219 -348 219 -348 52 -348 c 0,27,28
 -8 -348 -8 -348 -61 -334.5 c 128,-1,29
 -114 -321 -114 -321 -153 -295.5 c 128,-1,30
 -192 -270 -192 -270 -215 -233.5 c 128,-1,31
 -238 -197 -238 -197 -238 -152 c 0,32,33
 -236 -136 -236 -136 -233 -119 c 128,-1,34
 -230 -102 -230 -102 -224 -88 c 128,-1,35
 -218 -74 -218 -74 -208.5 -65 c 128,-1,36
 -199 -56 -199 -56 -185 -56 c 0,37,38
 -155 -56 -155 -56 -139 -69.5 c 128,-1,39
 -123 -83 -123 -83 -123 -102 c 0,40,41
 -123 -110 -123 -110 -125 -114.5 c 128,-1,42
 -127 -119 -127 -119 -129 -126 c 0,43,44
 -131 -131 -131 -131 -133.5 -139 c 128,-1,45
 -136 -147 -136 -147 -136 -161 c 0,46,47
 -136 -200 -136 -200 -72 -225 c 0,48,49
 -24 -246 -24 -246 54 -246 c 0,50,51
 122 -246 122 -246 167.5 -229 c 128,-1,52
 213 -212 213 -212 240 -179 c 128,-1,53
 267 -146 267 -146 278 -97 c 128,-1,54
 289 -48 289 -48 289 15 c 2,55,-1
 289 781 l 1,56,-1
 174 781 l 2,16,17
EndSplineSet
EndChar

StartChar: t
Encoding: 116 116 58
Width: 552
GlyphClass: 1
Flags: W
LayerCount: 2
Fore
SplineSet
168 1142 m 1,0,1
 169 1142 169 1142 169 1153 c 0,2,3
 169 1173 169 1173 181.5 1187.5 c 128,-1,4
 194 1202 194 1202 228 1202 c 0,5,6
 259 1202 259 1202 271 1161 c 0,7,8
 280 1131 280 1131 285.5 1104.5 c 128,-1,9
 291 1078 291 1078 294 1047 c 128,-1,10
 297 1016 297 1016 298.5 976.5 c 128,-1,11
 300 937 300 937 300 882 c 1,12,-1
 370 882 l 2,13,14
 422 882 422 882 422 831 c 0,15,16
 422 781 422 781 370 781 c 2,17,-1
 297 781 l 1,18,19
 293 638 293 638 289 496 c 128,-1,20
 285 354 285 354 281 211 c 0,21,22
 281 175 281 175 282.5 154 c 128,-1,23
 284 133 284 133 298.5 121.5 c 128,-1,24
 313 110 313 110 346.5 106.5 c 128,-1,25
 380 103 380 103 444 103 c 0,26,27
 495 103 495 103 495 53 c 0,28,29
 495 2 495 2 444 2 c 0,30,31
 383 2 383 2 334 9.5 c 128,-1,32
 285 17 285 17 250.5 39 c 128,-1,33
 216 61 216 61 197.5 99.5 c 128,-1,34
 179 138 179 138 179 200 c 2,35,-1
 196 781 l 1,36,-1
 114 781 l 2,37,38
 62 781 62 781 62 831 c 0,39,40
 62 882 62 882 114 882 c 2,41,-1
 199 882 l 1,42,43
 199 933 199 933 197.5 967.5 c 128,-1,44
 196 1002 196 1002 192.5 1030 c 128,-1,45
 189 1058 189 1058 183.5 1084 c 128,-1,46
 178 1110 178 1110 171 1142 c 1,47,-1
 168 1142 l 1,0,1
EndSplineSet
EndChar

StartChar: h
Encoding: 104 104 59
Width: 960
GlyphClass: 1
Flags: W
LayerCount: 2
Fore
SplineSet
66 1261 m 2,0,1
 14 1261 14 1261 14 1311 c 0,2,3
 14 1362 14 1362 66 1362 c 2,4,-1
 258 1362 l 2,5,6
 309 1362 309 1362 309 1311 c 2,7,-1
 309 817 l 1,8,-1
 350 817 l 1,9,10
 453 903 453 903 567 903 c 2,11,-1
 585 903 l 1,12,13
 732 894 732 894 811.5 810.5 c 128,-1,14
 891 727 891 727 891 555 c 0,15,16
 891 491 891 491 884 437.5 c 128,-1,17
 877 384 877 384 861.5 332 c 128,-1,18
 846 280 846 280 821 225 c 128,-1,19
 796 170 796 170 761 103 c 1,20,-1
 841 103 l 2,21,22
 891 103 891 103 891 53 c 0,23,24
 891 2 891 2 841 2 c 2,25,-1
 672 2 l 2,26,27
 646 2 646 2 632.5 16 c 128,-1,28
 619 30 619 30 619 46 c 0,29,30
 619 51 619 51 621 61 c 128,-1,31
 623 71 623 71 629 84 c 2,32,-1
 630 86 l 1,33,34
 629 85 629 85 629 84 c 1,35,-1
 630 85 l 1,36,-1
 630 86 l 1,37,-1
 631 86 l 1,38,39
 663 145 663 145 693 202 c 128,-1,40
 723 259 723 259 743 313 c 1,41,-1
 744 313 l 1,42,43
 767 380 767 380 778 448.5 c 128,-1,44
 789 517 789 517 790 581 c 1,45,46
 781 686 781 686 731.5 740 c 128,-1,47
 682 794 682 794 575 802 c 1,48,-1
 567 802 l 2,49,50
 516 802 516 802 469 775 c 128,-1,51
 422 748 422 748 386.5 702 c 128,-1,52
 351 656 351 656 330 596.5 c 128,-1,53
 309 537 309 537 309 471 c 2,54,-1
 309 103 l 1,55,-1
 375 103 l 2,56,57
 425 103 425 103 425 53 c 0,58,59
 425 2 425 2 375 2 c 2,60,-1
 114 2 l 2,61,62
 62 2 62 2 62 53 c 0,63,64
 62 103 62 103 114 103 c 2,65,-1
 206 103 l 1,66,-1
 206 1261 l 1,67,-1
 66 1261 l 2,0,1
EndSplineSet
EndChar

StartChar: c
Encoding: 99 99 60
Width: 925
GlyphClass: 1
Flags: W
LayerCount: 2
Fore
SplineSet
632 897 m 1,0,1
 634 917 634 917 649 935.5 c 128,-1,2
 664 954 664 954 693 954 c 0,3,4
 716 954 716 954 734 919 c 2,5,-1
 830 731 l 1,6,-1
 831 731 l 1,7,8
 833 727 833 727 833 709 c 0,9,10
 833 692 833 692 816.5 677.5 c 128,-1,11
 800 663 800 663 771 663 c 0,12,13
 750 663 750 663 731 697 c 0,14,15
 697 757 697 757 638.5 784.5 c 128,-1,16
 580 812 580 812 507 812 c 0,17,18
 435 812 435 812 378 786 c 128,-1,19
 321 760 321 760 280 713 c 128,-1,20
 239 666 239 666 212.5 598.5 c 128,-1,21
 186 531 186 531 176 449 c 1,22,23
 177 384 177 384 202.5 320.5 c 128,-1,24
 228 257 228 257 270 206 c 128,-1,25
 312 155 312 155 366.5 121.5 c 128,-1,26
 421 88 421 88 480 84 c 1,27,-1
 494 84 l 1,28,29
 583 90 583 90 644 129 c 128,-1,30
 705 168 705 168 734 240 c 0,31,32
 751 278 751 278 775 278 c 0,33,34
 807 278 807 278 821.5 265 c 128,-1,35
 836 252 836 252 836 233 c 2,36,-1
 836 223 l 2,37,38
 834 219 834 219 833.5 217 c 128,-1,39
 833 215 833 215 833 210 c 0,40,41
 795 109 795 109 708.5 50.5 c 128,-1,42
 622 -8 622 -8 501 -16 c 1,43,-1
 477 -16 l 2,44,45
 392 -16 392 -16 318.5 22.5 c 128,-1,46
 245 61 245 61 190.5 125.5 c 128,-1,47
 136 190 136 190 105 274.5 c 128,-1,48
 74 359 74 359 74 451 c 2,49,-1
 74 456 l 1,50,51
 95 675 95 675 207 794 c 128,-1,52
 319 913 319 913 514 913 c 0,53,54
 558 913 558 913 602 904 c 2,55,-1
 632 897 l 1,0,1
EndSplineSet
EndChar

StartChar: a
Encoding: 97 97 61
Width: 1050
GlyphClass: 1
Flags: W
LayerCount: 2
Fore
SplineSet
748 443 m 2,0,1
 748 491 748 491 684 522 c 128,-1,2
 620 553 620 553 487 553 c 0,3,4
 448 553 448 553 395 538 c 128,-1,5
 342 523 342 523 293.5 492 c 128,-1,6
 245 461 245 461 211 413 c 128,-1,7
 177 365 177 365 177 299 c 0,8,9
 177 190 177 190 244.5 128.5 c 128,-1,10
 312 67 312 67 444 67 c 0,11,12
 498 67 498 67 548.5 78.5 c 128,-1,13
 599 90 599 90 640.5 110 c 128,-1,14
 682 130 682 130 710 156 c 128,-1,15
 738 182 738 182 747 212 c 1,16,-1
 748 212 l 1,17,-1
 748 443 l 2,0,1
501 654 m 1,18,19
 617 648 617 648 715 616 c 1,20,-1
 748 616 l 1,21,-1
 748 654 l 2,22,23
 748 684 748 684 733 711 c 128,-1,24
 718 738 718 738 689.5 758.5 c 128,-1,25
 661 779 661 779 621 791.5 c 128,-1,26
 581 804 581 804 531 804 c 0,27,28
 443 804 443 804 375 767.5 c 128,-1,29
 307 731 307 731 264 668 c 0,30,31
 242 637 242 637 225 637 c 0,32,33
 197 637 197 637 180 653 c 128,-1,34
 163 669 163 669 163 684 c 0,35,36
 163 705 163 705 168 712 c 1,37,-1
 169 712 l 1,38,39
 232 803 232 803 325 854 c 128,-1,40
 418 905 418 905 529 905 c 0,41,42
 598 905 598 905 656.5 885 c 128,-1,43
 715 865 715 865 758.5 831 c 128,-1,44
 802 797 802 797 826.5 751 c 128,-1,45
 851 705 851 705 851 654 c 2,46,-1
 851 293 l 1,47,-1
 852 293 l 1,48,49
 857 271 857 271 857 245 c 256,50,51
 857 219 857 219 852 201 c 1,52,-1
 851 201 l 1,53,-1
 851 103 l 1,54,-1
 925 103 l 2,55,56
 977 103 977 103 977 53 c 0,57,58
 977 2 977 2 925 2 c 2,59,-1
 799 2 l 2,60,61
 765 2 765 2 750 36 c 1,62,-1
 716 36 l 1,63,64
 581 -33 581 -33 441 -33 c 0,65,66
 369 -33 369 -33 303 -13.5 c 128,-1,67
 237 6 237 6 186.5 48 c 128,-1,68
 136 90 136 90 106 155 c 128,-1,69
 76 220 76 220 76 311 c 0,70,71
 76 376 76 376 99.5 427 c 128,-1,72
 123 478 123 478 160.5 516 c 128,-1,73
 198 554 198 554 244.5 580.5 c 128,-1,74
 291 607 291 607 337.5 623.5 c 128,-1,75
 384 640 384 640 425 647.5 c 128,-1,76
 466 655 466 655 493 655 c 0,77,78
 495 655 495 655 496 654.5 c 128,-1,79
 497 654 497 654 499 654 c 2,80,-1
 501 654 l 1,18,19
EndSplineSet
EndChar

StartChar: ydieresis
Encoding: 255 255 62
Width: 618
GlyphClass: 1
Flags: W
LayerCount: 2
Fore
SplineSet
456 1329 m 2,0,1
 474 1355 474 1355 487 1355 c 0,2,3
 509 1355 509 1355 521.5 1341.5 c 128,-1,4
 534 1328 534 1328 534 1315 c 0,5,6
 534 1303 534 1303 527 1289 c 2,7,-1
 358 1043 l 2,8,9
 340 1016 340 1016 328 1016 c 0,10,11
 308 1016 308 1016 294 1028.5 c 128,-1,12
 280 1041 280 1041 280 1055 c 0,13,14
 280 1070 280 1070 285 1078 c 2,15,-1
 456 1329 l 2,0,1
257 1329 m 2,16,17
 275 1355 275 1355 288 1355 c 0,18,19
 310 1355 310 1355 322.5 1341.5 c 128,-1,20
 335 1328 335 1328 335 1315 c 0,21,22
 335 1305 335 1305 327 1289 c 2,23,-1
 160 1043 l 2,24,25
 141 1016 141 1016 130 1016 c 0,26,27
 110 1016 110 1016 96.5 1028.5 c 128,-1,28
 83 1041 83 1041 83 1055 c 0,29,30
 83 1068 83 1068 91 1084 c 2,31,-1
 257 1329 l 2,16,17
EndSplineSet
EndChar

StartChar: m
Encoding: 109 109 63
Width: 1573
GlyphClass: 1
Flags: W
LayerCount: 2
Fore
SplineSet
135 781 m 2,0,1
 83 781 83 781 83 831 c 0,2,3
 83 882 83 882 135 882 c 2,4,-1
 270 882 l 2,5,6
 292 882 292 882 308 864 c 128,-1,7
 324 846 324 846 323 817 c 1,8,-1
 356 836 l 1,9,10
 423 868 423 868 479 881.5 c 128,-1,11
 535 895 535 895 597 895 c 0,12,13
 678 895 678 895 747 865.5 c 128,-1,14
 816 836 816 836 861 791 c 1,15,-1
 874 773 l 1,16,17
 906 807 906 807 943 830.5 c 128,-1,18
 980 854 980 854 1019 868.5 c 128,-1,19
 1058 883 1058 883 1096.5 889 c 128,-1,20
 1135 895 1135 895 1170 895 c 0,21,22
 1238 895 1238 895 1292.5 875.5 c 128,-1,23
 1347 856 1347 856 1385.5 819.5 c 128,-1,24
 1424 783 1424 783 1445 731 c 128,-1,25
 1466 679 1466 679 1466 613 c 0,26,27
 1466 515 1466 515 1427.5 390.5 c 128,-1,28
 1389 266 1389 266 1312 103 c 1,29,-1
 1392 103 l 2,30,31
 1443 103 1443 103 1443 53 c 0,32,33
 1443 2 1443 2 1392 2 c 2,34,-1
 1230 2 l 2,35,36
 1204 2 1204 2 1190.5 17 c 128,-1,37
 1177 32 1177 32 1177 47 c 0,38,39
 1177 65 1177 65 1179 69 c 1,40,-1
 1180 69 l 1,41,42
 1267 242 1267 242 1315.5 379.5 c 128,-1,43
 1364 517 1364 517 1364 614 c 0,44,45
 1364 651 1364 651 1354 684 c 128,-1,46
 1344 717 1344 717 1321 741.5 c 128,-1,47
 1298 766 1298 766 1261.5 780 c 128,-1,48
 1225 794 1225 794 1173 794 c 0,49,50
 1095 794 1095 794 1031.5 762.5 c 128,-1,51
 968 731 968 731 920 671 c 2,52,-1
 917 667 l 1,53,54
 922 646 922 646 924 624.5 c 128,-1,55
 926 603 926 603 926 574 c 0,56,57
 926 467 926 467 885 348.5 c 128,-1,58
 844 230 844 230 769 103 c 1,59,-1
 838 103 l 2,60,61
 890 103 890 103 890 53 c 0,62,63
 890 2 890 2 838 2 c 2,64,-1
 676 2 l 2,65,66
 649 2 649 2 635.5 17.5 c 128,-1,67
 622 33 622 33 622 47 c 0,68,69
 622 66 622 66 627 73 c 1,70,-1
 628 73 l 1,71,72
 727 225 727 225 775 350.5 c 128,-1,73
 823 476 823 476 823 576 c 0,74,75
 823 620 823 620 813 659.5 c 128,-1,76
 803 699 803 699 777.5 729 c 128,-1,77
 752 759 752 759 707.5 776.5 c 128,-1,78
 663 794 663 794 594 794 c 0,79,80
 516 794 516 794 447.5 767.5 c 128,-1,81
 379 741 379 741 328 690 c 1,82,-1
 321 678 l 1,83,-1
 321 103 l 1,84,-1
 396 103 l 2,85,86
 447 103 447 103 447 53 c 0,87,88
 447 2 447 2 396 2 c 2,89,-1
 175 2 l 2,90,91
 124 2 124 2 124 53 c 0,92,93
 124 103 124 103 175 103 c 2,94,-1
 218 103 l 1,95,-1
 218 781 l 1,96,-1
 135 781 l 2,0,1
EndSplineSet
EndChar

StartChar: z
Encoding: 122 122 64
Width: 985
GlyphClass: 1
Flags: W
LayerCount: 2
Fore
SplineSet
403 882 m 1,0,-1
 846 882 l 2,1,2
 897 882 897 882 897 831 c 0,3,4
 897 810 897 810 891 803 c 2,5,-1
 257 103 l 1,6,-1
 684 103 l 1,7,8
 713 129 713 129 743.5 156 c 128,-1,9
 774 183 774 183 803 209 c 0,10,11
 826 231 826 231 843 231 c 0,12,13
 858 231 858 231 883 215 c 1,14,-1
 885 215 l 1,15,16
 899 207 899 207 899 181 c 0,17,18
 899 161 899 161 895 157 c 1,19,-1
 894 157 l 1,20,21
 863 112 863 112 831.5 66 c 128,-1,22
 800 20 800 20 769 -25 c 0,23,24
 745 -56 745 -56 727 -56 c 0,25,26
 706 -56 706 -56 691.5 -46 c 128,-1,27
 677 -36 677 -36 672 -21 c 2,28,-1
 667 2 l 1,29,-1
 142 2 l 2,30,31
 117 2 117 2 102.5 18 c 128,-1,32
 88 34 88 34 88 49 c 0,33,34
 88 71 88 71 95 79 c 2,35,-1
 731 781 l 1,36,-1
 426 781 l 1,37,-1
 216 658 l 2,38,39
 204 651 204 651 194.5 647 c 128,-1,40
 185 643 185 643 180 643 c 0,41,42
 169 643 169 643 159 647.5 c 128,-1,43
 149 652 149 652 140.5 659.5 c 128,-1,44
 132 667 132 667 127 675 c 128,-1,45
 122 683 122 683 122 691 c 0,46,47
 122 712 122 712 134 724 c 2,48,-1
 305 891 l 1,49,-1
 306 891 l 1,50,51
 315 900 315 900 330.5 907.5 c 128,-1,52
 346 915 346 915 357 915 c 0,53,54
 373 915 373 915 397 887 c 1,55,-1
 403 882 l 1,0,-1
EndSplineSet
EndChar

StartChar: l
Encoding: 108 108 65
Width: 492
GlyphClass: 1
Flags: W
LayerCount: 2
Fore
SplineSet
124 1252 m 2,0,1
 73 1252 73 1252 73 1302 c 0,2,3
 73 1353 73 1353 124 1353 c 2,4,-1
 250 1353 l 2,5,6
 302 1353 302 1353 302 1302 c 2,7,-1
 297 103 l 1,8,-1
 378 103 l 2,9,10
 429 103 429 103 429 53 c 0,11,12
 429 2 429 2 378 2 c 2,13,-1
 121 2 l 2,14,15
 70 2 70 2 70 53 c 0,16,17
 70 103 70 103 121 103 c 2,18,-1
 196 103 l 1,19,-1
 196 1252 l 1,20,-1
 124 1252 l 2,0,1
EndSplineSet
EndChar

StartChar: A
Encoding: 65 65 66
Width: 1573
GlyphClass: 1
Flags: W
LayerCount: 2
Fore
SplineSet
173 103 m 1,0,1
 304 394 304 394 434.5 682 c 128,-1,2
 565 970 565 970 696 1261 c 1,3,-1
 622 1261 l 2,4,5
 571 1261 571 1261 571 1311 c 0,6,7
 571 1362 571 1362 622 1362 c 2,8,-1
 1074 1362 l 2,9,10
 1125 1362 1125 1362 1125 1311 c 0,11,12
 1125 1261 1125 1261 1074 1261 c 2,13,-1
 994 1261 l 1,14,15
 1076 1015 1076 1015 1156.5 774.5 c 128,-1,16
 1237 534 1237 534 1319 288 c 0,17,18
 1321 280 1321 280 1323 279 c 2,19,-1
 1381 103 l 1,20,-1
 1452 103 l 2,21,22
 1503 103 1503 103 1503 53 c 0,23,24
 1503 2 1503 2 1452 2 c 2,25,-1
 1168 2 l 2,26,27
 1117 2 1117 2 1117 53 c 0,28,29
 1117 103 1117 103 1168 103 c 2,30,-1
 1275 103 l 1,31,32
 1266 131 1266 131 1256 159 c 128,-1,33
 1246 187 1246 187 1237 215 c 1,34,-1
 338 215 l 1,35,36
 325 187 325 187 312 159 c 128,-1,37
 299 131 299 131 286 103 c 1,38,-1
 333 103 l 2,39,40
 384 103 384 103 384 53 c 0,41,42
 384 2 384 2 333 2 c 2,43,-1
 117 2 l 2,44,45
 65 2 65 2 65 53 c 0,46,47
 65 103 65 103 117 103 c 2,48,-1
 173 103 l 1,0,1
383 319 m 1,49,-1
 1203 319 l 1,50,-1
 888 1261 l 1,51,-1
 809 1261 l 1,52,-1
 383 319 l 1,49,-1
EndSplineSet
EndChar

StartChar: W
Encoding: 87 87 67
Width: 1732
GlyphClass: 1
Flags: W
LayerCount: 2
Fore
SplineSet
117 1261 m 2,0,1
 65 1261 65 1261 65 1311 c 0,2,3
 65 1362 65 1362 117 1362 c 2,4,-1
 469 1362 l 2,5,6
 521 1362 521 1362 521 1311 c 0,7,8
 521 1261 521 1261 469 1261 c 2,9,-1
 367 1261 l 1,10,-1
 760 217 l 1,11,-1
 991 1049 l 2,12,13
 1005 1090 1005 1090 1036 1090 c 0,14,15
 1081 1090 1081 1090 1093 1048 c 2,16,-1
 1297 227 l 1,17,18
 1352 375 1352 375 1402 510.5 c 128,-1,19
 1452 646 1452 646 1499 773 c 128,-1,20
 1546 900 1546 900 1590.5 1020.5 c 128,-1,21
 1635 1141 1635 1141 1679 1261 c 1,22,-1
 1575 1261 l 2,23,24
 1523 1261 1523 1261 1523 1311 c 0,25,26
 1523 1362 1523 1362 1575 1362 c 2,27,-1
 1932 1362 l 2,28,29
 1982 1362 1982 1362 1982 1311 c 0,30,31
 1982 1261 1982 1261 1932 1261 c 2,32,-1
 1789 1261 l 1,33,34
 1677 955 1677 955 1564.5 652 c 128,-1,35
 1452 349 1452 349 1340 43 c 1,36,-1
 1339 43 l 1,37,38
 1327 2 1327 2 1282 2 c 0,39,40
 1249 2 1249 2 1239 44 c 2,41,-1
 1039 839 l 1,42,-1
 820 46 l 2,43,44
 814 26 814 26 799.5 13.5 c 128,-1,45
 785 1 785 1 762 1 c 0,46,47
 731 1 731 1 718 40 c 1,48,-1
 717 40 l 1,49,50
 602 347 602 347 487 650.5 c 128,-1,51
 372 954 372 954 257 1261 c 1,52,-1
 117 1261 l 2,0,1
EndSplineSet
EndChar

StartChar: w
Encoding: 119 119 68
Width: 1632
GlyphClass: 1
Flags: W
LayerCount: 2
Fore
SplineSet
393 882 m 2,0,1
 444 882 444 882 444 831 c 0,2,3
 444 781 444 781 393 781 c 2,4,-1
 335 781 l 1,5,6
 365 713 365 713 399 637.5 c 128,-1,7
 433 562 433 562 468 484 c 128,-1,8
 503 406 503 406 537 330 c 128,-1,9
 571 254 571 254 601 187 c 1,10,11
 630 258 630 258 655 320.5 c 128,-1,12
 680 383 680 383 702.5 440 c 128,-1,13
 725 497 725 497 745.5 549.5 c 128,-1,14
 766 602 766 602 786 653 c 1,15,-1
 787 653 l 1,16,17
 801 691 801 691 829 691 c 0,18,19
 870 691 870 691 888 651 c 2,20,-1
 1048 191 l 1,21,-1
 1290 781 l 1,22,-1
 1224 781 l 2,23,24
 1172 781 1172 781 1172 831 c 0,25,26
 1172 882 1172 882 1224 882 c 2,27,-1
 1512 882 l 2,28,29
 1563 882 1563 882 1563 831 c 0,30,31
 1563 781 1563 781 1512 781 c 2,32,-1
 1402 781 l 1,33,34
 1327 595 1327 595 1251 410 c 128,-1,35
 1175 225 1175 225 1100 39 c 0,36,37
 1092 24 1092 24 1077 12.5 c 128,-1,38
 1062 1 1062 1 1045 1 c 0,39,40
 1014 1 1014 1 1000 41 c 2,41,-1
 834 495 l 1,42,-1
 658 43 l 1,43,-1
 657 43 l 1,44,45
 652 25 652 25 637 13 c 128,-1,46
 622 1 622 1 600 1 c 0,47,48
 572 1 572 1 557 38 c 0,49,50
 474 222 474 222 389.5 409.5 c 128,-1,51
 305 597 305 597 222 781 c 1,52,-1
 118 781 l 2,53,54
 67 781 67 781 67 831 c 0,55,56
 67 882 67 882 118 882 c 2,57,-1
 393 882 l 2,0,1
EndSplineSet
EndChar

StartChar: N
Encoding: 78 78 69
Width: 1704
GlyphClass: 1
Flags: W
LayerCount: 2
Fore
SplineSet
132 1261 m 2,0,1
 80 1261 80 1261 80 1311 c 0,2,3
 80 1362 80 1362 132 1362 c 2,4,-1
 345 1362 l 2,5,6
 387 1362 387 1362 396 1316 c 0,7,8
 419 1192 419 1192 554 1099 c 128,-1,9
 689 1006 689 1006 930 946 c 0,10,11
 1155 888 1155 888 1299 768 c 1,12,-1
 1340 768 l 1,13,-1
 1340 1261 l 1,14,-1
 1212 1261 l 2,15,16
 1160 1261 1160 1261 1160 1311 c 0,17,18
 1160 1362 1160 1362 1212 1362 c 2,19,-1
 1570 1362 l 2,20,21
 1622 1362 1622 1362 1622 1311 c 0,22,23
 1622 1261 1622 1261 1570 1261 c 2,24,-1
 1442 1261 l 1,25,-1
 1442 103 l 1,26,-1
 1570 103 l 2,27,28
 1622 103 1622 103 1622 53 c 0,29,30
 1622 2 1622 2 1570 2 c 2,31,-1
 1212 2 l 2,32,33
 1160 2 1160 2 1160 53 c 0,34,35
 1160 103 1160 103 1212 103 c 2,36,-1
 1340 103 l 1,37,-1
 1340 474 l 2,38,39
 1340 536 1340 536 1309.5 592.5 c 128,-1,40
 1279 649 1279 649 1221.5 697 c 128,-1,41
 1164 745 1164 745 1080 784.5 c 128,-1,42
 996 824 996 824 889 851 c 0,43,44
 745 888 745 888 630 940 c 128,-1,45
 515 992 515 992 438 1064 c 1,46,-1
 396 1064 l 1,47,48
 396 823 396 823 397 583.5 c 128,-1,49
 398 344 398 344 398 103 c 1,50,-1
 526 103 l 2,51,52
 578 103 578 103 578 53 c 0,53,54
 578 2 578 2 526 2 c 2,55,-1
 168 2 l 2,56,57
 116 2 116 2 116 53 c 0,58,59
 116 103 116 103 168 103 c 2,60,-1
 296 103 l 1,61,-1
 296 1261 l 1,62,-1
 132 1261 l 2,0,1
EndSplineSet
EndChar

StartChar: Q
Encoding: 81 81 70
Width: 1642
GlyphClass: 1
Flags: W
LayerCount: 2
Fore
SplineSet
428 176 m 1,0,1
 435 218 435 218 458 251 c 128,-1,2
 481 284 481 284 514 306.5 c 128,-1,3
 547 329 547 329 586.5 341 c 128,-1,4
 626 353 626 353 667 353 c 0,5,6
 733 353 733 353 781.5 333 c 128,-1,7
 830 313 830 313 868 280 c 128,-1,8
 906 247 906 247 936 205.5 c 128,-1,9
 966 164 966 164 994 121 c 1,10,-1
 1024 121 l 1,11,12
 1121 160 1121 160 1199 220.5 c 128,-1,13
 1277 281 1277 281 1333 355.5 c 128,-1,14
 1389 430 1389 430 1422 515 c 128,-1,15
 1455 600 1455 600 1462 687 c 1,16,-1
 1462 722 l 2,17,18
 1462 836 1462 836 1417 938 c 128,-1,19
 1372 1040 1372 1040 1292.5 1118 c 128,-1,20
 1213 1196 1213 1196 1105 1243 c 128,-1,21
 997 1290 997 1290 872 1294 c 1,22,-1
 855 1294 l 2,23,24
 760 1294 760 1294 672.5 1269.5 c 128,-1,25
 585 1245 585 1245 509 1201 c 128,-1,26
 433 1157 433 1157 370.5 1096 c 128,-1,27
 308 1035 308 1035 264 963.5 c 128,-1,28
 220 892 220 892 195.5 812 c 128,-1,29
 171 732 171 732 171 649 c 0,30,31
 171 520 171 520 226 403.5 c 128,-1,32
 281 287 281 287 397 202 c 1,33,-1
 428 176 l 1,0,1
1053 27 m 1,34,35
 1075 -7 1075 -7 1102 -38 c 128,-1,36
 1129 -69 1129 -69 1166 -93 c 128,-1,37
 1203 -117 1203 -117 1251 -131.5 c 128,-1,38
 1299 -146 1299 -146 1362 -146 c 0,39,40
 1413 -146 1413 -146 1413 -197 c 256,41,42
 1413 -248 1413 -248 1362 -248 c 0,43,44
 1278 -248 1278 -248 1215 -228 c 128,-1,45
 1152 -208 1152 -208 1104 -175 c 128,-1,46
 1056 -142 1056 -142 1020 -99 c 128,-1,47
 984 -56 984 -56 954 -10 c 1,48,-1
 929 -10 l 1,49,50
 887 -17 887 -17 849.5 -20.5 c 128,-1,51
 812 -24 812 -24 780 -24 c 2,52,-1
 757 -24 l 2,53,54
 658 -21 658 -21 568.5 5 c 128,-1,55
 479 31 479 31 402.5 75.5 c 128,-1,56
 326 120 326 120 264.5 181.5 c 128,-1,57
 203 243 203 243 160 316.5 c 128,-1,58
 117 390 117 390 93.5 474.5 c 128,-1,59
 70 559 70 559 70 649 c 0,60,61
 70 812 70 812 129.5 942.5 c 128,-1,62
 189 1073 189 1073 308 1182 c 0,63,64
 543 1396 543 1396 855 1396 c 0,65,66
 954 1396 954 1396 1045.5 1372 c 128,-1,67
 1137 1348 1137 1348 1216 1303.5 c 128,-1,68
 1295 1259 1295 1259 1359.5 1197.5 c 128,-1,69
 1424 1136 1424 1136 1469.5 1061 c 128,-1,70
 1515 986 1515 986 1540 900 c 128,-1,71
 1565 814 1565 814 1565 722 c 0,72,73
 1565 609 1565 609 1529 501.5 c 128,-1,74
 1493 394 1493 394 1427.5 302.5 c 128,-1,75
 1362 211 1362 211 1270 139.5 c 128,-1,76
 1178 68 1178 68 1065 27 c 1,77,-1
 1053 27 l 1,34,35
895 84 m 1,78,79
 874 117 874 117 851 147 c 128,-1,80
 828 177 828 177 801 200 c 128,-1,81
 774 223 774 223 741 237 c 128,-1,82
 708 251 708 251 667 251 c 0,83,84
 635 251 635 251 610.5 243 c 128,-1,85
 586 235 586 235 569 222.5 c 128,-1,86
 552 210 552 210 543 194.5 c 128,-1,87
 534 179 534 179 534 164 c 2,88,-1
 534 127 l 2,89,90
 534 122 534 122 555 114 c 128,-1,91
 576 106 576 106 609 98 c 128,-1,92
 642 90 642 90 682.5 84 c 128,-1,93
 723 78 723 78 762 77 c 2,94,-1
 780 77 l 2,95,96
 841 77 841 77 879 84 c 1,97,-1
 895 84 l 1,78,79
EndSplineSet
EndChar

StartChar: Z
Encoding: 90 90 71
Width: 1621
GlyphClass: 1
Flags: W
LayerCount: 2
Fore
SplineSet
370 1364 m 1,0,-1
 371 1364 l 1,1,2
 393 1392 393 1392 409 1392 c 0,3,4
 423 1392 423 1392 439 1384 c 128,-1,5
 455 1376 455 1376 466 1360 c 1,6,-1
 486 1360 l 2,7,8
 488 1360 488 1360 489 1360.5 c 128,-1,9
 490 1361 490 1361 492 1361 c 2,10,-1
 497 1361 l 2,11,12
 502 1362 502 1362 504 1362 c 2,13,-1
 1360 1362 l 2,14,15
 1412 1362 1412 1362 1412 1311 c 0,16,17
 1412 1287 1412 1287 1405 1281 c 1,18,-1
 1404 1281 l 1,19,20
 1118 985 1118 985 835.5 692 c 128,-1,21
 553 399 553 399 267 103 c 1,22,-1
 1153 103 l 1,23,24
 1225 156 1225 156 1296.5 208 c 128,-1,25
 1368 260 1368 260 1440 313 c 0,26,27
 1451 321 1451 321 1461 326 c 128,-1,28
 1471 331 1471 331 1479 331 c 0,29,30
 1493 331 1493 331 1518 315 c 1,31,-1
 1519 315 l 1,32,33
 1533 307 1533 307 1533 280 c 0,34,35
 1533 260 1533 260 1527 253 c 0,36,37
 1464 181 1464 181 1399.5 105 c 128,-1,38
 1335 29 1335 29 1272 -43 c 0,39,40
 1261 -56 1261 -56 1251 -63.5 c 128,-1,41
 1241 -71 1241 -71 1233 -71 c 0,42,43
 1210 -71 1210 -71 1191 -55.5 c 128,-1,44
 1172 -40 1172 -40 1172 -23 c 256,45,46
 1172 -6 1172 -6 1177 2 c 1,47,-1
 147 2 l 2,48,49
 123 2 123 2 107.5 17.5 c 128,-1,50
 92 33 92 33 92 49 c 0,51,52
 92 50 92 50 92.5 53 c 128,-1,53
 93 56 93 56 93 57 c 0,54,55
 95 63 95 63 98.5 71 c 128,-1,56
 102 79 102 79 112 92 c 2,57,-1
 1239 1261 l 1,58,-1
 522 1261 l 1,59,60
 459 1216 459 1216 395 1170.5 c 128,-1,61
 331 1125 331 1125 268 1080 c 0,62,63
 242 1062 242 1062 231 1062 c 0,64,65
 206 1062 206 1062 189.5 1077.5 c 128,-1,66
 173 1093 173 1093 173 1108 c 0,67,68
 173 1128 173 1128 181 1138 c 2,69,-1
 370 1364 l 1,0,-1
EndSplineSet
EndChar

StartChar: Y
Encoding: 89 89 72
Width: 1900
GlyphClass: 1
Flags: W
LayerCount: 2
Fore
SplineSet
1473 1261 m 2,0,1
 1421 1261 1421 1261 1421 1311 c 0,2,3
 1421 1362 1421 1362 1473 1362 c 2,4,-1
 1789 1362 l 2,5,6
 1841 1362 1841 1362 1841 1311 c 0,7,8
 1841 1261 1841 1261 1789 1261 c 2,9,-1
 1612 1261 l 1,10,11
 1518 1057 1518 1057 1423 849.5 c 128,-1,12
 1328 642 1328 642 1234 438 c 0,13,14
 1233 437 1233 437 1232 434 c 1,15,-1
 1233 435 l 1,16,-1
 1193 350 l 1,17,-1
 1191 350 l 1,18,19
 1191 345 1191 345 1192 344 c 0,20,21
 998 0 998 0 663 0 c 0,22,23
 546 0 546 0 469.5 46 c 128,-1,24
 393 92 393 92 363 183 c 1,25,-1
 362 183 l 1,26,27
 357 194 357 194 355 206 c 128,-1,28
 353 218 353 218 353 235 c 0,29,30
 353 261 353 261 363 286 c 128,-1,31
 373 311 373 311 392 331 c 128,-1,32
 411 351 411 351 438.5 363 c 128,-1,33
 466 375 466 375 502 375 c 0,34,35
 555 375 555 375 581.5 346.5 c 128,-1,36
 608 318 608 318 608 276 c 0,37,38
 608 253 608 253 601 230.5 c 128,-1,39
 594 208 594 208 583 188 c 128,-1,40
 572 168 572 168 558.5 152.5 c 128,-1,41
 545 137 545 137 533 128 c 1,42,-1
 531 128 l 1,43,44
 548 114 548 114 584 107.5 c 128,-1,45
 620 101 620 101 660 101 c 0,46,47
 735 101 735 101 798 119.5 c 128,-1,48
 861 138 861 138 914.5 173.5 c 128,-1,49
 968 209 968 209 1012.5 261.5 c 128,-1,50
 1057 314 1057 314 1096 382 c 1,51,-1
 1097 382 l 1,52,53
 1099 388 1099 388 1102 394.5 c 128,-1,54
 1105 401 1105 401 1107 407 c 1,55,-1
 699 407 l 2,56,57
 663 407 663 407 648 444 c 1,58,-1
 647 444 l 1,59,60
 546 649 546 649 445.5 852.5 c 128,-1,61
 345 1056 345 1056 244 1261 c 1,62,-1
 124 1261 l 2,63,64
 73 1261 73 1261 73 1311 c 0,65,66
 73 1362 73 1362 124 1362 c 2,67,-1
 429 1362 l 2,68,69
 480 1362 480 1362 480 1311 c 0,70,71
 480 1261 480 1261 429 1261 c 2,72,-1
 359 1261 l 1,73,74
 453 1072 453 1072 545.5 885 c 128,-1,75
 638 698 638 698 732 509 c 1,76,-1
 1154 509 l 1,77,78
 1241 698 1241 698 1326.5 885 c 128,-1,79
 1412 1072 1412 1072 1499 1261 c 1,80,-1
 1473 1261 l 2,0,1
EndSplineSet
EndChar

StartChar: parenleft
Encoding: 40 40 73
Width: 642
GlyphClass: 1
Flags: W
LayerCount: 2
Fore
SplineSet
441 1588 m 0,0,1
 462 1617 462 1617 478 1617 c 0,2,3
 504 1617 504 1617 520 1601.5 c 128,-1,4
 536 1586 536 1586 536 1571 c 0,5,6
 536 1561 536 1561 534 1555 c 128,-1,7
 532 1549 532 1549 530 1545 c 0,8,9
 373 1328 373 1328 294 1108.5 c 128,-1,10
 215 889 215 889 213 681 c 1,11,12
 217 582 217 582 241 475.5 c 128,-1,13
 265 369 265 369 308 260.5 c 128,-1,14
 351 152 351 152 411.5 44 c 128,-1,15
 472 -64 472 -64 548 -167 c 0,16,17
 554 -175 554 -175 554 -193 c 0,18,19
 554 -208 554 -208 537.5 -223.5 c 128,-1,20
 521 -239 521 -239 495 -239 c 0,21,22
 487 -239 487 -239 478.5 -232 c 128,-1,23
 470 -225 470 -225 458 -211 c 0,24,25
 374 -102 374 -102 302 8 c 128,-1,26
 230 118 230 118 177 229 c 128,-1,27
 124 340 124 340 94 453 c 128,-1,28
 64 566 64 566 64 682 c 0,29,30
 64 797 64 797 92.5 911 c 128,-1,31
 121 1025 121 1025 171 1138 c 128,-1,32
 221 1251 221 1251 290.5 1363.5 c 128,-1,33
 360 1476 360 1476 441 1588 c 0,0,1
EndSplineSet
EndChar

StartChar: parenright
Encoding: 41 41 74
Width: 642
GlyphClass: 1
Flags: W
LayerCount: 2
Fore
SplineSet
200 1588 m 0,0,1
 282 1476 282 1476 351.5 1363.5 c 128,-1,2
 421 1251 421 1251 471 1137.5 c 128,-1,3
 521 1024 521 1024 549.5 910 c 128,-1,4
 578 796 578 796 578 682 c 0,5,6
 578 567 578 567 547.5 454.5 c 128,-1,7
 517 342 517 342 463.5 231 c 128,-1,8
 410 120 410 120 337.5 9.5 c 128,-1,9
 265 -101 265 -101 182 -211 c 0,10,11
 160 -239 160 -239 145 -239 c 0,12,13
 120 -239 120 -239 104 -223.5 c 128,-1,14
 88 -208 88 -208 88 -193 c 0,15,16
 88 -174 88 -174 93 -167 c 0,17,18
 171 -63 171 -63 232 45 c 128,-1,19
 293 153 293 153 335.5 261 c 128,-1,20
 378 369 378 369 401.5 475 c 128,-1,21
 425 581 425 581 428 681 c 0,22,23
 426 890 426 890 346.5 1109 c 128,-1,24
 267 1328 267 1328 111 1545 c 0,25,26
 106 1552 106 1552 106 1571 c 0,27,28
 106 1586 106 1586 122 1601.5 c 128,-1,29
 138 1617 138 1617 163 1617 c 0,30,31
 179 1617 179 1617 200 1588 c 0,0,1
EndSplineSet
EndChar

StartChar: u
Encoding: 117 117 75
Width: 1177
GlyphClass: 1
Flags: W
LayerCount: 2
Fore
SplineSet
1047 111 m 2,0,1
 1098 111 1098 111 1098 61 c 0,2,3
 1098 10 1098 10 1047 10 c 2,4,-1
 885 10 l 2,5,6
 835 10 835 10 835 61 c 2,7,-1
 835 67 l 1,8,-1
 800 67 l 1,9,10
 647 -3 647 -3 502 -3 c 0,11,12
 413 -3 413 -3 340.5 18 c 128,-1,13
 268 39 268 39 217 79.5 c 128,-1,14
 166 120 166 120 138 179.5 c 128,-1,15
 110 239 110 239 110 316 c 0,16,17
 110 423 110 423 156 541.5 c 128,-1,18
 202 660 202 660 296 789 c 1,19,-1
 205 789 l 2,20,21
 154 789 154 789 154 839 c 256,22,23
 154 889 154 889 205 889 c 2,24,-1
 400 889 l 2,25,26
 426 889 426 889 441 873.5 c 128,-1,27
 456 858 456 858 456 844 c 0,28,29
 456 824 456 824 449 816 c 1,30,-1
 448 816 l 1,31,32
 328 666 328 666 270.5 541 c 128,-1,33
 213 416 213 416 213 316 c 0,34,35
 213 274 213 274 225.5 234.5 c 128,-1,36
 238 195 238 195 269.5 164.5 c 128,-1,37
 301 134 301 134 355.5 116 c 128,-1,38
 410 98 410 98 493 98 c 0,39,40
 588 98 588 98 674 125.5 c 128,-1,41
 760 153 760 153 826 205 c 1,42,-1
 835 205 l 1,43,-1
 835 789 l 1,44,-1
 735 789 l 2,45,46
 683 789 683 789 683 839 c 256,47,48
 683 889 683 889 735 889 c 2,49,-1
 999 889 l 2,50,51
 1050 889 1050 889 1050 839 c 256,52,53
 1050 789 1050 789 999 789 c 2,54,-1
 936 789 l 1,55,-1
 936 111 l 1,56,-1
 1047 111 l 2,0,1
EndSplineSet
EndChar

StartChar: quotedblright
Encoding: 8221 8221 79
Width: 618
GlyphClass: 1
Flags: W
LayerCount: 2
Fore
SplineSet
456 1329 m 2,0,1
 474 1355 474 1355 487 1355 c 0,2,3
 509 1355 509 1355 521.5 1341.5 c 128,-1,4
 534 1328 534 1328 534 1315 c 0,5,6
 534 1303 534 1303 527 1289 c 2,7,-1
 358 1043 l 2,8,9
 340 1016 340 1016 328 1016 c 0,10,11
 308 1016 308 1016 294 1028.5 c 128,-1,12
 280 1041 280 1041 280 1055 c 0,13,14
 280 1070 280 1070 285 1078 c 2,15,-1
 456 1329 l 2,0,1
257 1329 m 2,16,17
 275 1355 275 1355 288 1355 c 0,18,19
 310 1355 310 1355 322.5 1341.5 c 128,-1,20
 335 1328 335 1328 335 1315 c 0,21,22
 335 1305 335 1305 327 1289 c 2,23,-1
 160 1043 l 2,24,25
 141 1016 141 1016 130 1016 c 0,26,27
 110 1016 110 1016 96.5 1028.5 c 128,-1,28
 83 1041 83 1041 83 1055 c 0,29,30
 83 1068 83 1068 91 1084 c 2,31,-1
 257 1329 l 2,16,17
EndSplineSet
EndChar

StartChar: quoteright
Encoding: 8217 8217 80
Width: 397
GlyphClass: 1
Flags: W
LayerCount: 2
Fore
SplineSet
246 1329 m 2,0,1
 264 1355 264 1355 277 1355 c 0,2,3
 299 1355 299 1355 311.5 1341.5 c 128,-1,4
 324 1328 324 1328 324 1315 c 0,5,6
 324 1303 324 1303 317 1289 c 2,7,-1
 150 1043 l 2,8,9
 131 1016 131 1016 120 1016 c 0,10,11
 100 1016 100 1016 86.5 1028.5 c 128,-1,12
 73 1041 73 1041 73 1055 c 0,13,14
 73 1061 73 1061 74.5 1068.5 c 128,-1,15
 76 1076 76 1076 80 1084 c 2,16,-1
 246 1329 l 2,0,1
EndSplineSet
EndChar

StartChar: quotedblleft
Encoding: 8220 8220 81
Width: 618
GlyphClass: 1
Flags: W
LayerCount: 2
Fore
SplineSet
333 1078 m 2,0,1
 338 1070 338 1070 338 1055 c 0,2,3
 338 1041 338 1041 323 1028.5 c 128,-1,4
 308 1016 308 1016 288 1016 c 0,5,6
 278 1016 278 1016 259 1043 c 0,7,8
 217 1104 217 1104 175 1166 c 128,-1,9
 133 1228 133 1228 91 1289 c 0,10,11
 83 1305 83 1305 83 1315 c 0,12,13
 83 1328 83 1328 95.5 1341.5 c 128,-1,14
 108 1355 108 1355 130 1355 c 0,15,16
 142 1355 142 1355 160 1329 c 2,17,-1
 333 1078 l 2,0,1
527 1083 m 2,18,19
 534 1069 534 1069 534 1055 c 256,20,21
 534 1041 534 1041 520.5 1028.5 c 128,-1,22
 507 1016 507 1016 487 1016 c 0,23,24
 476 1016 476 1016 457 1043 c 0,25,26
 415 1104 415 1104 373.5 1166 c 128,-1,27
 332 1228 332 1228 290 1289 c 0,28,29
 283 1303 283 1303 283 1315 c 0,30,31
 283 1328 283 1328 295.5 1341.5 c 128,-1,32
 308 1355 308 1355 330 1355 c 0,33,34
 342 1355 342 1355 360 1329 c 2,35,-1
 527 1083 l 2,18,19
EndSplineSet
EndChar

StartChar: quoteleft
Encoding: 8216 8216 82
Width: 400
GlyphClass: 1
Flags: W
LayerCount: 2
Fore
SplineSet
322 1078 m 2,0,1
 327 1070 327 1070 327 1055 c 0,2,3
 327 1041 327 1041 313 1028.5 c 128,-1,4
 299 1016 299 1016 277 1016 c 0,5,6
 267 1016 267 1016 249 1043 c 0,7,8
 206 1106 206 1106 164.5 1166 c 128,-1,9
 123 1226 123 1226 80 1289 c 0,10,11
 73 1303 73 1303 73 1315 c 0,12,13
 73 1328 73 1328 85.5 1341.5 c 128,-1,14
 98 1355 98 1355 120 1355 c 0,15,16
 132 1355 132 1355 150 1329 c 2,17,-1
 322 1078 l 2,0,1
EndSplineSet
EndChar

StartChar: quotedblbase
Encoding: 8222 8222 83
Width: 618
GlyphClass: 1
Flags: W
LayerCount: 2
Fore
SplineSet
456 216 m 2,0,1
 474 242 474 242 487 242 c 0,2,3
 509 242 509 242 521.5 228.5 c 128,-1,4
 534 215 534 215 534 202 c 0,5,6
 534 190 534 190 527 176 c 2,7,-1
 358 -70 l 2,8,9
 340 -97 340 -97 328 -97 c 0,10,11
 308 -97 308 -97 294 -84.5 c 128,-1,12
 280 -72 280 -72 280 -58 c 0,13,14
 280 -43 280 -43 285 -35 c 2,15,-1
 456 216 l 2,0,1
257 216 m 2,16,17
 275 242 275 242 288 242 c 0,18,19
 310 242 310 242 322.5 228.5 c 128,-1,20
 335 215 335 215 335 202 c 0,21,22
 335 192 335 192 327 176 c 2,23,-1
 160 -70 l 2,24,25
 141 -97 141 -97 130 -97 c 0,26,27
 110 -97 110 -97 96.5 -84.5 c 128,-1,28
 83 -72 83 -72 83 -58 c 0,29,30
 83 -45 83 -45 91 -29 c 2,31,-1
 257 216 l 2,16,17
EndSplineSet
EndChar

StartChar: quotesinglbase
Encoding: 8218 8218 84
Width: 397
GlyphClass: 1
Flags: W
LayerCount: 2
Fore
SplineSet
246 216 m 2,0,1
 264 242 264 242 277 242 c 0,2,3
 299 242 299 242 311.5 228.5 c 128,-1,4
 324 215 324 215 324 202 c 0,5,6
 324 190 324 190 317 176 c 2,7,-1
 150 -70 l 2,8,9
 131 -97 131 -97 120 -97 c 0,10,11
 100 -97 100 -97 86.5 -84.5 c 128,-1,12
 73 -72 73 -72 73 -58 c 0,13,14
 73 -52 73 -52 74.5 -44.5 c 128,-1,15
 76 -37 76 -37 80 -29 c 2,16,-1
 246 216 l 2,0,1
EndSplineSet
EndChar

StartChar: slash
Encoding: 47 47 85
Width: 943
GlyphClass: 1
Flags: W
LayerCount: 2
Fore
SplineSet
809 1499 m 2,0,1
 818 1512 818 1512 831 1512 c 0,2,3
 853 1512 853 1512 865.5 1498.5 c 128,-1,4
 878 1485 878 1485 878 1472 c 0,5,6
 878 1461 878 1461 873 1451 c 1,7,-1
 872 1451 l 1,8,9
 689 1071 689 1071 503.5 685.5 c 128,-1,10
 318 300 318 300 135 -80 c 1,11,12
 121 -97 121 -97 112 -97 c 0,13,14
 92 -97 92 -97 78.5 -84.5 c 128,-1,15
 65 -72 65 -72 65 -58 c 0,16,17
 65 -45 65 -45 70 -35 c 1,18,-1
 71 -35 l 1,19,-1
 809 1499 l 2,0,1
EndSplineSet
EndChar

StartChar: backslash
Encoding: 92 92 86
Width: 943
GlyphClass: 1
Flags: W
LayerCount: 2
Fore
SplineSet
872 -35 m 1,0,-1
 873 -35 l 1,1,2
 878 -45 878 -45 878 -58 c 0,3,4
 878 -72 878 -72 864.5 -84.5 c 128,-1,5
 851 -97 851 -97 831 -97 c 0,6,7
 819 -97 819 -97 809 -82 c 2,8,-1
 71 1451 l 1,9,-1
 70 1451 l 1,10,11
 65 1461 65 1461 65 1472 c 0,12,13
 65 1485 65 1485 77.5 1498.5 c 128,-1,14
 90 1512 90 1512 112 1512 c 0,15,16
 125 1512 125 1512 134 1499 c 2,17,-1
 872 -35 l 1,0,-1
EndSplineSet
EndChar

StartChar: hyphen
Encoding: 45 45 87
Width: 618
GlyphClass: 1
Flags: W
LayerCount: 2
Fore
SplineSet
142 697 m 2,0,1
 121 691 121 691 114 691 c 0,2,3
 102 691 102 691 91 705.5 c 128,-1,4
 80 720 80 720 80 740 c 0,5,6
 80 767 80 767 101 773 c 1,7,-1
 102 773 l 1,8,9
 196 803 196 803 289 833 c 128,-1,10
 382 863 382 863 476 893 c 0,11,12
 484 895 484 895 491 897 c 128,-1,13
 498 899 498 899 501 899 c 0,14,15
 512 899 512 899 523 885.5 c 128,-1,16
 534 872 534 872 534 850 c 0,17,18
 534 824 534 824 514 817 c 2,19,-1
 142 697 l 2,0,1
145 565 m 2,20,21
 124 559 124 559 118 559 c 0,22,23
 105 559 105 559 95 573.5 c 128,-1,24
 85 588 85 588 85 607 c 0,25,26
 85 635 85 635 106 641 c 1,27,-1
 107 641 l 1,28,29
 201 670 201 670 293 700.5 c 128,-1,30
 385 731 385 731 479 760 c 0,31,32
 487 762 487 762 494 764 c 128,-1,33
 501 766 501 766 504 766 c 0,34,35
 516 766 516 766 527.5 752.5 c 128,-1,36
 539 739 539 739 539 717 c 0,37,38
 539 691 539 691 518 684 c 2,39,-1
 145 565 l 2,20,21
EndSplineSet
EndChar

StartChar: Oslash
Encoding: 216 216 91
Width: 1642
GlyphClass: 1
Flags: W
LayerCount: 2
Fore
SplineSet
1154 1495 m 2,0,1
 1166 1512 1166 1512 1179 1512 c 0,2,3
 1201 1512 1201 1512 1213.5 1498.5 c 128,-1,4
 1226 1485 1226 1485 1226 1472 c 0,5,6
 1226 1461 1226 1461 1221 1451 c 1,7,-1
 1220 1451 l 1,8,9
 1206 1421 1206 1421 1191 1390 c 128,-1,10
 1176 1359 1176 1359 1162 1329 c 1,11,-1
 1174 1329 l 1,12,13
 1268 1285 1268 1285 1341.5 1221.5 c 128,-1,14
 1415 1158 1415 1158 1465.5 1079.5 c 128,-1,15
 1516 1001 1516 1001 1542 910 c 128,-1,16
 1568 819 1568 819 1568 722 c 0,17,18
 1568 620 1568 620 1539.5 525.5 c 128,-1,19
 1511 431 1511 431 1459 348 c 128,-1,20
 1407 265 1407 265 1334.5 196.5 c 128,-1,21
 1262 128 1262 128 1175 79 c 128,-1,22
 1088 30 1088 30 988.5 3 c 128,-1,23
 889 -24 889 -24 783 -24 c 2,24,-1
 760 -24 l 2,25,26
 706 -22 706 -22 655 -14 c 128,-1,27
 604 -6 604 -6 555 7 c 1,28,-1
 526 7 l 1,29,30
 517 -12 517 -12 504.5 -36.5 c 128,-1,31
 492 -61 492 -61 483 -80 c 1,32,33
 469 -97 469 -97 460 -97 c 0,34,35
 440 -97 440 -97 426.5 -84.5 c 128,-1,36
 413 -72 413 -72 413 -58 c 0,37,38
 413 -45 413 -45 418 -35 c 1,39,-1
 419 -35 l 1,40,41
 429 -14 429 -14 439 7.5 c 128,-1,42
 449 29 449 29 459 50 c 1,43,-1
 447 50 l 1,44,45
 359 92 359 92 289.5 155 c 128,-1,46
 220 218 220 218 172 296.5 c 128,-1,47
 124 375 124 375 98.5 464.5 c 128,-1,48
 73 554 73 554 73 649 c 0,49,50
 73 812 73 812 132.5 942.5 c 128,-1,51
 192 1073 192 1073 311 1182 c 0,52,53
 546 1396 546 1396 858 1396 c 0,54,55
 909 1396 909 1396 963 1388.5 c 128,-1,56
 1017 1381 1017 1381 1065 1369 c 1,57,-1
 1093 1369 l 1,58,-1
 1154 1495 l 2,0,1
783 77 m 2,59,60
 914 77 914 77 1033 126.5 c 128,-1,61
 1152 176 1152 176 1244.5 260 c 128,-1,62
 1337 344 1337 344 1395.5 454.5 c 128,-1,63
 1454 565 1454 565 1465 687 c 1,64,-1
 1465 722 l 2,65,66
 1465 798 1465 798 1444 871 c 128,-1,67
 1423 944 1423 944 1382.5 1009.5 c 128,-1,68
 1342 1075 1342 1075 1283 1130.5 c 128,-1,69
 1224 1186 1224 1186 1147 1227 c 1,70,-1
 1112 1227 l 1,71,72
 976 945 976 945 842 665.5 c 128,-1,73
 708 386 708 386 572 104 c 1,74,-1
 587 104 l 1,75,76
 668 79 668 79 766 77 c 2,77,-1
 783 77 l 2,59,60
858 1294 m 2,78,79
 763 1294 763 1294 675.5 1269.5 c 128,-1,80
 588 1245 588 1245 512 1201 c 128,-1,81
 436 1157 436 1157 373.5 1096 c 128,-1,82
 311 1035 311 1035 267 963.5 c 128,-1,83
 223 892 223 892 198.5 812 c 128,-1,84
 174 732 174 732 174 649 c 0,85,86
 174 495 174 495 248 368 c 128,-1,87
 322 241 322 241 473 152 c 1,88,-1
 509 152 l 1,89,90
 644 433 644 433 778 711.5 c 128,-1,91
 912 990 912 990 1047 1271 c 1,92,-1
 1030 1271 l 1,93,94
 954 1291 954 1291 875 1294 c 2,95,-1
 858 1294 l 2,78,79
EndSplineSet
EndChar

StartChar: semicolon
Encoding: 59 59 92
Width: 399
GlyphClass: 1
Flags: W
LayerCount: 2
Fore
SplineSet
162 -101 m 1,0,1
 139 -113 139 -113 130 -113 c 0,2,3
 116 -113 116 -113 103.5 -99 c 128,-1,4
 91 -85 91 -85 91 -68 c 256,5,6
 91 -51 91 -51 107.5 -36 c 128,-1,7
 124 -21 124 -21 143 -8 c 0,8,9
 159 3 159 3 172.5 12.5 c 128,-1,10
 186 22 186 22 188 24 c 1,11,-1
 177 24 l 1,12,13
 142 33 142 33 124.5 59 c 128,-1,14
 107 85 107 85 107 117 c 0,15,16
 107 136 107 136 115.5 154 c 128,-1,17
 124 172 124 172 139 185.5 c 128,-1,18
 154 199 154 199 174 207 c 128,-1,19
 194 215 194 215 217 215 c 0,20,21
 238 215 238 215 258 207.5 c 128,-1,22
 278 200 278 200 293 186.5 c 128,-1,23
 308 173 308 173 317 155.5 c 128,-1,24
 326 138 326 138 326 117 c 0,25,26
 326 84 326 84 312 53 c 128,-1,27
 298 22 298 22 274.5 -5.5 c 128,-1,28
 251 -33 251 -33 221.5 -57.5 c 128,-1,29
 192 -82 192 -82 161 -101 c 1,30,-1
 162 -101 l 1,0,1
217 466 m 0,31,32
 329 466 329 466 329 382 c 0,33,34
 329 299 329 299 217 299 c 0,35,36
 106 299 106 299 106 382 c 0,37,38
 106 466 106 466 217 466 c 0,31,32
EndSplineSet
EndChar

StartChar: period
Encoding: 46 46 93
Width: 387
GlyphClass: 1
Flags: W
LayerCount: 2
Fore
SplineSet
193 151 m 0,0,1
 305 151 305 151 305 67 c 0,2,3
 305 -16 305 -16 193 -16 c 0,4,5
 82 -16 82 -16 82 67 c 0,6,7
 82 151 82 151 193 151 c 0,0,1
EndSplineSet
EndChar

StartChar: acute
Encoding: 180 180 94
Width: 394
GlyphClass: 1
Flags: W
LayerCount: 2
Fore
SplineSet
222 1332 m 1,0,1
 243 1364 243 1364 259 1364 c 0,2,3
 287 1364 287 1364 305 1348.5 c 128,-1,4
 323 1333 323 1333 323 1317 c 0,5,6
 323 1307 323 1307 317.5 1295.5 c 128,-1,7
 312 1284 312 1284 300 1267.5 c 128,-1,8
 288 1251 288 1251 270 1229.5 c 128,-1,9
 252 1208 252 1208 227 1178 c 1,10,-1
 226 1178 l 1,11,12
 217 1167 217 1167 207 1155 c 128,-1,13
 197 1143 197 1143 186 1129 c 0,14,15
 94 1022 94 1022 76 1019 c 1,16,17
 82 1020 82 1020 82 1042 c 0,18,19
 82 1057 82 1057 91 1083 c 128,-1,20
 100 1109 100 1109 114 1139.5 c 128,-1,21
 128 1170 128 1170 145 1202 c 128,-1,22
 162 1234 162 1234 177 1261 c 128,-1,23
 192 1288 192 1288 204 1307.5 c 128,-1,24
 216 1327 216 1327 220 1332 c 1,25,-1
 222 1332 l 1,0,1
EndSplineSet
EndChar

StartChar: grave
Encoding: 96 96 95
Width: 394
GlyphClass: 1
Flags: W
LayerCount: 2
Fore
SplineSet
175 1332 m 1,0,1
 179 1328 179 1328 191 1308.5 c 128,-1,2
 203 1289 203 1289 218 1261 c 128,-1,3
 233 1233 233 1233 249.5 1200 c 128,-1,4
 266 1167 266 1167 280 1136 c 128,-1,5
 294 1105 294 1105 303 1079.5 c 128,-1,6
 312 1054 312 1054 312 1041 c 0,7,8
 312 1020 312 1020 317 1019 c 1,9,10
 306 1021 306 1021 277.5 1049.5 c 128,-1,11
 249 1078 249 1078 206 1129 c 0,12,13
 140 1207 140 1207 105.5 1252 c 128,-1,14
 71 1297 71 1297 71 1317 c 0,15,16
 71 1333 71 1333 89 1348.5 c 128,-1,17
 107 1364 107 1364 135 1364 c 0,18,19
 151 1364 151 1364 172 1332 c 1,20,-1
 175 1332 l 1,0,1
EndSplineSet
EndChar

StartChar: oslash
Encoding: 248 248 103
Width: 1113
GlyphClass: 1
Flags: W
LayerCount: 2
Fore
SplineSet
765 916 m 2,0,1
 775 932 775 932 789 932 c 0,2,3
 811 932 811 932 823.5 918.5 c 128,-1,4
 836 905 836 905 836 892 c 0,5,6
 836 881 836 881 831 871 c 1,7,-1
 830 871 l 1,8,9
 824 858 824 858 817.5 845 c 128,-1,10
 811 832 811 832 805 819 c 1,11,-1
 815 819 l 1,12,13
 927 753 927 753 982.5 653.5 c 128,-1,14
 1038 554 1038 554 1038 423 c 2,15,-1
 1038 402 l 1,16,17
 1034 303 1034 303 992 216 c 128,-1,18
 950 129 950 129 882 64.5 c 128,-1,19
 814 0 814 0 725 -37.5 c 128,-1,20
 636 -75 636 -75 537 -75 c 0,21,22
 473 -75 473 -75 408 -58 c 1,23,-1
 379 -58 l 1,24,25
 375 -67 375 -67 369 -80 c 128,-1,26
 363 -93 363 -93 359 -102 c 0,27,28
 344 -121 344 -121 334 -121 c 0,29,30
 314 -121 314 -121 300.5 -108.5 c 128,-1,31
 287 -96 287 -96 287 -82 c 0,32,33
 287 -69 287 -69 292 -59 c 2,34,-1
 313 -16 l 1,35,-1
 303 -16 l 1,36,37
 247 13 247 13 204.5 55.5 c 128,-1,38
 162 98 162 98 133 149.5 c 128,-1,39
 104 201 104 201 89 261 c 128,-1,40
 74 321 74 321 74 384 c 2,41,-1
 74 405 l 1,42,43
 79 503 79 503 120.5 590 c 128,-1,44
 162 677 162 677 230 742 c 128,-1,45
 298 807 298 807 387 844.5 c 128,-1,46
 476 882 476 882 576 882 c 2,47,-1
 585 882 l 2,48,49
 648 880 648 880 711 864 c 1,50,-1
 739 864 l 1,51,-1
 765 916 l 2,0,1
576 781 m 2,52,53
 492 781 492 781 419 747.5 c 128,-1,54
 346 714 346 714 292 658.5 c 128,-1,55
 238 603 238 603 207 531.5 c 128,-1,56
 176 460 176 460 176 384 c 0,57,58
 176 296 176 296 212.5 224.5 c 128,-1,59
 249 153 249 153 326 91 c 1,60,-1
 364 91 l 1,61,62
 446 261 446 261 528 429 c 128,-1,63
 610 597 610 597 692 767 c 1,64,-1
 677 767 l 1,65,66
 635 780 635 780 584 781 c 2,67,-1
 576 781 l 2,52,53
537 26 m 2,68,69
 614 26 614 26 684 57.5 c 128,-1,70
 754 89 754 89 808 141.5 c 128,-1,71
 862 194 862 194 896.5 262.5 c 128,-1,72
 931 331 931 331 937 405 c 1,73,-1
 937 423 l 2,74,75
 937 509 937 509 901 578 c 128,-1,76
 865 647 865 647 791 711 c 1,77,-1
 753 711 l 1,78,79
 671 542 671 542 589.5 374 c 128,-1,80
 508 206 508 206 426 37 c 1,81,-1
 442 37 l 1,82,83
 486 26 486 26 531 26 c 2,84,-1
 537 26 l 2,68,69
EndSplineSet
EndChar

StartChar: quotedbl
Encoding: 34 34 105
Width: 618
GlyphClass: 1
Flags: W
LayerCount: 2
Fore
SplineSet
456 1329 m 2,0,1
 474 1355 474 1355 487 1355 c 0,2,3
 509 1355 509 1355 521.5 1341.5 c 128,-1,4
 534 1328 534 1328 534 1315 c 0,5,6
 534 1303 534 1303 527 1289 c 2,7,-1
 358 1043 l 2,8,9
 340 1016 340 1016 328 1016 c 0,10,11
 308 1016 308 1016 294 1028.5 c 128,-1,12
 280 1041 280 1041 280 1055 c 0,13,14
 280 1070 280 1070 285 1078 c 2,15,-1
 456 1329 l 2,0,1
257 1329 m 2,16,17
 275 1355 275 1355 288 1355 c 0,18,19
 310 1355 310 1355 322.5 1341.5 c 128,-1,20
 335 1328 335 1328 335 1315 c 0,21,22
 335 1305 335 1305 327 1289 c 2,23,-1
 160 1043 l 2,24,25
 141 1016 141 1016 130 1016 c 0,26,27
 110 1016 110 1016 96.5 1028.5 c 128,-1,28
 83 1041 83 1041 83 1055 c 0,29,30
 83 1068 83 1068 91 1084 c 2,31,-1
 257 1329 l 2,16,17
EndSplineSet
EndChar

StartChar: quotesingle
Encoding: 39 39 106
Width: 397
GlyphClass: 1
Flags: W
LayerCount: 2
Fore
SplineSet
246 1329 m 2,0,1
 264 1355 264 1355 277 1355 c 0,2,3
 299 1355 299 1355 311.5 1341.5 c 128,-1,4
 324 1328 324 1328 324 1315 c 0,5,6
 324 1303 324 1303 317 1289 c 2,7,-1
 150 1043 l 2,8,9
 131 1016 131 1016 120 1016 c 0,10,11
 100 1016 100 1016 86.5 1028.5 c 128,-1,12
 73 1041 73 1041 73 1055 c 0,13,14
 73 1061 73 1061 74.5 1068.5 c 128,-1,15
 76 1076 76 1076 80 1084 c 2,16,-1
 246 1329 l 2,0,1
EndSplineSet
EndChar

StartChar: circumflex
Encoding: 710 710 108
Width: 696
GlyphClass: 1
Flags: W
LayerCount: 2
Fore
SplineSet
159 1137 m 2,0,1
 151 1129 151 1129 141.5 1122 c 128,-1,2
 132 1115 132 1115 127 1115 c 0,3,4
 121 1115 121 1115 113 1119 c 128,-1,5
 105 1123 105 1123 98.5 1129 c 128,-1,6
 92 1135 92 1135 87.5 1142.5 c 128,-1,7
 83 1150 83 1150 83 1157 c 0,8,9
 83 1168 83 1168 85 1174 c 128,-1,10
 87 1180 87 1180 90 1184 c 0,11,12
 193 1288 193 1288 247.5 1344 c 128,-1,13
 302 1400 302 1400 310 1409 c 0,14,15
 328 1421 328 1421 342 1421 c 0,16,17
 347 1421 347 1421 366 1407 c 2,18,-1
 605 1207 l 2,19,20
 614 1198 614 1198 614 1180 c 0,21,22
 614 1166 614 1166 599.5 1152 c 128,-1,23
 585 1138 585 1138 570 1138 c 0,24,25
 560 1138 560 1138 538 1156 c 2,26,-1
 361 1303 l 1,27,-1
 327 1303 l 1,28,-1
 159 1137 l 2,0,1
EndSplineSet
EndChar

StartChar: uni0025
Encoding: 37 37 115
Width: 1270
GlyphClass: 1
Flags: W
LayerCount: 2
Fore
SplineSet
960 1499 m 2,0,1
 969 1512 969 1512 982 1512 c 0,2,3
 1004 1512 1004 1512 1016.5 1498.5 c 128,-1,4
 1029 1485 1029 1485 1029 1472 c 256,5,6
 1029 1459 1029 1459 1025 1451 c 1,7,-1
 1024 1451 l 1,8,9
 841 1071 841 1071 655.5 685.5 c 128,-1,10
 470 300 470 300 287 -80 c 1,11,12
 273 -97 273 -97 264 -97 c 0,13,14
 244 -97 244 -97 230.5 -84.5 c 128,-1,15
 217 -72 217 -72 217 -58 c 0,16,17
 217 -52 217 -52 218 -46 c 128,-1,18
 219 -40 219 -40 221 -35 c 1,19,-1
 222 -35 l 1,20,-1
 960 1499 l 2,0,1
664 298 m 256,21,22
 664 360 664 360 685 415 c 128,-1,23
 706 470 706 470 743 510.5 c 128,-1,24
 780 551 780 551 830.5 574.5 c 128,-1,25
 881 598 881 598 939 598 c 0,26,27
 996 598 996 598 1046 574.5 c 128,-1,28
 1096 551 1096 551 1133.5 510.5 c 128,-1,29
 1171 470 1171 470 1193 415 c 128,-1,30
 1215 360 1215 360 1215 298 c 256,31,32
 1215 236 1215 236 1193 181 c 128,-1,33
 1171 126 1171 126 1133.5 85.5 c 128,-1,34
 1096 45 1096 45 1046 21.5 c 128,-1,35
 996 -2 996 -2 939 -2 c 0,36,37
 881 -2 881 -2 830.5 21.5 c 128,-1,38
 780 45 780 45 743 85.5 c 128,-1,39
 706 126 706 126 685 181 c 128,-1,40
 664 236 664 236 664 298 c 256,21,22
723 297 m 256,41,42
 723 254 723 254 740 216.5 c 128,-1,43
 757 179 757 179 786.5 151 c 128,-1,44
 816 123 816 123 855.5 107 c 128,-1,45
 895 91 895 91 940 91 c 256,46,47
 985 91 985 91 1025 107 c 128,-1,48
 1065 123 1065 123 1094 151 c 128,-1,49
 1123 179 1123 179 1140 216.5 c 128,-1,50
 1157 254 1157 254 1157 297 c 256,51,52
 1157 340 1157 340 1140 377.5 c 128,-1,53
 1123 415 1123 415 1094 443 c 128,-1,54
 1065 471 1065 471 1025 487.5 c 128,-1,55
 985 504 985 504 940 504 c 256,56,57
 895 504 895 504 855.5 487.5 c 128,-1,58
 816 471 816 471 786.5 443 c 128,-1,59
 757 415 757 415 740 377.5 c 128,-1,60
 723 340 723 340 723 297 c 256,41,42
38 1117 m 256,61,62
 38 1179 38 1179 59.5 1234 c 128,-1,63
 81 1289 81 1289 118 1329.5 c 128,-1,64
 155 1370 155 1370 205.5 1393.5 c 128,-1,65
 256 1417 256 1417 313 1417 c 256,66,67
 370 1417 370 1417 420.5 1393.5 c 128,-1,68
 471 1370 471 1370 508.5 1329.5 c 128,-1,69
 546 1289 546 1289 568 1234 c 128,-1,70
 590 1179 590 1179 590 1117 c 256,71,72
 590 1055 590 1055 568 1000 c 128,-1,73
 546 945 546 945 508.5 904.5 c 128,-1,74
 471 864 471 864 420.5 840.5 c 128,-1,75
 370 817 370 817 313 817 c 256,76,77
 256 817 256 817 205.5 840.5 c 128,-1,78
 155 864 155 864 118 904.5 c 128,-1,79
 81 945 81 945 59.5 1000 c 128,-1,80
 38 1055 38 1055 38 1117 c 256,61,62
98 1116 m 256,81,82
 98 1073 98 1073 115 1035.5 c 128,-1,83
 132 998 132 998 161 970 c 128,-1,84
 190 942 190 942 230 926 c 128,-1,85
 270 910 270 910 315 910 c 256,86,87
 360 910 360 910 399.5 926 c 128,-1,88
 439 942 439 942 468.5 970 c 128,-1,89
 498 998 498 998 515 1035.5 c 128,-1,90
 532 1073 532 1073 532 1116 c 256,91,92
 532 1159 532 1159 515 1196.5 c 128,-1,93
 498 1234 498 1234 468.5 1262 c 128,-1,94
 439 1290 439 1290 399.5 1306.5 c 128,-1,95
 360 1323 360 1323 315 1323 c 256,96,97
 270 1323 270 1323 230 1306.5 c 128,-1,98
 190 1290 190 1290 161 1262 c 128,-1,99
 132 1234 132 1234 115 1196.5 c 128,-1,100
 98 1159 98 1159 98 1116 c 256,81,82
EndSplineSet
EndChar

StartChar: AE
Encoding: 198 198 116
Width: 2131
GlyphClass: 1
Flags: W
LayerCount: 2
Fore
SplineSet
1594 1261 m 1,0,-1
 1112 1261 l 1,1,-1
 1112 882 l 1,2,-1
 1238 882 l 1,3,4
 1234 890 1234 890 1234 904 c 0,5,6
 1234 914 1234 914 1239.5 923.5 c 128,-1,7
 1245 933 1245 933 1253 940 c 128,-1,8
 1261 947 1261 947 1270 951 c 128,-1,9
 1279 955 1279 955 1287 955 c 0,10,11
 1294 955 1294 955 1304 950 c 128,-1,12
 1314 945 1314 945 1327 937 c 0,13,14
 1351 921 1351 921 1370 908 c 128,-1,15
 1389 895 1389 895 1413 879 c 1,16,17
 1416 870 1416 870 1431 867 c 1,18,-1
 1577 768 l 1,19,-1
 1578 768 l 2,20,21
 1583 765 1583 765 1586 756 c 128,-1,22
 1589 747 1589 747 1592 736 c 0,23,24
 1592 727 1592 727 1587 716.5 c 128,-1,25
 1582 706 1582 706 1573.5 698 c 128,-1,26
 1565 690 1565 690 1555 684.5 c 128,-1,27
 1545 679 1545 679 1536 679 c 0,28,29
 1523 679 1523 679 1496 697 c 2,30,-1
 1373 781 l 1,31,-1
 1112 781 l 1,32,-1
 1112 103 l 1,33,-1
 1716 103 l 1,34,35
 1773 144 1773 144 1829 184.5 c 128,-1,36
 1885 225 1885 225 1942 266 c 0,37,38
 1953 274 1953 274 1963 278.5 c 128,-1,39
 1973 283 1973 283 1981 283 c 0,40,41
 2005 283 2005 283 2021 265.5 c 128,-1,42
 2037 248 2037 248 2037 233 c 0,43,44
 2037 222 2037 222 2035 215.5 c 128,-1,45
 2033 209 2033 209 2029 204 c 2,46,-1
 1813 -17 l 2,47,48
 1798 -27 1798 -27 1789 -31 c 128,-1,49
 1780 -35 1780 -35 1771 -35 c 2,50,-1
 1770 -35 l 2,51,52
 1759 -36 1759 -36 1733 -13 c 1,53,-1
 1732 -13 l 1,54,-1
 1714 2 l 1,55,-1
 888 2 l 2,56,57
 836 2 836 2 836 53 c 0,58,59
 836 103 836 103 888 103 c 2,60,-1
 1009 103 l 1,61,-1
 1009 215 l 1,62,-1
 338 215 l 1,63,64
 325 187 325 187 312 159 c 128,-1,65
 299 131 299 131 286 103 c 1,66,-1
 333 103 l 2,67,68
 384 103 384 103 384 53 c 0,69,70
 384 2 384 2 333 2 c 2,71,-1
 117 2 l 2,72,73
 65 2 65 2 65 53 c 0,74,75
 65 103 65 103 117 103 c 2,76,-1
 173 103 l 1,77,78
 304 394 304 394 434.5 682 c 128,-1,79
 565 970 565 970 696 1261 c 1,80,-1
 622 1261 l 2,81,82
 571 1261 571 1261 571 1311 c 0,83,84
 571 1362 571 1362 622 1362 c 2,85,-1
 1579 1362 l 1,86,87
 1581 1367 1581 1367 1585.5 1374.5 c 128,-1,88
 1590 1382 1590 1382 1592 1387 c 0,89,90
 1601 1401 1601 1401 1609.5 1408 c 128,-1,91
 1618 1415 1618 1415 1629 1415 c 256,92,93
 1640 1415 1640 1415 1655 1408.5 c 128,-1,94
 1670 1402 1670 1402 1682 1393 c 2,95,-1
 1922 1184 l 2,96,97
 1932 1174 1932 1174 1932 1150 c 0,98,99
 1932 1142 1932 1142 1927.5 1133.5 c 128,-1,100
 1923 1125 1923 1125 1915.5 1117.5 c 128,-1,101
 1908 1110 1908 1110 1898 1105.5 c 128,-1,102
 1888 1101 1888 1101 1878 1101 c 0,103,104
 1864 1101 1864 1101 1839 1115 c 2,105,-1
 1594 1261 l 1,0,-1
383 319 m 1,106,-1
 1009 319 l 1,107,-1
 1009 1261 l 1,108,-1
 809 1261 l 1,109,-1
 383 319 l 1,106,-1
EndSplineSet
EndChar

StartChar: ae
Encoding: 230 230 117
Width: 1708
GlyphClass: 1
Flags: W
LayerCount: 2
Fore
SplineSet
930 631 m 1,0,-1
 910 631 l 1,1,2
 894 608 894 608 883.5 582 c 128,-1,3
 873 556 873 556 867 530.5 c 128,-1,4
 861 505 861 505 859 480.5 c 128,-1,5
 857 456 857 456 857 436 c 0,6,7
 857 375 857 375 878 325 c 128,-1,8
 899 275 899 275 933.5 236 c 128,-1,9
 968 197 968 197 1011 168.5 c 128,-1,10
 1054 140 1054 140 1097.5 121 c 128,-1,11
 1141 102 1141 102 1182 93 c 128,-1,12
 1223 84 1223 84 1252 84 c 0,13,14
 1320 84 1320 84 1385.5 112 c 128,-1,15
 1451 140 1451 140 1514 200 c 1,16,-1
 1515 200 l 1,17,18
 1539 224 1539 224 1554 224 c 0,19,20
 1564 224 1564 224 1575 219 c 128,-1,21
 1586 214 1586 214 1594 206.5 c 128,-1,22
 1602 199 1602 199 1607.5 190 c 128,-1,23
 1613 181 1613 181 1613 173 c 0,24,25
 1613 155 1613 155 1595 134 c 128,-1,26
 1577 113 1577 113 1551.5 93.5 c 128,-1,27
 1526 74 1526 74 1499.5 57.5 c 128,-1,28
 1473 41 1473 41 1455 33 c 1,29,-1
 1454 33 l 1,30,31
 1353 -16 1353 -16 1252 -16 c 0,32,33
 1152 -16 1152 -16 1061.5 25 c 128,-1,34
 971 66 971 66 877 147 c 1,35,-1
 845 147 l 1,36,37
 812 119 812 119 774 88 c 128,-1,38
 736 57 736 57 703 29 c 1,39,40
 581 -33 581 -33 441 -33 c 0,41,42
 369 -33 369 -33 303 -13.5 c 128,-1,43
 237 6 237 6 186.5 48 c 128,-1,44
 136 90 136 90 106 155 c 128,-1,45
 76 220 76 220 76 311 c 0,46,47
 76 376 76 376 99.5 427 c 128,-1,48
 123 478 123 478 160.5 516 c 128,-1,49
 198 554 198 554 244.5 580.5 c 128,-1,50
 291 607 291 607 337.5 623.5 c 128,-1,51
 384 640 384 640 425 647.5 c 128,-1,52
 466 655 466 655 493 655 c 0,53,54
 495 655 495 655 495.5 654.5 c 128,-1,55
 496 654 496 654 497 654 c 2,56,-1
 501 654 l 1,57,58
 617 648 617 648 715 616 c 1,59,-1
 748 616 l 1,60,-1
 748 654 l 2,61,62
 748 684 748 684 733 711 c 128,-1,63
 718 738 718 738 689.5 758.5 c 128,-1,64
 661 779 661 779 621 791.5 c 128,-1,65
 581 804 581 804 531 804 c 0,66,67
 443 804 443 804 375 767.5 c 128,-1,68
 307 731 307 731 264 668 c 0,69,70
 242 637 242 637 225 637 c 0,71,72
 197 637 197 637 180 653 c 128,-1,73
 163 669 163 669 163 684 c 0,74,75
 163 705 163 705 168 712 c 1,76,-1
 169 712 l 1,77,78
 232 803 232 803 325 854 c 128,-1,79
 418 905 418 905 529 905 c 0,80,81
 579 905 579 905 625 893.5 c 128,-1,82
 671 882 671 882 710 861.5 c 128,-1,83
 749 841 749 841 779.5 812.5 c 128,-1,84
 810 784 810 784 828 750 c 1,85,-1
 868 750 l 1,86,87
 899 784 899 784 936.5 813 c 128,-1,88
 974 842 974 842 1018 863 c 128,-1,89
 1062 884 1062 884 1113.5 895.5 c 128,-1,90
 1165 907 1165 907 1224 907 c 0,91,92
 1339 907 1339 907 1420 860.5 c 128,-1,93
 1501 814 1501 814 1552 706 c 1,94,-1
 1553 706 l 2,95,96
 1554 704 1554 704 1554 688 c 0,97,98
 1554 641 1554 641 1504 639 c 2,99,-1
 930 631 l 1,0,-1
748 443 m 2,100,101
 748 491 748 491 684 522 c 128,-1,102
 620 553 620 553 487 553 c 0,103,104
 448 553 448 553 395 538 c 128,-1,105
 342 523 342 523 293.5 492 c 128,-1,106
 245 461 245 461 211 413 c 128,-1,107
 177 365 177 365 177 299 c 0,108,109
 177 190 177 190 244.5 128.5 c 128,-1,110
 312 67 312 67 444 67 c 0,111,112
 498 67 498 67 548.5 78.5 c 128,-1,113
 599 90 599 90 640.5 110 c 128,-1,114
 682 130 682 130 710 156 c 128,-1,115
 738 182 738 182 747 212 c 1,116,-1
 748 212 l 1,117,-1
 748 443 l 2,100,101
1390 739 m 1,118,-1
 1410 739 l 1,119,120
 1383 773 1383 773 1341 789.5 c 128,-1,121
 1299 806 1299 806 1231 806 c 0,122,123
 1090 806 1090 806 999 733 c 1,124,-1
 1015 733 l 1,125,-1
 1390 739 l 1,118,-1
EndSplineSet
EndChar

StartChar: degree
Encoding: 176 176 118
Width: 801
GlyphClass: 1
Flags: W
LayerCount: 2
Fore
SplineSet
91 1367 m 256,0,1
 91 1409 91 1409 112.5 1445.5 c 128,-1,2
 134 1482 134 1482 171.5 1509 c 128,-1,3
 209 1536 209 1536 259.5 1552 c 128,-1,4
 310 1568 310 1568 367 1568 c 256,5,6
 424 1568 424 1568 474.5 1552 c 128,-1,7
 525 1536 525 1536 562.5 1509 c 128,-1,8
 600 1482 600 1482 622 1445.5 c 128,-1,9
 644 1409 644 1409 644 1367 c 256,10,11
 644 1325 644 1325 622 1288.5 c 128,-1,12
 600 1252 600 1252 562.5 1225 c 128,-1,13
 525 1198 525 1198 474.5 1182.5 c 128,-1,14
 424 1167 424 1167 367 1167 c 256,15,16
 310 1167 310 1167 259.5 1182.5 c 128,-1,17
 209 1198 209 1198 171.5 1225 c 128,-1,18
 134 1252 134 1252 112.5 1288.5 c 128,-1,19
 91 1325 91 1325 91 1367 c 256,0,1
165 1362 m 256,20,21
 165 1335 165 1335 181 1311.5 c 128,-1,22
 197 1288 197 1288 224.5 1270.5 c 128,-1,23
 252 1253 252 1253 288.5 1243 c 128,-1,24
 325 1233 325 1233 367 1233 c 256,25,26
 409 1233 409 1233 446 1243 c 128,-1,27
 483 1253 483 1253 510 1270.5 c 128,-1,28
 537 1288 537 1288 553 1311.5 c 128,-1,29
 569 1335 569 1335 569 1362 c 256,30,31
 569 1389 569 1389 553 1412.5 c 128,-1,32
 537 1436 537 1436 510 1453.5 c 128,-1,33
 483 1471 483 1471 446 1481 c 128,-1,34
 409 1491 409 1491 367 1491 c 256,35,36
 325 1491 325 1491 288.5 1481 c 128,-1,37
 252 1471 252 1471 224.5 1453.5 c 128,-1,38
 197 1436 197 1436 181 1412.5 c 128,-1,39
 165 1389 165 1389 165 1362 c 256,20,21
EndSplineSet
EndChar

StartChar: Aring
Encoding: 197 197 119
Width: 1573
GlyphClass: 1
Flags: W
LayerCount: 2
Fore
SplineSet
572 1630 m 256,0,1
 572 1672 572 1672 594 1708.5 c 128,-1,2
 616 1745 616 1745 653.5 1772 c 128,-1,3
 691 1799 691 1799 741.5 1815 c 128,-1,4
 792 1831 792 1831 849 1831 c 256,5,6
 906 1831 906 1831 956 1815 c 128,-1,7
 1006 1799 1006 1799 1043.5 1772 c 128,-1,8
 1081 1745 1081 1745 1103 1708.5 c 128,-1,9
 1125 1672 1125 1672 1125 1630 c 256,10,11
 1125 1588 1125 1588 1103 1551.5 c 128,-1,12
 1081 1515 1081 1515 1043.5 1488 c 128,-1,13
 1006 1461 1006 1461 956 1445.5 c 128,-1,14
 906 1430 906 1430 849 1430 c 256,15,16
 792 1430 792 1430 741.5 1445.5 c 128,-1,17
 691 1461 691 1461 653.5 1488 c 128,-1,18
 616 1515 616 1515 594 1551.5 c 128,-1,19
 572 1588 572 1588 572 1630 c 256,0,1
647 1625 m 256,20,21
 647 1598 647 1598 663 1574.5 c 128,-1,22
 679 1551 679 1551 706 1533.5 c 128,-1,23
 733 1516 733 1516 770 1506 c 128,-1,24
 807 1496 807 1496 849 1496 c 256,25,26
 891 1496 891 1496 927.5 1506 c 128,-1,27
 964 1516 964 1516 991.5 1533.5 c 128,-1,28
 1019 1551 1019 1551 1035 1574.5 c 128,-1,29
 1051 1598 1051 1598 1051 1625 c 256,30,31
 1051 1652 1051 1652 1035 1675.5 c 128,-1,32
 1019 1699 1019 1699 991.5 1716.5 c 128,-1,33
 964 1734 964 1734 927.5 1744 c 128,-1,34
 891 1754 891 1754 849 1754 c 256,35,36
 807 1754 807 1754 770 1744 c 128,-1,37
 733 1734 733 1734 706 1716.5 c 128,-1,38
 679 1699 679 1699 663 1675.5 c 128,-1,39
 647 1652 647 1652 647 1625 c 256,20,21
173 103 m 1,40,41
 304 394 304 394 434.5 682 c 128,-1,42
 565 970 565 970 696 1261 c 1,43,-1
 622 1261 l 2,44,45
 571 1261 571 1261 571 1311 c 0,46,47
 571 1362 571 1362 622 1362 c 2,48,-1
 1074 1362 l 2,49,50
 1125 1362 1125 1362 1125 1311 c 0,51,52
 1125 1261 1125 1261 1074 1261 c 2,53,-1
 994 1261 l 1,54,55
 1076 1015 1076 1015 1156.5 774.5 c 128,-1,56
 1237 534 1237 534 1319 288 c 0,57,58
 1321 280 1321 280 1323 279 c 2,59,-1
 1381 103 l 1,60,-1
 1452 103 l 2,61,62
 1503 103 1503 103 1503 53 c 0,63,64
 1503 2 1503 2 1452 2 c 2,65,-1
 1168 2 l 2,66,67
 1117 2 1117 2 1117 53 c 0,68,69
 1117 103 1117 103 1168 103 c 2,70,-1
 1275 103 l 1,71,72
 1266 131 1266 131 1256 159 c 128,-1,73
 1246 187 1246 187 1237 215 c 1,74,-1
 338 215 l 1,75,76
 325 187 325 187 312 159 c 128,-1,77
 299 131 299 131 286 103 c 1,78,-1
 333 103 l 2,79,80
 384 103 384 103 384 53 c 0,81,82
 384 2 384 2 333 2 c 2,83,-1
 117 2 l 2,84,85
 65 2 65 2 65 53 c 0,86,87
 65 103 65 103 117 103 c 2,88,-1
 173 103 l 1,40,41
383 319 m 1,89,-1
 1203 319 l 1,90,-1
 888 1261 l 1,91,-1
 809 1261 l 1,92,-1
 383 319 l 1,89,-1
EndSplineSet
EndChar

StartChar: aring
Encoding: 229 229 120
Width: 1050
GlyphClass: 1
Flags: W
LayerCount: 2
Fore
SplineSet
245 1161 m 256,0,1
 245 1203 245 1203 267 1239.5 c 128,-1,2
 289 1276 289 1276 326.5 1303 c 128,-1,3
 364 1330 364 1330 414.5 1346 c 128,-1,4
 465 1362 465 1362 522 1362 c 256,5,6
 579 1362 579 1362 629 1346 c 128,-1,7
 679 1330 679 1330 716.5 1303 c 128,-1,8
 754 1276 754 1276 776 1239.5 c 128,-1,9
 798 1203 798 1203 798 1161 c 256,10,11
 798 1119 798 1119 776 1082.5 c 128,-1,12
 754 1046 754 1046 716.5 1019 c 128,-1,13
 679 992 679 992 629 976.5 c 128,-1,14
 579 961 579 961 522 961 c 256,15,16
 465 961 465 961 414.5 976.5 c 128,-1,17
 364 992 364 992 326.5 1019 c 128,-1,18
 289 1046 289 1046 267 1082.5 c 128,-1,19
 245 1119 245 1119 245 1161 c 256,0,1
320 1156 m 256,20,21
 320 1129 320 1129 336 1105.5 c 128,-1,22
 352 1082 352 1082 379 1064.5 c 128,-1,23
 406 1047 406 1047 443 1037 c 128,-1,24
 480 1027 480 1027 522 1027 c 256,25,26
 564 1027 564 1027 600.5 1037 c 128,-1,27
 637 1047 637 1047 664.5 1064.5 c 128,-1,28
 692 1082 692 1082 708 1105.5 c 128,-1,29
 724 1129 724 1129 724 1156 c 256,30,31
 724 1183 724 1183 708 1206.5 c 128,-1,32
 692 1230 692 1230 664.5 1247.5 c 128,-1,33
 637 1265 637 1265 600.5 1275 c 128,-1,34
 564 1285 564 1285 522 1285 c 256,35,36
 480 1285 480 1285 443 1275 c 128,-1,37
 406 1265 406 1265 379 1247.5 c 128,-1,38
 352 1230 352 1230 336 1206.5 c 128,-1,39
 320 1183 320 1183 320 1156 c 256,20,21
748 443 m 2,40,41
 748 491 748 491 684 522 c 128,-1,42
 620 553 620 553 487 553 c 0,43,44
 448 553 448 553 395 538 c 128,-1,45
 342 523 342 523 293.5 492 c 128,-1,46
 245 461 245 461 211 413 c 128,-1,47
 177 365 177 365 177 299 c 0,48,49
 177 190 177 190 244.5 128.5 c 128,-1,50
 312 67 312 67 444 67 c 0,51,52
 498 67 498 67 548.5 78.5 c 128,-1,53
 599 90 599 90 640.5 110 c 128,-1,54
 682 130 682 130 710 156 c 128,-1,55
 738 182 738 182 747 212 c 1,56,-1
 748 212 l 1,57,-1
 748 443 l 2,40,41
501 654 m 1,58,59
 617 648 617 648 715 616 c 1,60,-1
 748 616 l 1,61,-1
 748 654 l 2,62,63
 748 684 748 684 733 711 c 128,-1,64
 718 738 718 738 689.5 758.5 c 128,-1,65
 661 779 661 779 621 791.5 c 128,-1,66
 581 804 581 804 531 804 c 0,67,68
 443 804 443 804 375 767.5 c 128,-1,69
 307 731 307 731 264 668 c 0,70,71
 242 637 242 637 225 637 c 0,72,73
 197 637 197 637 180 653 c 128,-1,74
 163 669 163 669 163 684 c 0,75,76
 163 705 163 705 168 712 c 1,77,-1
 169 712 l 1,78,79
 232 803 232 803 325 854 c 128,-1,80
 418 905 418 905 529 905 c 0,81,82
 598 905 598 905 656.5 885 c 128,-1,83
 715 865 715 865 758.5 831 c 128,-1,84
 802 797 802 797 826.5 751 c 128,-1,85
 851 705 851 705 851 654 c 2,86,-1
 851 293 l 1,87,-1
 852 293 l 1,88,89
 857 271 857 271 857 245 c 256,90,91
 857 219 857 219 852 201 c 1,92,-1
 851 201 l 1,93,-1
 851 103 l 1,94,-1
 925 103 l 2,95,96
 977 103 977 103 977 53 c 0,97,98
 977 2 977 2 925 2 c 2,99,-1
 799 2 l 2,100,101
 765 2 765 2 750 36 c 1,102,-1
 716 36 l 1,103,104
 581 -33 581 -33 441 -33 c 0,105,106
 369 -33 369 -33 303 -13.5 c 128,-1,107
 237 6 237 6 186.5 48 c 128,-1,108
 136 90 136 90 106 155 c 128,-1,109
 76 220 76 220 76 311 c 0,110,111
 76 376 76 376 99.5 427 c 128,-1,112
 123 478 123 478 160.5 516 c 128,-1,113
 198 554 198 554 244.5 580.5 c 128,-1,114
 291 607 291 607 337.5 623.5 c 128,-1,115
 384 640 384 640 425 647.5 c 128,-1,116
 466 655 466 655 493 655 c 0,117,118
 495 655 495 655 496 654.5 c 128,-1,119
 497 654 497 654 499 654 c 2,120,-1
 501 654 l 1,58,59
EndSplineSet
EndChar

StartChar: igrave
Encoding: 236 236 128
Width: 541
GlyphClass: 1
Flags: W
LayerCount: 2
Fore
SplineSet
103 781 m 2,0,1
 2 781 2 781 2 831 c 0,2,3
 2 882 2 882 103 882 c 2,4,-1
 261 882 l 2,5,6
 362 882 362 882 362 831 c 2,7,-1
 362 103 l 1,8,-1
 397 103 l 2,9,10
 499 103 499 103 499 53 c 0,11,12
 499 2 499 2 397 2 c 2,13,-1
 147 2 l 2,14,15
 47 2 47 2 47 53 c 0,16,17
 47 103 47 103 147 103 c 2,18,-1
 159 103 l 1,19,-1
 159 781 l 1,20,-1
 103 781 l 2,0,1
82 1326 m 1,21,22
 86 1321 86 1321 97.5 1301.5 c 128,-1,23
 109 1282 109 1282 124.5 1254.5 c 128,-1,24
 140 1227 140 1227 157 1194 c 128,-1,25
 174 1161 174 1161 188 1130.5 c 128,-1,26
 202 1100 202 1100 211.5 1074.5 c 128,-1,27
 221 1049 221 1049 221 1035 c 0,28,29
 221 1013 221 1013 225 1013 c 1,30,31
 216 1014 216 1014 187.5 1043 c 128,-1,32
 159 1072 159 1072 115 1123 c 0,33,34
 49 1201 49 1201 14.5 1246 c 128,-1,35
 -20 1291 -20 1291 -20 1311 c 0,36,37
 -20 1327 -20 1327 -1.5 1342.5 c 128,-1,38
 17 1358 17 1358 43 1358 c 0,39,40
 60 1358 60 1358 81 1326 c 1,41,-1
 82 1326 l 1,21,22
EndSplineSet
EndChar

StartChar: iacute
Encoding: 237 237 129
Width: 541
GlyphClass: 1
Flags: W
LayerCount: 2
Fore
SplineSet
103 781 m 2,0,1
 52 781 52 781 52 831 c 0,2,3
 52 882 52 882 103 882 c 2,4,-1
 261 882 l 2,5,6
 312 882 312 882 312 831 c 2,7,-1
 312 103 l 1,8,-1
 397 103 l 2,9,10
 449 103 449 103 449 53 c 0,11,12
 449 2 449 2 397 2 c 2,13,-1
 147 2 l 2,14,15
 97 2 97 2 97 53 c 0,16,17
 97 103 97 103 147 103 c 2,18,-1
 209 103 l 1,19,-1
 209 781 l 1,20,-1
 103 781 l 2,0,1
391 1337 m 0,21,22
 412 1369 412 1369 429 1369 c 0,23,24
 455 1369 455 1369 473.5 1353.5 c 128,-1,25
 492 1338 492 1338 492 1322 c 0,26,27
 492 1303 492 1303 473 1277 c 128,-1,28
 454 1251 454 1251 413 1202 c 0,29,30
 401 1188 401 1188 386.5 1171 c 128,-1,31
 372 1154 372 1154 356 1134 c 0,32,33
 264 1027 264 1027 245 1024 c 1,34,35
 251 1025 251 1025 251 1047 c 0,36,37
 251 1062 251 1062 260.5 1088 c 128,-1,38
 270 1114 270 1114 284 1144.5 c 128,-1,39
 298 1175 298 1175 315 1207 c 128,-1,40
 332 1239 332 1239 348 1266 c 128,-1,41
 364 1293 364 1293 375.5 1312 c 128,-1,42
 387 1331 387 1331 391 1337 c 0,21,22
EndSplineSet
EndChar

StartChar: icircumflex
Encoding: 238 238 130
Width: 541
GlyphClass: 1
Flags: W
LayerCount: 2
Fore
SplineSet
103 781 m 2,0,1
 52 781 52 781 52 831 c 0,2,3
 52 882 52 882 103 882 c 2,4,-1
 261 882 l 2,5,6
 312 882 312 882 312 831 c 2,7,-1
 312 103 l 1,8,-1
 397 103 l 2,9,10
 449 103 449 103 449 53 c 0,11,12
 449 2 449 2 397 2 c 2,13,-1
 147 2 l 2,14,15
 97 2 97 2 97 53 c 0,16,17
 97 103 97 103 147 103 c 2,18,-1
 209 103 l 1,19,-1
 209 781 l 1,20,-1
 103 781 l 2,0,1
-15 1013 m 2,21,22
 -23 1005 -23 1005 -32.5 998 c 128,-1,23
 -42 991 -42 991 -47 991 c 0,24,25
 -53 991 -53 991 -61 995 c 128,-1,26
 -69 999 -69 999 -75.5 1005 c 128,-1,27
 -82 1011 -82 1011 -86.5 1018.5 c 128,-1,28
 -91 1026 -91 1026 -91 1033 c 0,29,30
 -91 1044 -91 1044 -89 1050 c 128,-1,31
 -87 1056 -87 1056 -84 1060 c 0,32,33
 19 1164 19 1164 73.5 1220 c 128,-1,34
 128 1276 128 1276 136 1285 c 0,35,36
 154 1297 154 1297 168 1297 c 0,37,38
 173 1297 173 1297 192 1283 c 2,39,-1
 431 1083 l 2,40,41
 440 1074 440 1074 440 1056 c 0,42,43
 440 1042 440 1042 425.5 1028 c 128,-1,44
 411 1014 411 1014 396 1014 c 0,45,46
 386 1014 386 1014 364 1032 c 2,47,-1
 187 1179 l 1,48,-1
 153 1179 l 1,49,-1
 -15 1013 l 2,21,22
EndSplineSet
EndChar

StartChar: idieresis
Encoding: 239 239 131
Width: 541
GlyphClass: 1
Flags: W
LayerCount: 2
Fore
SplineSet
103 781 m 2,0,1
 52 781 52 781 52 831 c 0,2,3
 52 882 52 882 103 882 c 2,4,-1
 261 882 l 2,5,6
 312 882 312 882 312 831 c 2,7,-1
 312 103 l 1,8,-1
 397 103 l 2,9,10
 449 103 449 103 449 53 c 0,11,12
 449 2 449 2 397 2 c 2,13,-1
 147 2 l 2,14,15
 97 2 97 2 97 53 c 0,16,17
 97 103 97 103 147 103 c 2,18,-1
 209 103 l 1,19,-1
 209 781 l 1,20,-1
 103 781 l 2,0,1
45 1019 m 1,21,-1
 44 1019 l 1,22,-1
 45 1019 l 1,21,-1
190 1332 m 1,23,24
 211 1364 211 1364 229 1364 c 0,25,26
 255 1364 255 1364 273 1349 c 128,-1,27
 291 1334 291 1334 291 1316 c 0,28,29
 291 1296 291 1296 259.5 1253.5 c 128,-1,30
 228 1211 228 1211 156 1129 c 0,31,32
 66 1027 66 1027 45 1019 c 1,33,34
 52 1022 52 1022 52 1040 c 256,35,36
 52 1058 52 1058 65.5 1091 c 128,-1,37
 79 1124 79 1124 98 1162 c 128,-1,38
 117 1200 117 1200 137.5 1237 c 128,-1,39
 158 1274 158 1274 173 1300 c 0,40,41
 177 1307 177 1307 180 1312.5 c 128,-1,42
 183 1318 183 1318 186 1323 c 256,43,44
 189 1328 189 1328 192 1332 c 1,45,-1
 190 1332 l 1,23,24
390 1332 m 1,46,47
 411 1364 411 1364 427 1364 c 0,48,49
 455 1364 455 1364 473 1348.5 c 128,-1,50
 491 1333 491 1333 491 1317 c 0,51,52
 491 1307 491 1307 485.5 1295.5 c 128,-1,53
 480 1284 480 1284 468 1267.5 c 128,-1,54
 456 1251 456 1251 438 1229.5 c 128,-1,55
 420 1208 420 1208 395 1178 c 1,56,-1
 394 1178 l 1,57,58
 385 1167 385 1167 375 1155 c 128,-1,59
 365 1143 365 1143 354 1129 c 0,60,61
 262 1022 262 1022 244 1019 c 1,62,63
 250 1020 250 1020 250 1042 c 0,64,65
 250 1057 250 1057 259 1083 c 128,-1,66
 268 1109 268 1109 282 1139.5 c 128,-1,67
 296 1170 296 1170 313 1202 c 128,-1,68
 330 1234 330 1234 345 1261 c 128,-1,69
 360 1288 360 1288 372 1307.5 c 128,-1,70
 384 1327 384 1327 388 1332 c 1,71,-1
 390 1332 l 1,46,47
EndSplineSet
EndChar

StartChar: germandbls
Encoding: 223 223 132
Width: 1233
GlyphClass: 1
Flags: W
LayerCount: 2
Fore
SplineSet
447 -184 m 0,0,1
 447 -273 447 -273 345 -286 c 1,2,-1
 344 -286 l 1,3,4
 305 -294 305 -294 305 -305 c 0,5,6
 305 -320 305 -320 309.5 -333.5 c 128,-1,7
 314 -347 314 -347 326 -363 c 128,-1,8
 338 -379 338 -379 359 -400 c 128,-1,9
 380 -421 380 -421 413 -451 c 0,10,11
 464 -494 464 -494 539.5 -519 c 128,-1,12
 615 -544 615 -544 708 -544 c 2,13,-1
 717 -544 l 1,14,15
 901 -536 901 -536 998.5 -433 c 128,-1,16
 1096 -330 1096 -330 1096 -141 c 2,17,-1
 1096 -115 l 2,18,19
 1094 -90 1094 -90 1092 -63.5 c 128,-1,20
 1090 -37 1090 -37 1084 -11 c 128,-1,21
 1078 15 1078 15 1066 41 c 128,-1,22
 1054 67 1054 67 1032 92 c 0,23,24
 999 131 999 131 905 165 c 0,25,26
 828 193 828 193 676 193 c 2,27,-1
 650 193 l 2,28,29
 643 193 643 193 636.5 192.5 c 128,-1,30
 630 192 630 192 622 192 c 0,31,32
 599 192 599 192 585.5 204 c 128,-1,33
 572 216 572 216 572 240 c 0,34,35
 572 269 572 269 583 278 c 1,36,-1
 588 278 l 1,37,38
 685 402 685 402 782.5 524.5 c 128,-1,39
 880 647 880 647 977 771 c 1,40,-1
 339 771 l 1,41,-1
 339 103 l 1,42,-1
 450 103 l 2,43,44
 500 103 500 103 500 53 c 0,45,46
 500 2 500 2 450 2 c 2,47,-1
 138 2 l 2,48,49
 86 2 86 2 86 53 c 0,50,51
 86 103 86 103 138 103 c 2,52,-1
 236 103 l 1,53,-1
 236 1000 l 2,54,55
 236 1072 236 1072 267.5 1134.5 c 128,-1,56
 299 1197 299 1197 360 1244 c 128,-1,57
 421 1291 421 1291 510 1322 c 128,-1,58
 599 1353 599 1353 714 1362 c 0,59,60
 725 1363 725 1363 735 1363.5 c 128,-1,61
 745 1364 745 1364 756 1364 c 0,62,63
 865 1364 865 1364 968 1317 c 1,64,-1
 1003 1317 l 1,65,66
 1006 1337 1006 1337 1021 1350 c 128,-1,67
 1036 1363 1036 1363 1062 1363 c 256,68,69
 1088 1363 1088 1363 1102 1322 c 2,70,-1
 1163 1126 l 2,71,72
 1162 1125 1162 1125 1162 1125 c 1,73,74
 1165 1117 1165 1117 1165.5 1114 c 128,-1,75
 1166 1111 1166 1111 1166 1107 c 0,76,77
 1166 1088 1166 1088 1152 1075 c 128,-1,78
 1138 1062 1138 1062 1110 1062 c 0,79,80
 1099 1062 1099 1062 1087.5 1069.5 c 128,-1,81
 1076 1077 1076 1077 1065 1091 c 0,82,83
 998 1176 998 1176 925 1219 c 128,-1,84
 852 1262 852 1262 757 1262 c 0,85,86
 657 1262 657 1262 579.5 1241.5 c 128,-1,87
 502 1221 502 1221 448.5 1185.5 c 128,-1,88
 395 1150 395 1150 367 1102.5 c 128,-1,89
 339 1055 339 1055 339 1000 c 2,90,-1
 339 872 l 1,91,-1
 1119 872 l 2,92,93
 1170 872 1170 872 1170 821 c 0,94,95
 1170 793 1170 793 1159 785 c 1,96,-1
 1153 785 l 1,97,-1
 763 290 l 1,98,-1
 781 290 l 1,99,100
 888 281 888 281 970.5 248.5 c 128,-1,101
 1053 216 1053 216 1108 162 c 0,102,103
 1133 135 1133 135 1149 101.5 c 128,-1,104
 1165 68 1165 68 1175 32 c 128,-1,105
 1185 -4 1185 -4 1189.5 -41 c 128,-1,106
 1194 -78 1194 -78 1197 -113 c 2,107,-1
 1197 -141 l 2,108,109
 1197 -387 1197 -387 1074 -513.5 c 128,-1,110
 951 -640 951 -640 719 -644 c 1,111,-1
 708 -644 l 2,112,113
 593 -644 593 -644 501 -611.5 c 128,-1,114
 409 -579 409 -579 337 -521 c 0,115,116
 295 -486 295 -486 270 -454.5 c 128,-1,117
 245 -423 245 -423 232 -394.5 c 128,-1,118
 219 -366 219 -366 215 -341 c 128,-1,119
 211 -316 211 -316 211 -294 c 0,120,121
 211 -258 211 -258 219 -220.5 c 128,-1,122
 227 -183 227 -183 243 -152.5 c 128,-1,123
 259 -122 259 -122 282.5 -102 c 128,-1,124
 306 -82 306 -82 337 -82 c 0,125,126
 360 -82 360 -82 380 -90 c 128,-1,127
 400 -98 400 -98 415 -112 c 128,-1,128
 430 -126 430 -126 438.5 -144.5 c 128,-1,129
 447 -163 447 -163 447 -184 c 0,0,1
EndSplineSet
EndChar

StartChar: dollar
Encoding: 36 36 137
Width: 1582
GlyphClass: 1
Flags: W
LayerCount: 2
Fore
SplineSet
631 1435 m 2,0,1
 580 1435 580 1435 580 1485 c 0,2,3
 580 1536 580 1536 631 1536 c 2,4,-1
 928 1536 l 2,5,6
 980 1536 980 1536 980 1485 c 0,7,8
 980 1435 980 1435 928 1435 c 2,9,-1
 831 1435 l 1,10,-1
 831 1352 l 1,11,-1
 853 1352 l 1,12,13
 918 1344 918 1344 977 1329 c 128,-1,14
 1036 1314 1036 1314 1087 1294 c 1,15,-1
 1121 1294 l 1,16,17
 1121 1295 1121 1295 1120.5 1296 c 128,-1,18
 1120 1297 1120 1297 1120 1298 c 1,19,-1
 1116 1298 l 1,20,21
 1114 1302 1114 1302 1114 1318 c 0,22,23
 1114 1335 1114 1335 1130 1349 c 128,-1,24
 1146 1363 1146 1363 1177 1363 c 0,25,26
 1200 1363 1200 1363 1217 1325 c 2,27,-1
 1322 1081 l 2,28,29
 1325 1073 1325 1073 1325 1061 c 0,30,31
 1325 1042 1325 1042 1309 1028 c 128,-1,32
 1293 1014 1293 1014 1263 1014 c 0,33,34
 1249 1014 1249 1014 1240.5 1023.5 c 128,-1,35
 1232 1033 1232 1033 1223 1053 c 0,36,37
 1190 1122 1190 1122 1098 1176 c 128,-1,38
 1006 1230 1006 1230 859 1250 c 1,39,-1
 831 1250 l 1,40,-1
 831 778 l 1,41,-1
 851 778 l 1,42,43
 1162 709 1162 709 1325 602.5 c 128,-1,44
 1488 496 1488 496 1488 342 c 0,45,46
 1488 256 1488 256 1445.5 189 c 128,-1,47
 1403 122 1403 122 1328 76.5 c 128,-1,48
 1253 31 1253 31 1149 7 c 128,-1,49
 1045 -17 1045 -17 922 -17 c 0,50,51
 914 -17 914 -17 907 -16.5 c 128,-1,52
 900 -16 900 -16 892 -16 c 0,53,54
 884 -15 884 -15 875 -15 c 128,-1,55
 866 -15 866 -15 856 -15 c 2,56,-1
 831 -15 l 1,57,-1
 831 -79 l 1,58,-1
 928 -79 l 2,59,60
 980 -79 980 -79 980 -129 c 0,61,62
 980 -180 980 -180 928 -180 c 2,63,-1
 631 -180 l 2,64,65
 580 -180 580 -180 580 -129 c 0,66,67
 580 -79 580 -79 631 -79 c 2,68,-1
 728 -79 l 1,69,-1
 728 0 l 1,70,-1
 707 0 l 1,71,72
 613 14 613 14 525.5 45 c 128,-1,73
 438 76 438 76 351 122 c 1,74,-1
 318 122 l 1,75,76
 320 120 320 120 318.5 120 c 128,-1,77
 317 120 317 120 319 118 c 0,78,79
 322 111 322 111 323 104 c 128,-1,80
 324 97 324 97 324 90 c 0,81,82
 324 72 324 72 308 57.5 c 128,-1,83
 292 43 292 43 262 43 c 0,84,85
 240 43 240 43 222 80 c 0,86,87
 190 148 190 148 156 216.5 c 128,-1,88
 122 285 122 285 90 353 c 0,89,90
 88 356 88 356 88 361 c 128,-1,91
 88 366 88 366 88 372 c 0,92,93
 88 392 88 392 105.5 407 c 128,-1,94
 123 422 123 422 145 422 c 0,95,96
 153 422 153 422 164 414.5 c 128,-1,97
 175 407 175 407 186 394 c 0,98,99
 230 346 230 346 283.5 301.5 c 128,-1,100
 337 257 337 257 400.5 219.5 c 128,-1,101
 464 182 464 182 538.5 152.5 c 128,-1,102
 613 123 613 123 698 105 c 1,103,-1
 728 105 l 1,104,-1
 728 707 l 1,105,-1
 709 707 l 1,106,107
 586 739 586 739 486.5 773 c 128,-1,108
 387 807 387 807 316.5 847 c 128,-1,109
 246 887 246 887 208 934.5 c 128,-1,110
 170 982 170 982 170 1041 c 0,111,112
 170 1113 170 1113 208 1172.5 c 128,-1,113
 246 1232 246 1232 312.5 1274.5 c 128,-1,114
 379 1317 379 1317 469 1340.5 c 128,-1,115
 559 1364 559 1364 663 1364 c 0,116,117
 673 1364 673 1364 682 1364 c 128,-1,118
 691 1364 691 1364 701 1363 c 2,119,-1
 728 1363 l 1,120,-1
 728 1435 l 1,121,-1
 631 1435 l 2,0,1
948 83 m 0,122,123
 1043 83 1043 83 1123.5 100 c 128,-1,124
 1204 117 1204 117 1262 150 c 128,-1,125
 1320 183 1320 183 1352.5 230.5 c 128,-1,126
 1385 278 1385 278 1385 340 c 0,127,128
 1385 447 1385 447 1253.5 530 c 128,-1,129
 1122 613 1122 613 862 672 c 1,130,-1
 831 672 l 1,131,-1
 831 85 l 1,132,-1
 855 85 l 2,133,134
 876 84 876 84 900 83.5 c 128,-1,135
 924 83 924 83 948 83 c 0,122,123
666 1263 m 0,136,137
 581 1263 581 1263 508.5 1247.5 c 128,-1,138
 436 1232 436 1232 383.5 1203.5 c 128,-1,139
 331 1175 331 1175 301.5 1134 c 128,-1,140
 272 1093 272 1093 272 1042 c 0,141,142
 272 1010 272 1010 302.5 979.5 c 128,-1,143
 333 949 333 949 389 920 c 128,-1,144
 445 891 445 891 523 864.5 c 128,-1,145
 601 838 601 838 697 815 c 1,146,-1
 728 815 l 1,147,-1
 728 1262 l 1,148,-1
 705 1262 l 2,149,150
 696 1263 696 1263 686.5 1263 c 128,-1,151
 677 1263 677 1263 666 1263 c 0,136,137
EndSplineSet
EndChar

StartChar: florin
Encoding: 402 402 138
Width: 697
GlyphClass: 1
Flags: W
LayerCount: 2
Fore
SplineSet
1016 1317 m 1,0,1
 1019 1337 1019 1337 1034 1350 c 128,-1,2
 1049 1363 1049 1363 1075 1363 c 0,3,4
 1102 1363 1102 1363 1116 1322 c 2,5,-1
 1177 1123 l 1,6,-1
 1178 1123 l 2,7,8
 1179 1121 1179 1121 1179 1107 c 0,9,10
 1179 1088 1179 1088 1165.5 1075 c 128,-1,11
 1152 1062 1152 1062 1123 1062 c 0,12,13
 1100 1062 1100 1062 1079 1091 c 0,14,15
 1012 1176 1012 1176 938 1219 c 128,-1,16
 864 1262 864 1262 771 1262 c 0,17,18
 671 1262 671 1262 593 1241.5 c 128,-1,19
 515 1221 515 1221 462 1185.5 c 128,-1,20
 409 1150 409 1150 381 1102.5 c 128,-1,21
 353 1055 353 1055 353 1000 c 2,22,-1
 353 898 l 1,23,-1
 378 898 l 2,24,25
 410 898 410 898 441.5 897.5 c 128,-1,26
 473 897 473 897 505 897 c 0,27,28
 555 895 555 895 555 846 c 0,29,30
 555 794 555 794 504 796 c 0,31,32
 472 796 472 796 441 796.5 c 128,-1,33
 410 797 410 797 378 797 c 2,34,-1
 353 797 l 1,35,36
 353 578 353 578 353.5 362 c 128,-1,37
 354 146 354 146 354 -73 c 0,38,39
 354 -268 354 -268 268.5 -355.5 c 128,-1,40
 183 -443 183 -443 16 -443 c 0,41,42
 -44 -443 -44 -443 -97 -429.5 c 128,-1,43
 -150 -416 -150 -416 -189 -390.5 c 128,-1,44
 -228 -365 -228 -365 -251 -328.5 c 128,-1,45
 -274 -292 -274 -292 -274 -247 c 0,46,47
 -272 -231 -272 -231 -269 -214 c 128,-1,48
 -266 -197 -266 -197 -260 -183 c 128,-1,49
 -254 -169 -254 -169 -244.5 -160 c 128,-1,50
 -235 -151 -235 -151 -221 -151 c 0,51,52
 -191 -151 -191 -151 -175 -164.5 c 128,-1,53
 -159 -178 -159 -178 -159 -197 c 0,54,55
 -159 -205 -159 -205 -161 -209.5 c 128,-1,56
 -163 -214 -163 -214 -165 -221 c 0,57,58
 -167 -226 -167 -226 -169.5 -234 c 128,-1,59
 -172 -242 -172 -242 -172 -256 c 0,60,61
 -172 -295 -172 -295 -108 -320 c 0,62,63
 -60 -341 -60 -341 18 -341 c 0,64,65
 84 -341 84 -341 129 -323 c 128,-1,66
 174 -305 174 -305 201 -271 c 128,-1,67
 228 -237 228 -237 240 -188.5 c 128,-1,68
 252 -140 252 -140 253 -80 c 0,69,70
 253 20 253 20 252.5 132.5 c 128,-1,71
 252 245 252 245 251.5 359.5 c 128,-1,72
 251 474 251 474 250.5 586 c 128,-1,73
 250 698 250 698 250 798 c 1,74,-1
 225 798 l 2,75,76
 199 798 199 798 172.5 798.5 c 128,-1,77
 146 799 146 799 120 799 c 0,78,79
 70 799 70 799 70 849 c 256,80,81
 70 899 70 899 121 899 c 2,82,-1
 250 899 l 1,83,-1
 250 1000 l 2,84,85
 250 1072 250 1072 281.5 1134 c 128,-1,86
 313 1196 313 1196 373.5 1243.5 c 128,-1,87
 434 1291 434 1291 522.5 1321.5 c 128,-1,88
 611 1352 611 1352 725 1362 c 1,89,-1
 730 1362 l 2,90,91
 741 1363 741 1363 749.5 1363.5 c 128,-1,92
 758 1364 758 1364 769 1364 c 0,93,94
 878 1364 878 1364 981 1317 c 1,95,-1
 1016 1317 l 1,0,1
EndSplineSet
EndChar

StartChar: equal
Encoding: 61 61 139
Width: 684
GlyphClass: 1
Flags: W
LayerCount: 2
Fore
SplineSet
493 724 m 2,0,1
 519 724 519 724 531 710.5 c 128,-1,2
 543 697 543 697 543 673 c 0,3,4
 543 646 543 646 530.5 634.5 c 128,-1,5
 518 623 518 623 492 623 c 2,6,-1
 114 625 l 2,7,8
 58 625 58 625 58 676 c 0,9,10
 58 726 58 726 109 726 c 2,11,-1
 493 724 l 2,0,1
492 897 m 2,12,13
 517 897 517 897 529.5 883.5 c 128,-1,14
 542 870 542 870 542 846 c 0,15,16
 542 819 542 819 529 807.5 c 128,-1,17
 516 796 516 796 490 796 c 2,18,-1
 112 798 l 2,19,20
 56 798 56 798 56 849 c 0,21,22
 56 899 56 899 108 899 c 2,23,-1
 492 897 l 2,12,13
EndSplineSet
EndChar

StartChar: Euro
Encoding: 8364 8364 140
Width: 1476
GlyphClass: 1
Flags: W
LayerCount: 2
Fore
SplineSet
1057 894 m 2,0,1
 1107 892 1107 892 1107 843 c 0,2,3
 1107 816 1107 816 1094.5 804.5 c 128,-1,4
 1082 793 1082 793 1056 793 c 2,5,-1
 210 794 l 1,6,-1
 185 794 l 1,7,8
 179 759 179 759 179 722 c 1,9,-1
 204 722 l 2,10,11
 365 722 365 722 523.5 721.5 c 128,-1,12
 682 721 682 721 843 721 c 0,13,14
 893 719 893 719 893 670 c 0,15,16
 893 643 893 643 880 631.5 c 128,-1,17
 867 620 867 620 841 620 c 2,18,-1
 207 621 l 1,19,-1
 182 621 l 1,20,21
 197 491 197 491 247.5 388.5 c 128,-1,22
 298 286 298 286 378 215.5 c 128,-1,23
 458 145 458 145 564 107.5 c 128,-1,24
 670 70 670 70 796 70 c 0,25,26
 912 70 912 70 1003.5 94.5 c 128,-1,27
 1095 119 1095 119 1159.5 166.5 c 128,-1,28
 1224 214 1224 214 1259.5 282.5 c 128,-1,29
 1295 351 1295 351 1298 439 c 0,30,31
 1301 489 1301 489 1350 489 c 0,32,33
 1376 489 1376 489 1388 475 c 128,-1,34
 1400 461 1400 461 1400 437 c 0,35,36
 1397 331 1397 331 1354 245 c 128,-1,37
 1311 159 1311 159 1233 98 c 128,-1,38
 1155 37 1155 37 1043.5 3.5 c 128,-1,39
 932 -30 932 -30 793 -30 c 0,40,41
 647 -30 647 -30 523 15.5 c 128,-1,42
 399 61 399 61 305 146 c 128,-1,43
 211 231 211 231 152.5 351.5 c 128,-1,44
 94 472 94 472 80 622 c 1,45,-1
 3 622 l 2,46,47
 -26 622 -26 622 -39.5 635.5 c 128,-1,48
 -53 649 -53 649 -53 673 c 0,49,50
 -53 723 -53 723 -2 723 c 2,51,-1
 77 723 l 1,52,53
 77 742 77 742 78.5 760 c 128,-1,54
 80 778 80 778 82 795 c 1,55,-1
 1 795 l 2,56,57
 -27 795 -27 795 -41 808.5 c 128,-1,58
 -55 822 -55 822 -55 846 c 0,59,60
 -55 896 -55 896 -3 896 c 2,61,-1
 103 896 l 1,62,63
 139 1006 139 1006 205.5 1097 c 128,-1,64
 272 1188 272 1188 359 1253 c 128,-1,65
 446 1318 446 1318 548 1355.5 c 128,-1,66
 650 1393 650 1393 757 1397 c 1,67,-1
 800 1397 l 1,68,69
 942 1389 942 1389 1055 1339 c 1,70,-1
 1090 1339 l 1,71,72
 1093 1359 1093 1359 1107 1372.5 c 128,-1,73
 1121 1386 1121 1386 1147 1386 c 0,74,75
 1174 1386 1174 1386 1192 1347 c 2,76,-1
 1283 1100 l 2,77,78
 1282 1098 1282 1098 1282 1098 c 1,79,80
 1285 1090 1285 1090 1285.5 1086.5 c 128,-1,81
 1286 1083 1286 1083 1286 1079 c 0,82,83
 1286 1059 1286 1059 1270 1045 c 128,-1,84
 1254 1031 1254 1031 1222 1031 c 0,85,86
 1199 1031 1199 1031 1185 1069 c 1,87,-1
 1184 1069 l 1,88,89
 1133 1181 1133 1181 1036 1235.5 c 128,-1,90
 939 1290 939 1290 796 1296 c 1,91,-1
 764 1296 l 1,92,93
 673 1291 673 1291 590 1261.5 c 128,-1,94
 507 1232 507 1232 437 1183 c 128,-1,95
 367 1134 367 1134 313 1068.5 c 128,-1,96
 259 1003 259 1003 226 926 c 1,97,-1
 225 926 l 1,98,99
 223 921 223 921 222.5 917.5 c 128,-1,100
 222 914 222 914 220 910 c 2,101,-1
 214 895 l 1,102,-1
 237 895 l 1,103,-1
 1057 894 l 2,0,1
EndSplineSet
EndChar

StartChar: section
Encoding: 167 167 141
Width: 880
GlyphClass: 1
Flags: W
LayerCount: 2
Fore
SplineSet
283 37 m 1,0,1
 266 1 266 1 226 1 c 0,2,3
 201 1 201 1 185 40 c 0,4,5
 167 86 167 86 146 138 c 128,-1,6
 125 190 125 190 107 236 c 0,7,8
 106 238 106 238 106 243.5 c 128,-1,9
 106 249 106 249 106 254 c 0,10,11
 106 273 106 273 121 286.5 c 128,-1,12
 136 300 136 300 166 300 c 0,13,14
 191 300 191 300 208 262 c 0,15,16
 238 193 238 193 293 157 c 128,-1,17
 348 121 348 121 438 121 c 0,18,19
 482 121 482 121 518.5 128.5 c 128,-1,20
 555 136 555 136 581.5 148.5 c 128,-1,21
 608 161 608 161 622.5 177 c 128,-1,22
 637 193 637 193 637 210 c 0,23,24
 637 236 637 236 625.5 256.5 c 128,-1,25
 614 277 614 277 587 294 c 128,-1,26
 560 311 560 311 516.5 326 c 128,-1,27
 473 341 473 341 409 356 c 0,28,29
 332 374 332 374 271 405.5 c 128,-1,30
 210 437 210 437 167.5 479.5 c 128,-1,31
 125 522 125 522 102.5 575.5 c 128,-1,32
 80 629 80 629 80 692 c 0,33,34
 80 763 80 763 119 814 c 128,-1,35
 158 865 158 865 218 891 c 1,36,-1
 219 891 l 1,37,38
 157 922 157 922 127 964.5 c 128,-1,39
 97 1007 97 1007 97 1073 c 0,40,41
 97 1110 97 1110 118.5 1145 c 128,-1,42
 140 1180 140 1180 179.5 1206.5 c 128,-1,43
 219 1233 219 1233 275.5 1249 c 128,-1,44
 332 1265 332 1265 402 1265 c 0,45,46
 432 1265 432 1265 462 1261 c 128,-1,47
 492 1257 492 1257 522 1248 c 1,48,-1
 552 1248 l 1,49,50
 568 1284 568 1284 609 1284 c 0,51,52
 633 1284 633 1284 650 1245 c 2,53,-1
 728 1049 l 2,54,55
 729 1047 729 1047 729 1041.5 c 128,-1,56
 729 1036 729 1036 729 1031 c 0,57,58
 729 1012 729 1012 714 998.5 c 128,-1,59
 699 985 699 985 669 985 c 0,60,61
 644 985 644 985 627 1023 c 0,62,63
 597 1092 597 1092 542 1128 c 128,-1,64
 487 1164 487 1164 397 1164 c 0,65,66
 353 1164 353 1164 316 1156.5 c 128,-1,67
 279 1149 279 1149 253 1136.5 c 128,-1,68
 227 1124 227 1124 212.5 1108 c 128,-1,69
 198 1092 198 1092 198 1075 c 0,70,71
 198 1049 198 1049 209.5 1028.5 c 128,-1,72
 221 1008 221 1008 248 991 c 128,-1,73
 275 974 275 974 318.5 959 c 128,-1,74
 362 944 362 944 426 929 c 0,75,76
 503 911 503 911 564 879.5 c 128,-1,77
 625 848 625 848 667.5 805 c 128,-1,78
 710 762 710 762 732.5 709 c 128,-1,79
 755 656 755 656 755 593 c 0,80,81
 755 559 755 559 745 528 c 128,-1,82
 735 497 735 497 716.5 471 c 128,-1,83
 698 445 698 445 673 425.5 c 128,-1,84
 648 406 648 406 618 394 c 1,85,-1
 616 394 l 1,86,87
 676 365 676 365 707 321.5 c 128,-1,88
 738 278 738 278 738 212 c 0,89,90
 738 174 738 174 716.5 139.5 c 128,-1,91
 695 105 695 105 655 78.5 c 128,-1,92
 615 52 615 52 559 36 c 128,-1,93
 503 20 503 20 433 20 c 0,94,95
 403 20 403 20 373 24 c 128,-1,96
 343 28 343 28 313 37 c 1,97,-1
 283 37 l 1,0,1
485 467 m 2,98,99
 529 468 529 468 560.5 481 c 128,-1,100
 592 494 592 494 612 514 c 128,-1,101
 632 534 632 534 641.5 559 c 128,-1,102
 651 584 651 584 652 611 c 1,103,104
 646 649 646 649 624.5 685 c 128,-1,105
 603 721 603 721 567.5 749.5 c 128,-1,106
 532 778 532 778 483 796.5 c 128,-1,107
 434 815 434 815 374 818 c 2,108,-1
 350 818 l 2,109,110
 306 816 306 816 274.5 803.5 c 128,-1,111
 243 791 243 791 223 771 c 128,-1,112
 203 751 203 751 193.5 726 c 128,-1,113
 184 701 184 701 183 674 c 0,114,115
 187 636 187 636 208 599 c 128,-1,116
 229 562 229 562 265 533 c 128,-1,117
 301 504 301 504 350.5 486 c 128,-1,118
 400 468 400 468 462 467 c 2,119,-1
 485 467 l 2,98,99
EndSplineSet
EndChar

StartChar: bracketright
Encoding: 93 93 142
Width: 492
GlyphClass: 1
Flags: W
LayerCount: 2
Fore
SplineSet
124 1447 m 2,0,1
 73 1447 73 1447 73 1497 c 0,2,3
 73 1548 73 1548 124 1548 c 2,4,-1
 250 1548 l 2,5,6
 302 1548 302 1548 302 1497 c 2,7,-1
 302 -105 l 2,8,9
 302 -156 302 -156 250 -156 c 2,10,-1
 124 -156 l 2,11,12
 73 -156 73 -156 73 -105 c 0,13,14
 73 -55 73 -55 124 -55 c 2,15,-1
 196 -55 l 1,16,-1
 196 1447 l 1,17,-1
 124 1447 l 2,0,1
EndSplineSet
EndChar

StartChar: bracketleft
Encoding: 91 91 143
Width: 492
GlyphClass: 1
Flags: W
LayerCount: 2
Fore
SplineSet
179 1447 m 1,0,-1
 179 -55 l 1,1,-1
 250 -55 l 2,2,3
 302 -55 302 -55 302 -105 c 0,4,5
 302 -156 302 -156 250 -156 c 2,6,-1
 124 -156 l 2,7,8
 73 -156 73 -156 73 -105 c 2,9,-1
 73 1497 l 2,10,11
 73 1548 73 1548 124 1548 c 2,12,-1
 250 1548 l 2,13,14
 302 1548 302 1548 302 1497 c 0,15,16
 302 1447 302 1447 250 1447 c 2,17,-1
 179 1447 l 1,0,-1
EndSplineSet
EndChar

StartChar: sterling
Encoding: 163 163 144
Width: 1395
GlyphClass: 1
Flags: W
LayerCount: 2
Fore
SplineSet
1009 103 m 1,0,1
 1066 144 1066 144 1122.5 184.5 c 128,-1,2
 1179 225 1179 225 1236 266 c 0,3,4
 1247 274 1247 274 1257 278.5 c 128,-1,5
 1267 283 1267 283 1275 283 c 0,6,7
 1287 283 1287 283 1297 278 c 128,-1,8
 1307 273 1307 273 1314.5 265.5 c 128,-1,9
 1322 258 1322 258 1326.5 249 c 128,-1,10
 1331 240 1331 240 1331 233 c 0,11,12
 1331 222 1331 222 1329 215.5 c 128,-1,13
 1327 209 1327 209 1323 204 c 2,14,-1
 1106 -17 l 2,15,16
 1091 -27 1091 -27 1082.5 -31 c 128,-1,17
 1074 -35 1074 -35 1065 -35 c 2,18,-1
 1064 -35 l 2,19,20
 1053 -36 1053 -36 1026 -13 c 1,21,-1
 1025 -13 l 1,22,-1
 1007 2 l 1,23,-1
 151 2 l 2,24,25
 100 2 100 2 100 53 c 0,26,27
 100 103 100 103 151 103 c 2,28,-1
 250 103 l 1,29,-1
 250 448 l 1,30,-1
 225 448 l 2,31,32
 199 448 199 448 172.5 448.5 c 128,-1,33
 146 449 146 449 120 449 c 0,34,35
 70 449 70 449 70 499 c 256,36,37
 70 549 70 549 121 549 c 2,38,-1
 250 549 l 1,39,-1
 250 1000 l 2,40,41
 250 1072 250 1072 281.5 1134 c 128,-1,42
 313 1196 313 1196 373.5 1243.5 c 128,-1,43
 434 1291 434 1291 522.5 1321.5 c 128,-1,44
 611 1352 611 1352 725 1362 c 1,45,-1
 730 1362 l 2,46,47
 741 1363 741 1363 749.5 1363.5 c 128,-1,48
 758 1364 758 1364 769 1364 c 0,49,50
 878 1364 878 1364 981 1317 c 1,51,-1
 1016 1317 l 1,52,53
 1019 1337 1019 1337 1034 1350 c 128,-1,54
 1049 1363 1049 1363 1075 1363 c 0,55,56
 1102 1363 1102 1363 1116 1322 c 2,57,-1
 1177 1123 l 1,58,-1
 1178 1123 l 2,59,60
 1179 1121 1179 1121 1179 1107 c 0,61,62
 1179 1088 1179 1088 1165.5 1075 c 128,-1,63
 1152 1062 1152 1062 1123 1062 c 0,64,65
 1100 1062 1100 1062 1079 1091 c 0,66,67
 1012 1176 1012 1176 938 1219 c 128,-1,68
 864 1262 864 1262 771 1262 c 0,69,70
 671 1262 671 1262 593 1241.5 c 128,-1,71
 515 1221 515 1221 462 1185.5 c 128,-1,72
 409 1150 409 1150 381 1102.5 c 128,-1,73
 353 1055 353 1055 353 1000 c 2,74,-1
 353 548 l 1,75,-1
 378 548 l 2,76,77
 410 548 410 548 441.5 547.5 c 128,-1,78
 473 547 473 547 505 547 c 0,79,80
 555 545 555 545 555 496 c 0,81,82
 555 444 555 444 504 446 c 0,83,84
 472 446 472 446 441 446.5 c 128,-1,85
 410 447 410 447 378 447 c 2,86,-1
 353 447 l 1,87,-1
 353 103 l 1,88,-1
 1009 103 l 1,0,1
EndSplineSet
EndChar

StartChar: ellipsis
Encoding: 8230 8230 145
Width: 1161
GlyphClass: 1
Flags: W
LayerCount: 2
Fore
SplineSet
473 68 m 2,0,1
 473 118 473 118 525 118 c 0,2,3
 575 118 575 118 575 68 c 2,4,-1
 575 53 l 2,5,6
 575 2 575 2 525 2 c 0,7,8
 473 2 473 2 473 53 c 2,9,-1
 473 68 l 2,0,1
863 68 m 2,10,11
 863 118 863 118 915 118 c 0,12,13
 965 118 965 118 965 68 c 2,14,-1
 965 53 l 2,15,16
 965 2 965 2 915 2 c 0,17,18
 863 2 863 2 863 53 c 2,19,-1
 863 68 l 2,10,11
74 68 m 2,20,21
 74 118 74 118 126 118 c 0,22,23
 176 118 176 118 176 68 c 2,24,-1
 176 53 l 2,25,26
 176 2 176 2 126 2 c 0,27,28
 74 2 74 2 74 53 c 2,29,-1
 74 68 l 2,20,21
EndSplineSet
EndChar

StartChar: paragraph
Encoding: 182 182 151
Width: 1450
GlyphClass: 1
Flags: W
LayerCount: 2
Fore
SplineSet
1303 1362 m 2,0,1
 1355 1362 1355 1362 1355 1311 c 0,2,3
 1355 1261 1355 1261 1303 1261 c 2,4,-1
 1206 1261 l 1,5,-1
 1206 103 l 1,6,-1
 1303 103 l 2,7,8
 1355 103 1355 103 1355 53 c 0,9,10
 1355 2 1355 2 1303 2 c 2,11,-1
 1006 2 l 2,12,13
 955 2 955 2 955 53 c 0,14,15
 955 103 955 103 1006 103 c 2,16,-1
 1103 103 l 1,17,-1
 1103 1261 l 1,18,-1
 645 1261 l 1,19,-1
 645 641 l 1,20,-1
 691 641 l 1,21,22
 696 649 696 649 700 656 c 128,-1,23
 704 663 704 663 706 667 c 0,24,25
 718 690 718 690 730 708 c 128,-1,26
 742 726 742 726 759 726 c 0,27,28
 789 726 789 726 804 713 c 128,-1,29
 819 700 819 700 819 681 c 0,30,31
 819 676 819 676 819 670.5 c 128,-1,32
 819 665 819 665 818 663 c 0,33,34
 792 599 792 599 752 552 c 128,-1,35
 712 505 712 505 658 477 c 1,36,-1
 645 477 l 1,37,-1
 645 103 l 1,38,-1
 742 103 l 2,39,40
 794 103 794 103 794 53 c 0,41,42
 794 2 794 2 742 2 c 2,43,-1
 445 2 l 2,44,45
 394 2 394 2 394 53 c 0,46,47
 394 103 394 103 445 103 c 2,48,-1
 542 103 l 1,49,-1
 542 434 l 1,50,-1
 512 434 l 2,51,52
 507 433 507 433 501 433 c 0,53,54
 496 433 496 433 492.5 432.5 c 128,-1,55
 489 432 489 432 486 432 c 2,56,-1
 460 432 l 2,57,58
 375 432 375 432 301.5 470.5 c 128,-1,59
 228 509 228 509 174 573.5 c 128,-1,60
 120 638 120 638 89 722.5 c 128,-1,61
 58 807 58 807 58 899 c 2,62,-1
 58 904 l 1,63,64
 67 1011 67 1011 100 1096 c 128,-1,65
 133 1181 133 1181 188.5 1240 c 128,-1,66
 244 1299 244 1299 321 1330.5 c 128,-1,67
 398 1362 398 1362 496 1362 c 2,68,-1
 1303 1362 l 2,0,1
542 1261 m 1,69,-1
 499 1261 l 2,70,71
 496 1260 496 1260 490 1260 c 0,72,73
 419 1260 419 1260 362 1234 c 128,-1,74
 305 1208 305 1208 263.5 1161 c 128,-1,75
 222 1114 222 1114 195.5 1046.5 c 128,-1,76
 169 979 169 979 159 897 c 1,77,78
 160 832 160 832 186 768.5 c 128,-1,79
 212 705 212 705 254 654 c 128,-1,80
 296 603 296 603 350 569.5 c 128,-1,81
 404 536 404 536 463 532 c 1,82,-1
 477 532 l 2,83,84
 491 533 491 533 502.5 534 c 128,-1,85
 514 535 514 535 523 537 c 2,86,-1
 542 537 l 1,87,-1
 542 1261 l 1,69,-1
616 1352 m 1,88,89
 616 1363 616 1363 607 1364.5 c 128,-1,90
 598 1366 598 1366 577 1356 c 1,91,-1
 563 1356 l 1,92,93
 563 1351 563 1351 564.5 1351 c 128,-1,94
 566 1351 566 1351 568 1353 c 0,95,96
 570 1352 570 1352 576.5 1352 c 128,-1,97
 583 1352 583 1352 591 1352 c 2,98,-1
 616 1352 l 1,88,89
EndSplineSet
EndChar

StartChar: perthousand
Encoding: 8240 8240 152
Width: 1974
GlyphClass: 1
Flags: W
LayerCount: 2
Fore
SplineSet
960 1499 m 2,0,1
 969 1512 969 1512 982 1512 c 0,2,3
 1004 1512 1004 1512 1016.5 1498.5 c 128,-1,4
 1029 1485 1029 1485 1029 1472 c 256,5,6
 1029 1459 1029 1459 1025 1451 c 1,7,-1
 1024 1451 l 1,8,9
 841 1071 841 1071 655.5 685.5 c 128,-1,10
 470 300 470 300 287 -80 c 1,11,12
 273 -97 273 -97 264 -97 c 0,13,14
 244 -97 244 -97 230.5 -84.5 c 128,-1,15
 217 -72 217 -72 217 -58 c 0,16,17
 217 -52 217 -52 218 -46 c 128,-1,18
 219 -40 219 -40 221 -35 c 1,19,-1
 222 -35 l 1,20,-1
 960 1499 l 2,0,1
1343 298 m 256,21,22
 1343 360 1343 360 1364.5 415 c 128,-1,23
 1386 470 1386 470 1423 510.5 c 128,-1,24
 1460 551 1460 551 1510.5 574.5 c 128,-1,25
 1561 598 1561 598 1618 598 c 256,26,27
 1675 598 1675 598 1725.5 574.5 c 128,-1,28
 1776 551 1776 551 1813.5 510.5 c 128,-1,29
 1851 470 1851 470 1873 415 c 128,-1,30
 1895 360 1895 360 1895 298 c 256,31,32
 1895 236 1895 236 1873 181 c 128,-1,33
 1851 126 1851 126 1813.5 85.5 c 128,-1,34
 1776 45 1776 45 1725.5 21.5 c 128,-1,35
 1675 -2 1675 -2 1618 -2 c 256,36,37
 1561 -2 1561 -2 1510.5 21.5 c 128,-1,38
 1460 45 1460 45 1423 85.5 c 128,-1,39
 1386 126 1386 126 1364.5 181 c 128,-1,40
 1343 236 1343 236 1343 298 c 256,21,22
1403 297 m 256,41,42
 1403 254 1403 254 1420 216.5 c 128,-1,43
 1437 179 1437 179 1466 151 c 128,-1,44
 1495 123 1495 123 1535 107 c 128,-1,45
 1575 91 1575 91 1620 91 c 256,46,47
 1665 91 1665 91 1704.5 107 c 128,-1,48
 1744 123 1744 123 1773.5 151 c 128,-1,49
 1803 179 1803 179 1820 216.5 c 128,-1,50
 1837 254 1837 254 1837 297 c 256,51,52
 1837 340 1837 340 1820 377.5 c 128,-1,53
 1803 415 1803 415 1773.5 443 c 128,-1,54
 1744 471 1744 471 1704.5 487.5 c 128,-1,55
 1665 504 1665 504 1620 504 c 256,56,57
 1575 504 1575 504 1535 487.5 c 128,-1,58
 1495 471 1495 471 1466 443 c 128,-1,59
 1437 415 1437 415 1420 377.5 c 128,-1,60
 1403 340 1403 340 1403 297 c 256,41,42
38 1117 m 256,61,62
 38 1179 38 1179 59.5 1234 c 128,-1,63
 81 1289 81 1289 118 1329.5 c 128,-1,64
 155 1370 155 1370 205.5 1393.5 c 128,-1,65
 256 1417 256 1417 313 1417 c 256,66,67
 370 1417 370 1417 420.5 1393.5 c 128,-1,68
 471 1370 471 1370 508.5 1329.5 c 128,-1,69
 546 1289 546 1289 568 1234 c 128,-1,70
 590 1179 590 1179 590 1117 c 256,71,72
 590 1055 590 1055 568 1000 c 128,-1,73
 546 945 546 945 508.5 904.5 c 128,-1,74
 471 864 471 864 420.5 840.5 c 128,-1,75
 370 817 370 817 313 817 c 256,76,77
 256 817 256 817 205.5 840.5 c 128,-1,78
 155 864 155 864 118 904.5 c 128,-1,79
 81 945 81 945 59.5 1000 c 128,-1,80
 38 1055 38 1055 38 1117 c 256,61,62
98 1116 m 256,81,82
 98 1073 98 1073 115 1035.5 c 128,-1,83
 132 998 132 998 161 970 c 128,-1,84
 190 942 190 942 230 926 c 128,-1,85
 270 910 270 910 315 910 c 256,86,87
 360 910 360 910 399.5 926 c 128,-1,88
 439 942 439 942 468.5 970 c 128,-1,89
 498 998 498 998 515 1035.5 c 128,-1,90
 532 1073 532 1073 532 1116 c 256,91,92
 532 1159 532 1159 515 1196.5 c 128,-1,93
 498 1234 498 1234 468.5 1262 c 128,-1,94
 439 1290 439 1290 399.5 1306.5 c 128,-1,95
 360 1323 360 1323 315 1323 c 256,96,97
 270 1323 270 1323 230 1306.5 c 128,-1,98
 190 1290 190 1290 161 1262 c 128,-1,99
 132 1234 132 1234 115 1196.5 c 128,-1,100
 98 1159 98 1159 98 1116 c 256,81,82
664 298 m 256,101,102
 664 360 664 360 685 415 c 128,-1,103
 706 470 706 470 743 510.5 c 128,-1,104
 780 551 780 551 830.5 574.5 c 128,-1,105
 881 598 881 598 939 598 c 0,106,107
 996 598 996 598 1046 574.5 c 128,-1,108
 1096 551 1096 551 1133.5 510.5 c 128,-1,109
 1171 470 1171 470 1193 415 c 128,-1,110
 1215 360 1215 360 1215 298 c 256,111,112
 1215 236 1215 236 1193 181 c 128,-1,113
 1171 126 1171 126 1133.5 85.5 c 128,-1,114
 1096 45 1096 45 1046 21.5 c 128,-1,115
 996 -2 996 -2 939 -2 c 0,116,117
 881 -2 881 -2 830.5 21.5 c 128,-1,118
 780 45 780 45 743 85.5 c 128,-1,119
 706 126 706 126 685 181 c 128,-1,120
 664 236 664 236 664 298 c 256,101,102
723 297 m 256,121,122
 723 254 723 254 740 216.5 c 128,-1,123
 757 179 757 179 786.5 151 c 128,-1,124
 816 123 816 123 855.5 107 c 128,-1,125
 895 91 895 91 940 91 c 256,126,127
 985 91 985 91 1025 107 c 128,-1,128
 1065 123 1065 123 1094 151 c 128,-1,129
 1123 179 1123 179 1140 216.5 c 128,-1,130
 1157 254 1157 254 1157 297 c 256,131,132
 1157 340 1157 340 1140 377.5 c 128,-1,133
 1123 415 1123 415 1094 443 c 128,-1,134
 1065 471 1065 471 1025 487.5 c 128,-1,135
 985 504 985 504 940 504 c 256,136,137
 895 504 895 504 855.5 487.5 c 128,-1,138
 816 471 816 471 786.5 443 c 128,-1,139
 757 415 757 415 740 377.5 c 128,-1,140
 723 340 723 340 723 297 c 256,121,122
EndSplineSet
EndChar

StartChar: OE
Encoding: 338 338 153
Width: 2038
GlyphClass: 1
Flags: W
LayerCount: 2
Fore
SplineSet
1523 1261 m 1,0,-1
 1139 1261 l 1,1,-1
 1139 882 l 1,2,-1
 1265 882 l 1,3,4
 1261 890 1261 890 1261 904 c 0,5,6
 1261 914 1261 914 1266.5 923.5 c 128,-1,7
 1272 933 1272 933 1280 940 c 128,-1,8
 1288 947 1288 947 1297 951 c 128,-1,9
 1306 955 1306 955 1314 955 c 0,10,11
 1321 955 1321 955 1331 950 c 128,-1,12
 1341 945 1341 945 1354 937 c 0,13,14
 1378 921 1378 921 1397 908 c 128,-1,15
 1416 895 1416 895 1440 879 c 1,16,17
 1443 870 1443 870 1458 867 c 1,18,-1
 1604 768 l 1,19,-1
 1605 768 l 2,20,21
 1610 765 1610 765 1613 756 c 128,-1,22
 1616 747 1616 747 1619 736 c 0,23,24
 1619 727 1619 727 1614 716.5 c 128,-1,25
 1609 706 1609 706 1600.5 698 c 128,-1,26
 1592 690 1592 690 1582 684.5 c 128,-1,27
 1572 679 1572 679 1563 679 c 0,28,29
 1550 679 1550 679 1523 697 c 2,30,-1
 1400 781 l 1,31,-1
 1139 781 l 1,32,-1
 1139 103 l 1,33,-1
 1645 103 l 1,34,35
 1702 144 1702 144 1758.5 184.5 c 128,-1,36
 1815 225 1815 225 1872 266 c 0,37,38
 1883 274 1883 274 1893 278.5 c 128,-1,39
 1903 283 1903 283 1911 283 c 0,40,41
 1923 283 1923 283 1933 278 c 128,-1,42
 1943 273 1943 273 1950.5 265.5 c 128,-1,43
 1958 258 1958 258 1962.5 249 c 128,-1,44
 1967 240 1967 240 1967 233 c 0,45,46
 1967 222 1967 222 1965 215.5 c 128,-1,47
 1963 209 1963 209 1959 204 c 2,48,-1
 1742 -17 l 2,49,50
 1727 -27 1727 -27 1718.5 -31 c 128,-1,51
 1710 -35 1710 -35 1701 -35 c 2,52,-1
 1700 -35 l 2,53,54
 1689 -36 1689 -36 1662 -13 c 1,55,-1
 1661 -13 l 1,56,-1
 1643 2 l 1,57,-1
 878 2 l 1,58,-1
 878 -2 l 1,59,-1
 885 -2 l 1,60,61
 795 -2 795 -2 701.5 17.5 c 128,-1,62
 608 37 608 37 520.5 75 c 128,-1,63
 433 113 433 113 356 169.5 c 128,-1,64
 279 226 279 226 221.5 299 c 128,-1,65
 164 372 164 372 131 462 c 128,-1,66
 98 552 98 552 98 658 c 0,67,68
 98 809 98 809 157.5 934.5 c 128,-1,69
 217 1060 217 1060 323.5 1152 c 128,-1,70
 430 1244 430 1244 577 1298 c 128,-1,71
 724 1352 724 1352 898 1361 c 1,72,-1
 903 1361 l 2,73,74
 907 1362 907 1362 918 1362 c 2,75,-1
 1508 1362 l 1,76,77
 1510 1367 1510 1367 1513.5 1371 c 128,-1,78
 1517 1375 1517 1375 1519 1380 c 0,79,80
 1539 1415 1539 1415 1558 1415 c 0,81,82
 1569 1415 1569 1415 1584 1408.5 c 128,-1,83
 1599 1402 1599 1402 1611 1393 c 2,84,-1
 1851 1184 l 2,85,86
 1856 1179 1856 1179 1859 1171 c 128,-1,87
 1862 1163 1862 1163 1862 1150 c 0,88,89
 1862 1142 1862 1142 1857 1133.5 c 128,-1,90
 1852 1125 1852 1125 1844.5 1117.5 c 128,-1,91
 1837 1110 1837 1110 1827 1105.5 c 128,-1,92
 1817 1101 1817 1101 1807 1101 c 0,93,94
 1794 1101 1794 1101 1768 1115 c 2,95,-1
 1523 1261 l 1,0,-1
1036 103 m 1,96,-1
 1036 1261 l 1,97,-1
 918 1261 l 2,98,99
 913 1261 913 1261 906.5 1261.5 c 128,-1,100
 900 1262 900 1262 893 1263 c 2,101,-1
 884 1263 l 1,102,103
 732 1254 732 1254 606.5 1205.5 c 128,-1,104
 481 1157 481 1157 391.5 1078.5 c 128,-1,105
 302 1000 302 1000 252.5 895.5 c 128,-1,106
 203 791 203 791 203 670 c 0,107,108
 203 581 203 581 230.5 504.5 c 128,-1,109
 258 428 258 428 305.5 364.5 c 128,-1,110
 353 301 353 301 417 251.5 c 128,-1,111
 481 202 481 202 554 167.5 c 128,-1,112
 627 133 627 133 705.5 114 c 128,-1,113
 784 95 784 95 860 93 c 2,114,-1
 873 93 l 1,115,116
 892 103 892 103 915 103 c 2,117,-1
 1036 103 l 1,96,-1
EndSplineSet
EndChar

StartChar: oe
Encoding: 339 339 154
Width: 1878
GlyphClass: 1
Flags: W
LayerCount: 2
Fore
SplineSet
1101 631 m 1,0,-1
 1081 631 l 1,1,2
 1065 608 1065 608 1054.5 582 c 128,-1,3
 1044 556 1044 556 1038 530.5 c 128,-1,4
 1032 505 1032 505 1030 480.5 c 128,-1,5
 1028 456 1028 456 1028 436 c 0,6,7
 1028 375 1028 375 1049 325 c 128,-1,8
 1070 275 1070 275 1104.5 236 c 128,-1,9
 1139 197 1139 197 1182 168.5 c 128,-1,10
 1225 140 1225 140 1268.5 121 c 128,-1,11
 1312 102 1312 102 1353 93 c 128,-1,12
 1394 84 1394 84 1423 84 c 0,13,14
 1491 84 1491 84 1556.5 112 c 128,-1,15
 1622 140 1622 140 1685 200 c 1,16,-1
 1686 200 l 1,17,18
 1710 224 1710 224 1725 224 c 0,19,20
 1735 224 1735 224 1746 219 c 128,-1,21
 1757 214 1757 214 1765 206.5 c 128,-1,22
 1773 199 1773 199 1778.5 190 c 128,-1,23
 1784 181 1784 181 1784 173 c 0,24,25
 1784 155 1784 155 1766 134 c 128,-1,26
 1748 113 1748 113 1722.5 93.5 c 128,-1,27
 1697 74 1697 74 1670.5 57.5 c 128,-1,28
 1644 41 1644 41 1626 33 c 1,29,-1
 1625 33 l 1,30,31
 1524 -16 1524 -16 1423 -16 c 0,32,33
 1370 -16 1370 -16 1312.5 -1.5 c 128,-1,34
 1255 13 1255 13 1198.5 41.5 c 128,-1,35
 1142 70 1142 70 1088.5 112.5 c 128,-1,36
 1035 155 1035 155 990 212 c 1,37,-1
 949 212 l 1,38,39
 916 158 916 158 869 112.5 c 128,-1,40
 822 67 822 67 766 35 c 128,-1,41
 710 3 710 3 647 -15 c 128,-1,42
 584 -33 584 -33 519 -33 c 0,43,44
 421 -33 421 -33 336 3 c 128,-1,45
 251 39 251 39 189 101.5 c 128,-1,46
 127 164 127 164 91.5 247.5 c 128,-1,47
 56 331 56 331 56 426 c 2,48,-1
 56 447 l 1,49,50
 61 545 61 545 102.5 632 c 128,-1,51
 144 719 144 719 212 784 c 128,-1,52
 280 849 280 849 369 886.5 c 128,-1,53
 458 924 458 924 558 924 c 2,54,-1
 567 924 l 1,55,56
 693 920 693 920 794 859.5 c 128,-1,57
 895 799 895 799 960 695 c 1,58,-1
 1002 695 l 1,59,60
 1030 740 1030 740 1069 778.5 c 128,-1,61
 1108 817 1108 817 1157.5 845.5 c 128,-1,62
 1207 874 1207 874 1266.5 890.5 c 128,-1,63
 1326 907 1326 907 1395 907 c 0,64,65
 1510 907 1510 907 1591 860.5 c 128,-1,66
 1672 814 1672 814 1723 706 c 1,67,-1
 1724 706 l 2,68,69
 1725 704 1725 704 1725 688 c 0,70,71
 1725 641 1725 641 1675 639 c 2,72,-1
 1101 631 l 1,0,-1
558 823 m 2,73,74
 474 823 474 823 401 789.5 c 128,-1,75
 328 756 328 756 274 700.5 c 128,-1,76
 220 645 220 645 189 573.5 c 128,-1,77
 158 502 158 502 158 426 c 0,78,79
 158 355 158 355 186.5 291 c 128,-1,80
 215 227 215 227 263.5 178.5 c 128,-1,81
 312 130 312 130 376.5 100.5 c 128,-1,82
 441 71 441 71 513 68 c 2,83,-1
 519 68 l 2,84,85
 596 68 596 68 666 99.5 c 128,-1,86
 736 131 736 131 790 183.5 c 128,-1,87
 844 236 844 236 878.5 304.5 c 128,-1,88
 913 373 913 373 919 447 c 1,89,-1
 919 465 l 2,90,91
 919 535 919 535 892 599 c 128,-1,92
 865 663 865 663 817.5 711.5 c 128,-1,93
 770 760 770 760 705.5 790 c 128,-1,94
 641 820 641 820 566 823 c 2,95,-1
 558 823 l 2,73,74
1561 739 m 1,96,-1
 1581 739 l 1,97,98
 1554 773 1554 773 1512 789.5 c 128,-1,99
 1470 806 1470 806 1402 806 c 0,100,101
 1261 806 1261 806 1170 733 c 1,102,-1
 1186 733 l 1,103,-1
 1561 739 l 1,96,-1
EndSplineSet
EndChar

StartChar: asciicircum
Encoding: 94 94 155
Width: 1468
GlyphClass: 1
Flags: W
LayerCount: 2
Fore
SplineSet
1368 304 m 2,0,1
 1419 304 1419 304 1419 254 c 0,2,3
 1419 203 1419 203 1368 203 c 2,4,-1
 1017 203 l 2,5,6
 967 203 967 203 967 254 c 0,7,8
 967 304 967 304 1017 304 c 2,9,-1
 1104 304 l 1,10,11
 1021 413 1021 413 938.5 520 c 128,-1,12
 856 627 856 627 773 736 c 1,13,-1
 734 736 l 1,14,-1
 374 304 l 1,15,-1
 438 304 l 2,16,17
 489 304 489 304 489 254 c 0,18,19
 489 203 489 203 438 203 c 2,20,-1
 121 203 l 2,21,22
 71 203 71 203 71 254 c 0,23,24
 71 304 71 304 121 304 c 2,25,-1
 248 304 l 1,26,27
 361 440 361 440 474 574.5 c 128,-1,28
 587 709 587 709 700 845 c 1,29,-1
 703 845 l 1,30,31
 715 865 715 865 729 872.5 c 128,-1,32
 743 880 743 880 762 880 c 0,33,34
 785 880 785 880 803 846 c 1,35,-1
 805 846 l 1,36,37
 911 710 911 710 1015.5 575 c 128,-1,38
 1120 440 1120 440 1226 304 c 1,39,-1
 1368 304 l 2,0,1
EndSplineSet
EndChar

StartChar: numbersign
Encoding: 35 35 157
Width: 943
GlyphClass: 1
Flags: W
LayerCount: 2
Fore
SplineSet
754 897 m 2,0,1
 780 897 780 897 792 883.5 c 128,-1,2
 804 870 804 870 804 846 c 0,3,4
 804 819 804 819 791.5 807.5 c 128,-1,5
 779 796 779 796 753 796 c 2,6,-1
 623 796 l 1,7,8
 615 778 615 778 606 760 c 128,-1,9
 597 742 597 742 589 724 c 1,10,-1
 756 724 l 2,11,12
 781 724 781 724 793.5 710.5 c 128,-1,13
 806 697 806 697 806 673 c 0,14,15
 806 646 806 646 793 634.5 c 128,-1,16
 780 623 780 623 754 623 c 2,17,-1
 539 623 l 1,18,19
 504 551 504 551 467.5 474 c 128,-1,20
 431 397 431 397 396 325 c 1,21,22
 382 308 382 308 373 308 c 0,23,24
 353 308 353 308 339.5 320.5 c 128,-1,25
 326 333 326 333 326 347 c 0,26,27
 326 360 326 360 331 370 c 1,28,-1
 332 370 l 1,29,30
 362 433 362 433 392.5 497 c 128,-1,31
 423 561 423 561 453 624 c 1,32,-1
 277 624 l 1,33,34
 242 552 242 552 204.5 474.5 c 128,-1,35
 167 397 167 397 132 325 c 1,36,37
 118 308 118 308 109 308 c 0,38,39
 89 308 89 308 75.5 320.5 c 128,-1,40
 62 333 62 333 62 347 c 0,41,42
 62 360 62 360 67 370 c 1,43,-1
 68 370 l 1,44,45
 98 434 98 434 128.5 497.5 c 128,-1,46
 159 561 159 561 189 625 c 1,47,-1
 114 625 l 2,48,49
 85 625 85 625 71.5 638.5 c 128,-1,50
 58 652 58 652 58 676 c 0,51,52
 58 726 58 726 109 726 c 2,53,-1
 216 725 l 1,54,-1
 239 725 l 1,55,56
 247 743 247 743 256 761 c 128,-1,57
 265 779 265 779 273 797 c 1,58,-1
 250 797 l 2,59,60
 215 797 215 797 181 797.5 c 128,-1,61
 147 798 147 798 112 798 c 0,62,63
 56 798 56 798 56 849 c 0,64,65
 56 899 56 899 108 899 c 2,66,-1
 298 898 l 1,67,-1
 321 898 l 1,68,69
 354 967 354 967 390.5 1041.5 c 128,-1,70
 427 1116 427 1116 460 1185 c 0,71,72
 469 1198 469 1198 481 1198 c 0,73,74
 503 1198 503 1198 515.5 1184.5 c 128,-1,75
 528 1171 528 1171 528 1158 c 256,76,77
 528 1145 528 1145 524 1137 c 1,78,-1
 523 1137 l 1,79,80
 494 1077 494 1077 465 1017.5 c 128,-1,81
 436 958 436 958 407 898 c 1,82,-1
 585 898 l 1,83,84
 618 967 618 967 654.5 1041.5 c 128,-1,85
 691 1116 691 1116 724 1185 c 0,86,87
 733 1198 733 1198 745 1198 c 0,88,89
 767 1198 767 1198 779.5 1184.5 c 128,-1,90
 792 1171 792 1171 792 1158 c 256,91,92
 792 1145 792 1145 788 1137 c 1,93,-1
 787 1137 l 1,94,95
 758 1077 758 1077 729 1017 c 128,-1,96
 700 957 700 957 671 897 c 1,97,-1
 754 897 l 2,0,1
325 725 m 1,98,-1
 503 725 l 1,99,100
 511 742 511 742 520 760.5 c 128,-1,101
 529 779 529 779 537 796 c 1,102,-1
 359 796 l 1,103,-1
 325 725 l 1,98,-1
EndSplineSet
EndChar

StartChar: ampersand
Encoding: 38 38 158
Width: 1513
GlyphClass: 1
Flags: W
LayerCount: 2
Fore
SplineSet
1379 71 m 1,0,-1
 1380 71 l 1,1,2
 1391 62 1391 62 1391 37 c 0,3,4
 1391 28 1391 28 1385.5 19.5 c 128,-1,5
 1380 11 1380 11 1371 4 c 128,-1,6
 1362 -3 1362 -3 1351.5 -7.5 c 128,-1,7
 1341 -12 1341 -12 1332 -12 c 0,8,9
 1315 -12 1315 -12 1292 10 c 1,10,-1
 1291 10 l 1,11,12
 1249 46 1249 46 1208.5 82.5 c 128,-1,13
 1168 119 1168 119 1126 155 c 1,14,-1
 1095 155 l 1,15,16
 1045 118 1045 118 987 86 c 128,-1,17
 929 54 929 54 861.5 31 c 128,-1,18
 794 8 794 8 715 -5.5 c 128,-1,19
 636 -19 636 -19 544 -19 c 0,20,21
 446 -19 446 -19 363.5 4 c 128,-1,22
 281 27 281 27 220.5 70 c 128,-1,23
 160 113 160 113 126 174.5 c 128,-1,24
 92 236 92 236 92 314 c 0,25,26
 92 445 92 445 171 534 c 0,27,28
 261 634 261 634 399 686 c 0,29,30
 404 687 404 687 415 692 c 128,-1,31
 426 697 426 697 436 702 c 0,32,33
 441 704 441 704 446 706 c 128,-1,34
 451 708 451 708 454 710 c 2,35,-1
 476 721 l 1,36,-1
 483 721 l 1,37,-1
 402 793 l 1,38,-1
 401 793 l 1,39,40
 329 856 329 856 329 951 c 0,41,42
 329 997 329 997 351 1042 c 128,-1,43
 373 1087 373 1087 415 1122 c 128,-1,44
 457 1157 457 1157 517.5 1179.5 c 128,-1,45
 578 1202 578 1202 655 1203 c 0,46,47
 728 1203 728 1203 790.5 1186 c 128,-1,48
 853 1169 853 1169 899.5 1139 c 128,-1,49
 946 1109 946 1109 972.5 1068 c 128,-1,50
 999 1027 999 1027 999 979 c 0,51,52
 999 916 999 916 960 867 c 128,-1,53
 921 818 921 818 848 783 c 0,54,55
 804 762 804 762 759.5 741 c 128,-1,56
 715 720 715 720 671 699 c 1,57,-1
 666 699 l 1,58,59
 773 605 773 605 879 512 c 128,-1,60
 985 419 985 419 1092 325 c 1,61,-1
 1126 325 l 1,62,63
 1174 376 1174 376 1206 417 c 128,-1,64
 1238 458 1238 458 1266 494 c 0,65,66
 1274 505 1274 505 1282.5 516 c 128,-1,67
 1291 527 1291 527 1299 538 c 0,68,69
 1321 568 1321 568 1339 568 c 0,70,71
 1365 568 1365 568 1383 552 c 128,-1,72
 1401 536 1401 536 1401 519 c 0,73,74
 1401 503 1401 503 1392 488.5 c 128,-1,75
 1383 474 1383 474 1373 462 c 1,76,-1
 1372 462 l 1,77,78
 1369 458 1369 458 1366 454.5 c 128,-1,79
 1363 451 1363 451 1361 448 c 0,80,81
 1319 393 1319 393 1275 338.5 c 128,-1,82
 1231 284 1231 284 1188 239 c 1,83,-1
 1189 239 l 1,84,-1
 1379 71 l 1,0,-1
576 640 m 1,85,-1
 549 640 l 1,86,-1
 522 628 l 1,87,-1
 521 628 l 1,88,-1
 501 618 l 1,89,-1
 486 612 l 2,90,91
 484 611 484 611 486.5 611.5 c 128,-1,92
 489 612 489 612 487 611 c 2,93,-1
 484 611 l 1,94,95
 468 603 468 603 465 602 c 0,96,97
 462 600 462 600 457.5 599 c 128,-1,98
 453 598 453 598 449 596 c 256,99,100
 445 594 445 594 440 592 c 0,101,102
 384 571 384 571 338.5 542.5 c 128,-1,103
 293 514 293 514 260.5 478.5 c 128,-1,104
 228 443 228 443 210 401.5 c 128,-1,105
 192 360 192 360 192 315 c 0,106,107
 192 261 192 261 217.5 218 c 128,-1,108
 243 175 243 175 289.5 144.5 c 128,-1,109
 336 114 336 114 401 98 c 128,-1,110
 466 82 466 82 544 82 c 0,111,112
 628 82 628 82 697.5 94 c 128,-1,113
 767 106 767 106 826 127 c 128,-1,114
 885 148 885 148 935 176.5 c 128,-1,115
 985 205 985 205 1029 239 c 1,116,-1
 1031 239 l 1,117,-1
 576 640 l 1,85,-1
575 780 m 1,118,-1
 602 780 l 1,119,120
 647 801 647 801 692 823 c 128,-1,121
 737 845 737 845 782 866 c 0,122,123
 836 892 836 892 867.5 921.5 c 128,-1,124
 899 951 899 951 899 979 c 0,125,126
 899 1004 899 1004 881.5 1026 c 128,-1,127
 864 1048 864 1048 832.5 1065 c 128,-1,128
 801 1082 801 1082 756 1092 c 128,-1,129
 711 1102 711 1102 657 1102 c 2,130,-1
 656 1102 l 2,131,132
 607 1101 607 1101 566 1088.5 c 128,-1,133
 525 1076 525 1076 495 1056 c 128,-1,134
 465 1036 465 1036 448.5 1010.5 c 128,-1,135
 432 985 432 985 432 958 c 0,136,137
 432 932 432 932 445 906.5 c 128,-1,138
 458 881 458 881 490 854 c 2,139,-1
 575 780 l 1,118,-1
EndSplineSet
EndChar

StartChar: braceleft
Encoding: 123 123 159
Width: 600
GlyphClass: 1
Flags: W
LayerCount: 2
Fore
SplineSet
495 1504 m 0,0,1
 546 1504 546 1504 546 1453 c 0,2,3
 546 1403 546 1403 495 1403 c 0,4,5
 453 1403 453 1403 428.5 1381.5 c 128,-1,6
 404 1360 404 1360 391 1325 c 128,-1,7
 378 1290 378 1290 373.5 1245 c 128,-1,8
 369 1200 369 1200 366 1153 c 0,9,10
 366 1148 366 1148 365.5 1141.5 c 128,-1,11
 365 1135 365 1135 365 1130 c 0,12,13
 359 1062 359 1062 350 995 c 128,-1,14
 341 928 341 928 328 867 c 0,15,16
 313 800 313 800 277.5 747 c 128,-1,17
 242 694 242 694 188 660 c 1,18,19
 241 627 241 627 276 575 c 128,-1,20
 311 523 311 523 327 452 c 0,21,22
 340 389 340 389 347.5 323.5 c 128,-1,23
 355 258 355 258 361 195 c 0,24,25
 366 140 366 140 372 90.5 c 128,-1,26
 378 41 378 41 386 0 c 0,27,28
 401 -82 401 -82 495 -82 c 0,29,30
 546 -82 546 -82 546 -132 c 0,31,32
 546 -183 546 -183 495 -183 c 0,33,34
 343 -183 343 -183 307 -72 c 0,35,36
 290 -21 290 -21 280.5 49 c 128,-1,37
 271 119 271 119 262 195 c 0,38,39
 254 252 254 252 245.5 317.5 c 128,-1,40
 237 383 237 383 223 447 c 0,41,42
 207 507 207 507 160.5 550 c 128,-1,43
 114 593 114 593 38 613 c 1,44,-1
 37 613 l 1,45,46
 22 617 22 617 14.5 633.5 c 128,-1,47
 7 650 7 650 7 666 c 0,48,49
 7 700 7 700 38 707 c 1,50,-1
 37 707 l 1,51,52
 116 729 116 729 162.5 770.5 c 128,-1,53
 209 812 209 812 223 872 c 0,54,55
 237 938 237 938 245.5 1001.5 c 128,-1,56
 254 1065 254 1065 262 1124 c 0,57,58
 271 1201 271 1201 280.5 1270.5 c 128,-1,59
 290 1340 290 1340 307 1392 c 0,60,61
 343 1504 343 1504 495 1504 c 0,0,1
EndSplineSet
EndChar

